<?xml version="1.0" encoding="utf-8"?>
<!-- Generator: Adobe Illustrator 16.0.0, SVG Export Plug-In . SVG Version: 6.00 Build 0)  -->
<!DOCTYPE svg PUBLIC "-//W3C//DTD SVG 1.1//EN" "http://www.w3.org/Graphics/SVG/1.1/DTD/svg11.dtd">
<svg version="1.1" id="Layer_1" xmlns="http://www.w3.org/2000/svg" xmlns:xlink="http://www.w3.org/1999/xlink" x="0px" y="0px"
	 width="36px" height="36px" viewBox="0 0 36 36" enable-background="new 0 0 36 36" xml:space="preserve">
<g>
	<path fill="#F9AC1E" d="M8.01,31.726c0.953-1.354,2.521-2.25,4.291-2.25h10.5c1.962,0,3.656,1.102,4.557,2.702
		C31.957,29.133,35,23.917,35,18c0-9.375-7.627-17-17-17C8.625,1,1,8.626,1,18C1,23.639,3.771,28.631,8.01,31.726z M17.402,6.595
		c5.717,0,10.355,4.637,10.355,10.356c0,5.713-4.639,10.351-10.355,10.351S7.049,22.664,7.049,16.951
		C7.049,11.232,11.686,6.595,17.402,6.595z"/>
	<path fill="#FFFFFF" d="M17.402,25.802c4.883,0,8.855-3.97,8.855-8.851c0-4.883-3.973-8.856-8.855-8.856
		c-4.881,0-8.854,3.973-8.854,8.856C8.549,21.832,12.521,25.802,17.402,25.802z M12.457,21.919v-2.613
		c1.445,0,2.613,1.172,2.613,2.613H12.457z M12.432,11.226c5.896,0,10.693,4.797,10.693,10.693h-1.5c0-5.07-4.123-9.193-9.193-9.193
		V11.226z M12.432,15.448c3.57,0,6.475,2.903,6.475,6.472h-1.5c0-2.741-2.23-4.972-4.975-4.972V15.448z"/>
	<path fill="#FFFFFF" d="M7.943,32.951c0,0,0.297,0.191,0.819,0.478c-0.271-0.163-0.55-0.316-0.813-0.494
		C7.947,32.94,7.943,32.951,7.943,32.951z"/>
	<path fill="#FFFFFF" d="M22.801,30.976h-10.5c-1.256,0-2.363,0.626-3.045,1.576C11.814,34.095,14.8,35,18,35
		c2.924,0,5.677-0.742,8.082-2.048C25.447,31.781,24.223,30.976,22.801,30.976z"/>
	<path fill="#455B65" d="M22.801,29.476h-10.5c-1.77,0-3.338,0.896-4.291,2.25c0.402,0.293,0.818,0.568,1.246,0.826
		c0.682-0.95,1.789-1.576,3.045-1.576h10.5c1.422,0,2.646,0.806,3.281,1.977c0.438-0.238,0.861-0.5,1.275-0.774
		C26.457,30.577,24.763,29.476,22.801,29.476z"/>
	<path fill="#455B65" d="M17.402,27.301c5.717,0,10.355-4.638,10.355-10.351c0-5.719-4.639-10.356-10.355-10.356
		S7.049,11.232,7.049,16.951C7.049,22.664,11.686,27.301,17.402,27.301z M17.402,8.095c4.883,0,8.855,3.973,8.855,8.856
		c0,4.881-3.973,8.851-8.855,8.851c-4.881,0-8.854-3.97-8.854-8.851C8.549,12.068,12.521,8.095,17.402,8.095z"/>
	<path fill="#455B65" d="M12.457,19.306v2.613h2.613C15.07,20.478,13.902,19.306,12.457,19.306z"/>
	<path fill="#455B65" d="M21.625,21.919h1.5c0-5.896-4.797-10.693-10.693-10.693v1.5C17.502,12.726,21.625,16.849,21.625,21.919z"/>
	<path fill="#455B65" d="M17.406,21.919h1.5c0-3.568-2.904-6.472-6.475-6.472v1.5C15.176,16.948,17.406,19.178,17.406,21.919z"/>
	<path fill="#455B65" d="M7.95,32.935c0.263,0.178,0.541,0.331,0.813,0.494C11.466,35.051,14.618,36,18,36c9.939,0,18-8.057,18-18
		C36,8.06,27.939,0,18,0C8.059,0,0,8.06,0,18C0,24.22,3.154,29.702,7.95,32.935z M18,1c9.373,0,17,7.626,17,17
		c0,5.917-3.043,11.132-7.643,14.177c-0.414,0.274-0.837,0.536-1.275,0.774C23.677,34.258,20.924,35,18,35
		c-3.2,0-6.186-0.905-8.744-2.448c-0.428-0.258-0.844-0.533-1.246-0.826C3.771,28.631,1,23.639,1,18C1,8.626,8.625,1,18,1z"/>
</g>
</svg>
