<?xml version="1.0" encoding="UTF-8" standalone="no"?>
<svg width="30px" height="31px" viewBox="0 0 30 31" version="1.1" xmlns="http://www.w3.org/2000/svg" xmlns:xlink="http://www.w3.org/1999/xlink">
    <!-- Generator: Sketch 3.8.3 (29802) - http://www.bohemiancoding.com/sketch -->
    <title>Page 1</title>
    <desc>Created with Sketch.</desc>
    <defs></defs>
    <g id="Page-1" stroke="none" stroke-width="1" fill="none" fill-rule="evenodd">
        <g id="Artboard-57" transform="translate(-176.000000, -347.000000)">
            <g id="Group-164" transform="translate(42.000000, 38.000000)">
                <g id="Group-141" transform="translate(0.000000, 305.428571)">
                    <g id="Group-136" transform="translate(129.000000, 4.000000)">
                        <g id="Page-1" transform="translate(5.000000, 0.000000)">
                            <path d="M10.7491,24.1846 L19.5381,24.1846 C21.2241,24.1846 22.6761,25.1556 23.4121,26.5546 C26.9611,23.9646 29.2811,19.7846 29.2811,15.0636 C29.2811,7.2166 22.8981,0.8336 15.0511,0.8336 C7.2051,0.8336 0.8201,7.2166 0.8201,15.0636 C0.8201,19.8436 3.1971,24.0696 6.8211,26.6526 C7.5411,25.1996 9.0271,24.1846 10.7491,24.1846 M15.0001,5.5206 C19.7851,5.5206 23.2471,8.9576 23.2471,13.7436 C23.2471,18.5266 19.8521,21.9376 15.0671,21.9376 C10.2831,21.9376 6.8871,18.4686 6.8871,13.6856 C6.8871,8.8986 10.2161,5.5206 15.0001,5.5206" id="Fill-1" fill="#CBCCCB"></path>
                            <path d="M22.3771,13.7038 C22.3771,17.7778 19.0741,21.0808 15.0001,21.0808 C10.9261,21.0808 7.6231,17.7778 7.6231,13.7038 C7.6231,9.6298 10.9261,6.3268 15.0001,6.3268 C19.0741,6.3268 22.3771,9.6298 22.3771,13.7038" id="Fill-3" fill="#FEFEFE"></path>
                            <path d="M7.932,27.2733 C8.414,26.1683 9.515,25.3913 10.797,25.3913 L19.547,25.3913 C20.794,25.3913 21.863,26.1313 22.364,27.1903 C22.721,26.9743 23.068,26.7463 23.403,26.5003 C22.67,25.1083 21.225,24.1413 19.547,24.1413 L10.797,24.1413 C9.082,24.1413 7.604,25.1523 6.887,26.5983 C7.224,26.8393 7.573,27.0623 7.932,27.2733" id="Fill-5" fill="#989898"></path>
                            <path d="M15.0462,22.3308 C19.8092,22.3308 23.6772,18.4658 23.6772,13.7048 C23.6772,8.9388 19.8092,5.0768 15.0462,5.0768 C10.2842,5.0768 6.4192,8.9398 6.4192,13.7048 C6.4192,18.4658 10.2842,22.3308 15.0462,22.3308 M15.0462,6.3268 C19.1162,6.3268 22.4272,9.6378 22.4272,13.7048 C22.4272,17.7728 19.1162,21.0808 15.0462,21.0808 C10.9782,21.0808 7.6692,17.7728 7.6692,13.7048 C7.6692,9.6368 10.9782,6.3268 15.0462,6.3268" id="Fill-7" fill="#989898"></path>
                            <path d="M15,0 C7.235,0 0.846,5.903 0.077,13.467 C0.026,13.97 0,14.482 0,15 C0,15.518 0.026,16.029 0.077,16.534 C0.533,21.023 2.973,24.922 6.501,27.353 C6.866,27.605 7.245,27.837 7.632,28.057 C9.809,29.288 12.32,30 15,30 C22.767,30 29.155,24.098 29.923,16.534 C29.974,16.03 30,15.518 30,15 C30,14.482 29.974,13.971 29.923,13.467 C29.155,5.903 22.767,0 15,0 M0.833,15 C0.833,7.188 7.189,0.833 15,0.833 C22.812,0.833 29.167,7.188 29.167,15 C29.167,19.7 26.857,23.861 23.323,26.439 C22.988,26.684 22.642,26.913 22.285,27.128 C20.152,28.413 17.666,29.167 15,29.167 C12.392,29.167 9.954,28.446 7.853,27.211 C7.494,27 7.145,26.777 6.807,26.536 C3.199,23.966 0.833,19.758 0.833,15" id="Fill-9" fill="#989898"></path>
                            <path d="M19.5631,25.3858 L10.8131,25.3858 C9.5371,25.3858 8.4421,26.1558 7.9561,27.2518 C10.0371,28.4568 12.4431,29.1608 15.0161,29.1608 C17.6821,29.1608 20.1691,28.4078 22.3011,27.1228 C22.3121,27.1158 22.3231,27.1078 22.3341,27.1008 C21.8161,26.0888 20.7761,25.3858 19.5631,25.3858" id="Fill-11" fill="#FEFEFE"></path>
                            <path d="M15.0493,19.2824 C12.2793,19.2824 9.9223,17.1224 9.6823,14.3644 C9.6533,14.0204 9.9073,13.7174 10.2513,13.6874 C10.6033,13.6644 10.8983,13.9124 10.9273,14.2564 C11.1113,16.3734 12.9223,18.0324 15.0493,18.0324 C17.1753,18.0324 18.9853,16.3734 19.1693,14.2564 C19.1993,13.9124 19.5043,13.6634 19.8453,13.6874 C20.1893,13.7174 20.4443,14.0204 20.4143,14.3644 C20.1743,17.1224 17.8183,19.2824 15.0493,19.2824" id="Fill-13" fill="#989898"></path>
                        </g>
                    </g>
                </g>
            </g>
        </g>
    </g>
</svg>