<?xml version="1.0" encoding="utf-8"?>
<!-- Generator: Adobe Illustrator 16.0.0, SVG Export Plug-In . SVG Version: 6.00 Build 0)  -->
<!DOCTYPE svg PUBLIC "-//W3C//DTD SVG 1.1//EN" "http://www.w3.org/Graphics/SVG/1.1/DTD/svg11.dtd">
<svg version="1.1" id="Layer_1" xmlns="http://www.w3.org/2000/svg" xmlns:xlink="http://www.w3.org/1999/xlink" x="0px" y="0px"
	 width="36px" height="36px" viewBox="0 0 36 36" enable-background="new 0 0 36 36" xml:space="preserve">
<g>
	<path fill="#F9AC1E" d="M12.863,28.896h10.5c2.014,0,3.746,1.159,4.625,2.829C32.229,28.632,35,23.639,35,18
		c0-9.375-7.627-17-17-17C8.625,1,1,8.626,1,18c0,5.71,2.839,10.761,7.171,13.845C9.03,30.109,10.806,28.896,12.863,28.896z
		 M17.963,6.017c3.715,0,6.967,1.964,8.793,4.903c0.033,0.025,0.072,0.038,0.102,0.067c0.119,0.12,0.176,0.271,0.199,0.428
		c0.805,1.473,1.264,3.161,1.264,4.957c0,5.713-4.639,10.351-10.357,10.351c-5.715,0-10.352-4.638-10.352-10.351
		C7.611,10.653,12.248,6.017,17.963,6.017z"/>
	<path fill="#FFFFFF" d="M9.111,16.372c0,4.881,3.971,8.851,8.852,8.851c4.885,0,8.857-3.97,8.857-8.851
		c0-1.26-0.268-2.456-0.746-3.543l-7.43,7.424c-0.002,0.003-0.002,0.006-0.006,0.009c-0.146,0.145-0.336,0.218-0.529,0.218
		c-0.191,0-0.385-0.073-0.531-0.221l-4.598-4.617c-0.291-0.293-0.291-0.768,0.002-1.061c0.293-0.29,0.768-0.293,1.061,0.003
		l4.066,4.082l7.217-7.208c-1.592-2.373-4.297-3.941-7.363-3.941C13.082,7.517,9.111,11.49,9.111,16.372z"/>
	<path fill="#FFFFFF" d="M26.742,32.553c-0.602-1.27-1.885-2.156-3.379-2.156h-10.5c-1.537,0-2.858,0.932-3.438,2.259
		C11.946,34.136,14.871,35,18,35C21.199,35,24.184,34.096,26.742,32.553z"/>
	<path fill="#455B65" d="M18,0C8.061,0,0,8.06,0,18c0,6.153,3.093,11.58,7.803,14.826c0.09-0.343,0.213-0.669,0.368-0.98
		C3.839,28.762,1,23.71,1,18C1,8.626,8.625,1,18,1c9.373,0,17,7.626,17,17c0,5.639-2.771,10.631-7.012,13.725
		c0.162,0.307,0.292,0.628,0.391,0.966C32.984,29.432,36,24.074,36,18C36,8.06,27.941,0,18,0z"/>
	<path fill="#455B65" d="M26.742,32.553C24.184,34.096,21.199,35,18,35c-3.129,0-6.054-0.864-8.574-2.345
		c-0.139,0.316-0.22,0.659-0.266,1.014C11.772,35.146,14.784,36,18,36c3.304,0,6.389-0.904,9.05-2.458
		C26.993,33.193,26.889,32.862,26.742,32.553z"/>
	<path fill="#455B65" d="M23.363,28.896h-10.5c-2.058,0-3.833,1.213-4.692,2.949c-0.155,0.312-0.278,0.638-0.368,0.98
		c0.438,0.302,0.893,0.58,1.357,0.843c0.046-0.354,0.127-0.697,0.266-1.014c0.579-1.327,1.9-2.259,3.438-2.259h10.5
		c1.494,0,2.777,0.887,3.379,2.156c0.146,0.31,0.251,0.641,0.308,0.989c0.456-0.266,0.9-0.547,1.329-0.851
		c-0.099-0.338-0.229-0.659-0.391-0.966C27.109,30.056,25.377,28.896,23.363,28.896z"/>
	<path fill="#455B65" d="M17.963,26.722c5.719,0,10.357-4.638,10.357-10.351c0-1.796-0.459-3.484-1.264-4.957
		c-0.023-0.156-0.08-0.308-0.199-0.428c-0.029-0.029-0.068-0.042-0.102-0.067c-1.826-2.939-5.078-4.903-8.793-4.903
		c-5.715,0-10.352,4.636-10.352,10.355C7.611,22.084,12.248,26.722,17.963,26.722z M25.326,11.458l-7.217,7.208l-4.066-4.082
		c-0.293-0.296-0.768-0.293-1.061-0.003c-0.293,0.293-0.293,0.768-0.002,1.061l4.598,4.617c0.146,0.147,0.34,0.221,0.531,0.221
		c0.193,0,0.383-0.073,0.529-0.218c0.004-0.003,0.004-0.006,0.006-0.009l7.43-7.424c0.479,1.087,0.746,2.283,0.746,3.543
		c0,4.881-3.973,8.851-8.857,8.851c-4.881,0-8.852-3.97-8.852-8.851c0-4.882,3.971-8.855,8.852-8.855
		C21.029,7.517,23.734,9.084,25.326,11.458z"/>
</g>
</svg>
