<?xml version="1.0" encoding="utf-8"?>
<!-- Generator: Adobe Illustrator 19.2.1, SVG Export Plug-In . SVG Version: 6.00 Build 0)  -->
<svg version="1.1" id="Layer_1" xmlns="http://www.w3.org/2000/svg" xmlns:xlink="http://www.w3.org/1999/xlink" x="0px" y="0px"
	 viewBox="0 0 36 36" style="enable-background:new 0 0 36 36;" xml:space="preserve">
<style type="text/css">
	.st0{fill:#fff;}
</style>
<g>
	<path class="st0" d="M18,6C12.2,6,7.6,10.7,7.6,16.4c0,5.7,4.6,10.4,10.4,10.4c5.7,0,10.4-4.6,10.4-10.4C28.3,10.7,23.7,6,18,6z
		 M18,25.2c-4.9,0-8.9-4-8.9-8.9c0-4.9,4-8.9,8.9-8.9c4.9,0,8.9,4,8.9,8.9C26.8,21.3,22.8,25.2,18,25.2z"/>
	<path class="st0" d="M22.2,15.6h-3.5v-3.5c0-0.4-0.3-0.8-0.8-0.8c-0.4,0-0.8,0.3-0.8,0.8v3.5h-3.5c-0.4,0-0.8,0.3-0.8,0.8
		c0,0.4,0.3,0.8,0.8,0.8h3.5v3.5c0,0.4,0.3,0.8,0.8,0.8c0.4,0,0.8-0.3,0.8-0.8v-3.5h3.5c0.4,0,0.8-0.3,0.8-0.8
		C23,16,22.6,15.6,22.2,15.6z"/>
	<path class="st0" d="M35.9,16.2C35,7.1,27.3,0,18,0C8.7,0,1,7.1,0.1,16.2C0,16.8,0,17.4,0,18c0,0.6,0,1.2,0.1,1.8
		c0.5,5.4,3.5,10.1,7.7,13c0.4,0.3,0.9,0.6,1.4,0.8c2.6,1.5,5.6,2.3,8.8,2.3c9.3,0,17-7.1,17.9-16.2C36,19.2,36,18.6,36,18
		C36,17.4,36,16.8,35.9,16.2z M18,35c-3.1,0-6.1-0.9-8.6-2.3c0.6-1.3,1.9-2.3,3.4-2.3h10.5c1.5,0,2.8,0.9,3.4,2.2
		C24.2,34.1,21.2,35,18,35z M28,31.7c-0.9-1.7-2.6-2.8-4.6-2.8H12.9c-2.1,0-3.8,1.2-4.7,2.9C3.8,28.8,1,23.7,1,18C1,8.6,8.6,1,18,1
		c9.4,0,17,7.6,17,17C35,23.6,32.2,28.6,28,31.7z"/>
</g>
</svg>
