<?xml version="1.0" encoding="utf-8"?>
<!-- Generator: Adobe Illustrator 16.0.0, SVG Export Plug-In . SVG Version: 6.00 Build 0)  -->
<!DOCTYPE svg PUBLIC "-//W3C//DTD SVG 1.1//EN" "http://www.w3.org/Graphics/SVG/1.1/DTD/svg11.dtd">
<svg version="1.1" id="Layer_1" xmlns="http://www.w3.org/2000/svg" xmlns:xlink="http://www.w3.org/1999/xlink" x="0px" y="0px"
	 width="36px" height="36px" viewBox="0 0 36 36" enable-background="new 0 0 36 36" xml:space="preserve">
<g>
	<path fill="#CCCCCC" d="M18,1C8.625,1,1,8.626,1,18.001c0,5.639,2.771,10.631,7.01,13.725c0.953-1.354,2.521-2.249,4.291-2.249
		h10.5c1.962,0,3.656,1.102,4.557,2.702C31.957,29.133,35,23.918,35,18.001C35,8.626,27.373,1,18,1z M17.402,27.303
		c-5.717,0-10.354-4.64-10.354-10.353c0-5.719,4.637-10.356,10.354-10.356s10.355,4.638,10.355,10.356
		C27.758,22.663,23.119,27.303,17.402,27.303z"/>
	<path fill="#FFFFFF" d="M26.258,16.95c0-4.883-3.973-8.856-8.855-8.856c-4.881,0-8.854,3.974-8.854,8.856
		c0,4.881,3.973,8.852,8.854,8.852C22.285,25.802,26.258,21.831,26.258,16.95z M12.457,21.919v-2.613
		c1.445,0,2.613,1.172,2.613,2.613H12.457z M17.406,21.919c0-2.74-2.23-4.971-4.975-4.971v-1.5c3.57,0,6.475,2.902,6.475,6.471
		H17.406z M21.625,21.919c0-5.07-4.123-9.193-9.193-9.193v-1.5c5.896,0,10.693,4.797,10.693,10.693H21.625z"/>
	<path fill="#FFFFFF" d="M7.943,32.951c0,0,0.296,0.191,0.819,0.478c-0.272-0.163-0.551-0.316-0.813-0.494
		C7.947,32.94,7.943,32.951,7.943,32.951z"/>
	<path fill="#FFFFFF" d="M22.801,30.977h-10.5c-1.256,0-2.363,0.625-3.045,1.575C11.814,34.095,14.8,35,18,35
		c2.924,0,5.677-0.742,8.082-2.048C25.447,31.782,24.223,30.977,22.801,30.977z"/>
	<path fill="#999999" d="M22.801,29.477h-10.5c-1.77,0-3.338,0.896-4.291,2.249c0.402,0.294,0.818,0.568,1.246,0.826
		c0.682-0.95,1.789-1.575,3.045-1.575h10.5c1.422,0,2.646,0.806,3.281,1.976c0.438-0.237,0.861-0.499,1.275-0.773
		C26.457,30.578,24.763,29.477,22.801,29.477z"/>
	<path fill="#999999" d="M17.402,6.594c-5.717,0-10.354,4.638-10.354,10.356c0,5.713,4.637,10.353,10.354,10.353
		s10.355-4.64,10.355-10.353C27.758,11.231,23.119,6.594,17.402,6.594z M8.549,16.95c0-4.883,3.973-8.856,8.854-8.856
		c4.883,0,8.855,3.974,8.855,8.856c0,4.881-3.973,8.852-8.855,8.852C12.521,25.802,8.549,21.831,8.549,16.95z"/>
	<path fill="#999999" d="M12.457,19.306v2.613h2.613C15.07,20.478,13.902,19.306,12.457,19.306z"/>
	<path fill="#999999" d="M12.432,11.226v1.5c5.07,0,9.193,4.123,9.193,9.193h1.5C23.125,16.022,18.328,11.226,12.432,11.226z"/>
	<path fill="#999999" d="M12.432,15.448v1.5c2.744,0,4.975,2.23,4.975,4.971h1.5C18.906,18.351,16.002,15.448,12.432,15.448z"/>
	<path fill="#999999" d="M18,0C8.059,0,0,8.059,0,18.001c0,6.219,3.154,11.701,7.95,14.934c0.262,0.178,0.54,0.331,0.813,0.494
		C11.466,35.051,14.618,36,18,36c9.939,0,18-8.057,18-17.999S27.939,0,18,0z M27.357,32.179c-0.414,0.274-0.837,0.536-1.275,0.773
		C23.677,34.258,20.924,35,18,35c-3.2,0-6.186-0.905-8.744-2.448c-0.428-0.258-0.844-0.532-1.246-0.826
		C3.771,28.632,1,23.64,1,18.001C1,8.626,8.625,1,18,1c9.373,0,17,7.626,17,17.001C35,23.918,31.957,29.133,27.357,32.179z"/>
</g>
</svg>
