<?xml version="1.0" encoding="utf-8"?>
<!-- Generator: Adobe Illustrator 19.2.1, SVG Export Plug-In . SVG Version: 6.00 Build 0)  -->
<svg version="1.1" id="Layer_1" xmlns="http://www.w3.org/2000/svg" xmlns:xlink="http://www.w3.org/1999/xlink" x="0px" y="0px"
	 viewBox="0 0 36 36" style="enable-background:new 0 0 36 36;" xml:space="preserve">
<style type="text/css">
	.st0{fill:#fff;}
</style>
<path class="st0" d="M7.9,33c0,0,0.3,0.2,0.8,0.5C8.5,33.3,8.2,33.1,7.9,33C7.9,32.9,7.9,33,7.9,33z"/>
<g>
	<path class="st0" d="M17.4,6.6C11.7,6.6,7,11.2,7,17c0,5.7,4.6,10.4,10.4,10.4S27.8,22.7,27.8,17C27.8,11.2,23.1,6.6,17.4,6.6z
		 M17.4,25.8c-4.9,0-8.9-4-8.9-8.9c0-4.9,4-8.9,8.9-8.9c4.9,0,8.9,4,8.9,8.9C26.3,21.8,22.3,25.8,17.4,25.8z"/>
	<path class="st0" d="M12.5,19.3v2.6h2.6C15.1,20.5,13.9,19.3,12.5,19.3z"/>
	<path class="st0" d="M12.4,11.2v1.5c5.1,0,9.2,4.1,9.2,9.2h1.5C23.1,16,18.3,11.2,12.4,11.2z"/>
	<path class="st0" d="M12.4,15.4v1.5c2.7,0,5,2.2,5,5h1.5C18.9,18.4,16,15.4,12.4,15.4z"/>
	<path class="st0" d="M18,0C8.1,0,0,8.1,0,18c0,6.2,3.2,11.7,7.9,14.9c0.3,0.2,0.5,0.3,0.8,0.5C11.5,35,14.6,36,18,36
		c9.9,0,18-8.1,18-18C36,8.1,27.9,0,18,0z M18,35c-3.2,0-6.2-0.9-8.7-2.4c0.7-1,1.8-1.6,3-1.6h10.5c1.4,0,2.6,0.8,3.3,2
		C23.7,34.3,20.9,35,18,35z M27.4,32.2c-0.9-1.6-2.6-2.7-4.6-2.7H12.3c-1.8,0-3.3,0.9-4.3,2.2C3.8,28.6,1,23.6,1,18
		C1,8.6,8.6,1,18,1s17,7.6,17,17C35,23.9,32,29.1,27.4,32.2z"/>
</g>
</svg>
