<?xml version="1.0" encoding="utf-8"?>
<!-- Generator: Adobe Illustrator 16.0.0, SVG Export Plug-In . SVG Version: 6.00 Build 0)  -->
<!DOCTYPE svg PUBLIC "-//W3C//DTD SVG 1.1//EN" "http://www.w3.org/Graphics/SVG/1.1/DTD/svg11.dtd">
<svg version="1.1" id="Layer_1" xmlns="http://www.w3.org/2000/svg" xmlns:xlink="http://www.w3.org/1999/xlink" x="0px" y="0px"
	 width="36px" height="36px" viewBox="0 0 36 36" enable-background="new 0 0 36 36" xml:space="preserve">
<g>
	<path fill="#CCCCCC" d="M12.863,28.896h10.5c2.014,0,3.746,1.158,4.625,2.828C32.229,28.631,35,23.639,35,18
		c0-9.373-7.627-17-17-17C8.625,1,1,8.627,1,18c0,5.711,2.839,10.762,7.171,13.846C9.03,30.109,10.806,28.896,12.863,28.896z
		 M17.963,6.018c3.715,0,6.967,1.963,8.793,4.902c0.033,0.025,0.072,0.037,0.102,0.066c0.119,0.121,0.176,0.271,0.199,0.428
		c0.805,1.473,1.264,3.162,1.264,4.957c0,5.713-4.639,10.352-10.357,10.352c-5.715,0-10.352-4.639-10.352-10.352
		C7.611,10.652,12.248,6.018,17.963,6.018z"/>
	<path fill="#FFFFFF" d="M9.111,16.371c0,4.881,3.971,8.852,8.852,8.852c4.885,0,8.857-3.971,8.857-8.852
		c0-1.26-0.268-2.455-0.746-3.543l-7.43,7.424c-0.002,0.004-0.002,0.006-0.006,0.01c-0.146,0.145-0.336,0.217-0.529,0.217
		c-0.191,0-0.385-0.072-0.531-0.221l-4.598-4.617c-0.291-0.293-0.291-0.768,0.002-1.061c0.293-0.289,0.768-0.293,1.061,0.004
		l4.066,4.082l7.217-7.209c-1.592-2.373-4.297-3.939-7.363-3.939C13.082,7.518,9.111,11.49,9.111,16.371z"/>
	<path fill="#FFFFFF" d="M26.742,32.553c-0.602-1.27-1.885-2.156-3.379-2.156h-10.5c-1.537,0-2.858,0.932-3.438,2.258
		C11.946,34.135,14.871,35,18,35C21.199,35,24.184,34.096,26.742,32.553z"/>
	<path fill="#999999" d="M18,0C8.061,0,0,8.061,0,18c0,6.154,3.093,11.58,7.803,14.826c0.09-0.344,0.213-0.67,0.368-0.98
		C3.839,28.762,1,23.711,1,18C1,8.627,8.625,1,18,1c9.373,0,17,7.627,17,17c0,5.639-2.771,10.631-7.012,13.725
		c0.162,0.307,0.292,0.629,0.391,0.967C32.984,29.432,36,24.074,36,18C36,8.061,27.941,0,18,0z"/>
	<path fill="#999999" d="M26.742,32.553C24.184,34.096,21.199,35,18,35c-3.129,0-6.054-0.865-8.574-2.346
		c-0.139,0.316-0.22,0.66-0.266,1.014C11.772,35.146,14.784,36,18,36c3.304,0,6.389-0.904,9.05-2.457
		C26.993,33.193,26.889,32.861,26.742,32.553z"/>
	<path fill="#999999" d="M23.363,28.896h-10.5c-2.058,0-3.833,1.213-4.692,2.949c-0.155,0.311-0.278,0.637-0.368,0.98
		c0.438,0.301,0.893,0.58,1.357,0.842c0.046-0.354,0.127-0.697,0.266-1.014c0.579-1.326,1.9-2.258,3.438-2.258h10.5
		c1.494,0,2.777,0.887,3.379,2.156c0.146,0.309,0.251,0.641,0.308,0.99c0.456-0.268,0.9-0.549,1.329-0.852
		c-0.099-0.338-0.229-0.66-0.391-0.967C27.109,30.055,25.377,28.896,23.363,28.896z"/>
	<path fill="#999999" d="M17.963,26.723c5.719,0,10.357-4.639,10.357-10.352c0-1.795-0.459-3.484-1.264-4.957
		c-0.023-0.156-0.08-0.307-0.199-0.428c-0.029-0.029-0.068-0.041-0.102-0.066c-1.826-2.939-5.078-4.902-8.793-4.902
		c-5.715,0-10.352,4.635-10.352,10.354C7.611,22.084,12.248,26.723,17.963,26.723z M25.326,11.457l-7.217,7.209l-4.066-4.082
		c-0.293-0.297-0.768-0.293-1.061-0.004c-0.293,0.293-0.293,0.768-0.002,1.061l4.598,4.617c0.146,0.148,0.34,0.221,0.531,0.221
		c0.193,0,0.383-0.072,0.529-0.217c0.004-0.004,0.004-0.006,0.006-0.01l7.43-7.424c0.479,1.088,0.746,2.283,0.746,3.543
		c0,4.881-3.973,8.852-8.857,8.852c-4.881,0-8.852-3.971-8.852-8.852s3.971-8.854,8.852-8.854
		C21.029,7.518,23.734,9.084,25.326,11.457z"/>
</g>
</svg>
