<?xml version="1.0" encoding="utf-8"?>
<!-- Generator: Adobe Illustrator 16.0.0, SVG Export Plug-In . SVG Version: 6.00 Build 0)  -->
<!DOCTYPE svg PUBLIC "-//W3C//DTD SVG 1.1//EN" "http://www.w3.org/Graphics/SVG/1.1/DTD/svg11.dtd">
<svg version="1.1" id="Layer_1" xmlns="http://www.w3.org/2000/svg" xmlns:xlink="http://www.w3.org/1999/xlink" x="0px" y="0px"
	 width="36px" height="36px" viewBox="0 0 36 36" enable-background="new 0 0 36 36" xml:space="preserve">
<g>
	<path fill="#FFB74D" d="M12.715,28.896h10.5c2.014,0,3.748,1.16,4.627,2.831c4.24-3.094,7.012-8.087,7.012-13.727
		c0-9.374-7.625-17-17-17c-9.373,0-17,7.626-17,17c0,5.71,2.839,10.759,7.169,13.844C8.883,30.108,10.658,28.896,12.715,28.896z
		 M17.815,6.017c5.716,0,10.357,4.636,10.357,10.354c0,5.713-4.641,10.351-10.357,10.351c-5.715,0-10.352-4.638-10.352-10.351
		C7.463,10.652,12.1,6.017,17.815,6.017z"/>
	<path fill="#FFB74D" d="M17.854,0C8.534,0,0.869,7.084-0.053,16.16C0.869,7.084,8.536,0,17.854,0z"/>
	<path fill="#FFB74D" d="M9.012,33.668C9.012,33.668,9.012,33.668,9.012,33.668C11.625,35.146,14.637,36,17.854,36
		C14.638,36,11.625,35.146,9.012,33.668z"/>
	<path fill="#FFB74D" d="M-0.053,19.841c0.547,5.387,3.474,10.065,7.708,12.984c0,0,0,0,0-0.001
		C3.421,29.906,0.494,25.228-0.053,19.841z"/>
	<path fill="#FFFFFF" d="M17.815,25.222c4.884,0,8.857-3.97,8.857-8.851c0-4.882-3.973-8.854-8.857-8.854
		c-4.881,0-8.852,3.973-8.852,8.854C8.963,21.252,12.934,25.222,17.815,25.222z M13.565,15.618h3.504v-3.495
		c0-0.414,0.336-0.75,0.75-0.75c0.416,0,0.75,0.336,0.75,0.75v3.495h3.492c0.416,0,0.75,0.336,0.75,0.75
		c0,0.415-0.334,0.75-0.75,0.75h-3.492v3.495c0,0.415-0.334,0.75-0.75,0.75c-0.414,0-0.75-0.335-0.75-0.75v-3.495h-3.504
		c-0.414,0-0.75-0.335-0.75-0.75C12.815,15.954,13.151,15.618,13.565,15.618z"/>
	<path fill="#FFFFFF" d="M23.215,30.396h-10.5c-1.537,0-2.858,0.932-3.438,2.258C11.799,34.135,14.724,35,17.854,35
		c3.199,0,6.183-0.904,8.742-2.446C25.994,31.283,24.711,30.396,23.215,30.396z"/>
	<path fill="#455B65" d="M7.655,32.824C7.655,32.825,7.655,32.825,7.655,32.824L7.655,32.824c0.438,0.304,0.892,0.582,1.357,0.845
		l0,0c0-0.001,0-0.001,0-0.001C8.547,33.405,8.092,33.126,7.655,32.824z"/>
	<path fill="#455B65" d="M9.278,32.653c0.579-1.326,1.9-2.258,3.438-2.258h10.5c1.496,0,2.779,0.888,3.381,2.158
		c0.428-0.259,0.844-0.533,1.246-0.827c-0.879-1.671-2.613-2.831-4.627-2.831h-10.5c-2.058,0-3.832,1.213-4.692,2.948
		C8.428,32.132,8.847,32.4,9.278,32.653z"/>
	<path fill="#455B65" d="M17.815,26.722c5.716,0,10.357-4.638,10.357-10.351c0-5.719-4.641-10.354-10.357-10.354
		c-5.715,0-10.352,4.636-10.352,10.354C7.463,22.084,12.1,26.722,17.815,26.722z M17.815,7.517c4.884,0,8.857,3.973,8.857,8.854
		c0,4.881-3.973,8.851-8.857,8.851c-4.881,0-8.852-3.97-8.852-8.851C8.963,11.489,12.934,7.517,17.815,7.517z"/>
	<path fill="#455B65" d="M13.565,17.118h3.504v3.495c0,0.415,0.336,0.75,0.75,0.75c0.416,0,0.75-0.335,0.75-0.75v-3.495h3.492
		c0.416,0,0.75-0.335,0.75-0.75c0-0.414-0.334-0.75-0.75-0.75h-3.492v-3.495c0-0.414-0.334-0.75-0.75-0.75
		c-0.414,0-0.75,0.336-0.75,0.75v3.495h-3.504c-0.414,0-0.75,0.336-0.75,0.75C12.815,16.783,13.151,17.118,13.565,17.118z"/>
	<path fill="#455B65" d="M17.854,0C8.536,0,0.869,7.084-0.053,16.16c-0.062,0.604-0.093,1.219-0.093,1.84s0.031,1.235,0.093,1.841
		c0.547,5.387,3.475,10.065,7.708,12.983c0.438,0.302,0.893,0.581,1.357,0.844C11.625,35.146,14.638,36,17.854,36
		c9.32,0,16.986-7.082,17.908-16.159c0.061-0.605,0.092-1.22,0.092-1.841s-0.031-1.235-0.092-1.84C34.84,7.084,27.174,0,17.854,0z
		 M0.854,18c0-9.374,7.627-17,17-17c9.375,0,17,7.626,17,17c0,5.64-2.771,10.633-7.012,13.727c-0.402,0.294-0.818,0.568-1.246,0.827
		C24.037,34.096,21.053,35,17.854,35c-3.13,0-6.055-0.865-8.576-2.347c-0.431-0.253-0.85-0.521-1.255-0.81
		C3.693,28.759,0.854,23.71,0.854,18z"/>
</g>
</svg>
