<?xml version="1.0" encoding="utf-8"?>
<!-- Generator: Adobe Illustrator 16.0.0, SVG Export Plug-In . SVG Version: 6.00 Build 0)  -->
<!DOCTYPE svg PUBLIC "-//W3C//DTD SVG 1.1//EN" "http://www.w3.org/Graphics/SVG/1.1/DTD/svg11.dtd">
<svg version="1.1" id="Layer_1" xmlns="http://www.w3.org/2000/svg" xmlns:xlink="http://www.w3.org/1999/xlink" x="0px" y="0px"
	 width="36px" height="36px" viewBox="0 0 36 36" enable-background="new 0 0 36 36" xml:space="preserve">
<g>
	<path fill="#B0BEC5" d="M18,0C8.68,0,1.015,7.084,0.093,16.16C1.015,7.084,8.682,0,18,0z"/>
	<path fill="#B0BEC5" d="M0.093,19.841c0.547,5.388,3.474,10.066,7.708,12.984l0,0C3.567,29.906,0.64,25.229,0.093,19.841z"/>
	<path fill="#CCCCCC" d="M12.861,28.896h10.5c2.014,0,3.747,1.16,4.626,2.83C32.229,28.633,35,23.64,35,18c0-9.374-7.625-17-17-17
		C8.627,1,1,8.626,1,18c0,5.71,2.839,10.76,7.17,13.844C9.029,30.109,10.805,28.896,12.861,28.896z M17.961,6.018
		c5.717,0,10.357,4.635,10.357,10.354c0,5.713-4.641,10.352-10.357,10.352c-5.715,0-10.352-4.639-10.352-10.352
		C7.609,10.652,12.246,6.018,17.961,6.018z"/>
	<path fill="#B0BEC5" d="M9.158,33.668L9.158,33.668C11.771,35.146,14.783,36,18,36C14.784,36,11.771,35.146,9.158,33.668z"/>
	<path fill="#FFFFFF" d="M17.961,25.223c4.885,0,8.857-3.971,8.857-8.852s-3.973-8.854-8.857-8.854
		c-4.881,0-8.852,3.973-8.852,8.854S13.08,25.223,17.961,25.223z M13.711,15.619h3.504v-3.496c0-0.414,0.336-0.75,0.75-0.75
		c0.416,0,0.75,0.336,0.75,0.75v3.496h3.492c0.416,0,0.75,0.336,0.75,0.75s-0.334,0.75-0.75,0.75h-3.492v3.494
		c0,0.416-0.334,0.75-0.75,0.75c-0.414,0-0.75-0.334-0.75-0.75v-3.494h-3.504c-0.414,0-0.75-0.336-0.75-0.75
		S13.297,15.619,13.711,15.619z"/>
	<path fill="#FFFFFF" d="M23.361,30.396h-10.5c-1.537,0-2.857,0.932-3.438,2.257C11.945,34.135,14.87,35,18,35
		c3.198,0,6.183-0.904,8.74-2.446C26.14,31.283,24.856,30.396,23.361,30.396z"/>
	<path fill="#78909C" d="M7.801,32.825L7.801,32.825C7.801,32.826,7.801,32.826,7.801,32.825c0.438,0.304,0.892,0.582,1.357,0.845
		v-0.001v-0.001C8.693,33.405,8.239,33.127,7.801,32.825z"/>
	<path fill="#999999" d="M9.424,32.653c0.58-1.325,1.9-2.257,3.438-2.257h10.5c1.495,0,2.778,0.887,3.379,2.157
		c0.429-0.258,0.845-0.533,1.247-0.827c-0.879-1.67-2.612-2.83-4.626-2.83h-10.5c-2.057,0-3.832,1.213-4.691,2.947
		C8.574,32.133,8.994,32.4,9.424,32.653z"/>
	<path fill="#999999" d="M17.961,26.723c5.717,0,10.357-4.639,10.357-10.352c0-5.719-4.641-10.354-10.357-10.354
		c-5.715,0-10.352,4.635-10.352,10.354C7.609,22.084,12.246,26.723,17.961,26.723z M17.961,7.518c4.885,0,8.857,3.973,8.857,8.854
		s-3.973,8.852-8.857,8.852c-4.881,0-8.852-3.971-8.852-8.852S13.08,7.518,17.961,7.518z"/>
	<path fill="#999999" d="M13.711,17.119h3.504v3.494c0,0.416,0.336,0.75,0.75,0.75c0.416,0,0.75-0.334,0.75-0.75v-3.494h3.492
		c0.416,0,0.75-0.336,0.75-0.75s-0.334-0.75-0.75-0.75h-3.492v-3.496c0-0.414-0.334-0.75-0.75-0.75c-0.414,0-0.75,0.336-0.75,0.75
		v3.496h-3.504c-0.414,0-0.75,0.336-0.75,0.75S13.297,17.119,13.711,17.119z"/>
	<path fill="#999999" d="M18,0C8.682,0,1.015,7.084,0.093,16.16C0.031,16.765,0,17.379,0,18s0.031,1.235,0.093,1.841
		c0.547,5.388,3.475,10.065,7.708,12.984c0.438,0.302,0.893,0.58,1.357,0.843C11.771,35.146,14.784,36,18,36
		c9.32,0,16.985-7.081,17.907-16.159C35.969,19.235,36,18.621,36,18s-0.031-1.235-0.093-1.84C34.985,7.084,27.32,0,18,0z M1,18
		C1,8.626,8.627,1,18,1c9.375,0,17,7.626,17,17c0,5.64-2.771,10.633-7.013,13.727c-0.402,0.294-0.818,0.569-1.247,0.827
		C24.183,34.096,21.198,35,18,35c-3.13,0-6.055-0.865-8.576-2.347c-0.43-0.253-0.85-0.521-1.254-0.81C3.839,28.76,1,23.71,1,18z"/>
</g>
</svg>
