<?xml version="1.0" encoding="utf-8"?>
<!-- Generator: Adobe Illustrator 15.0.0, SVG Export Plug-In . SVG Version: 6.00 Build 0)  -->
<!DOCTYPE svg PUBLIC "-//W3C//DTD SVG 1.1//EN" "http://www.w3.org/Graphics/SVG/1.1/DTD/svg11.dtd">
<svg version="1.1" id="Layer_1" xmlns="http://www.w3.org/2000/svg" xmlns:xlink="http://www.w3.org/1999/xlink" x="0px" y="0px"
	 width="40px" height="40px" viewBox="0 0 40 40" enable-background="new 0 0 40 40" xml:space="preserve">
<g>
	<defs>
		<rect id="SVGID_1_" width="40" height="40"/>
	</defs>
	<clipPath id="SVGID_2_">
		<use xlink:href="#SVGID_1_"  overflow="visible"/>
	</clipPath>
	<g clip-path="url(#SVGID_2_)">
		<defs>
			<rect id="SVGID_3_" width="40" height="40"/>
		</defs>
		<clipPath id="SVGID_4_">
			<use xlink:href="#SVGID_3_"  overflow="visible"/>
		</clipPath>
		<path clip-path="url(#SVGID_4_)" fill="#493547" d="M19.999,1.541c5.097,0,9.712,2.067,13.052,5.407
			c3.604,3.604,5.407,8.329,5.407,13.053c0,4.725-1.803,9.448-5.407,13.053c-3.34,3.341-7.955,5.406-13.052,5.406
			s-9.712-2.065-13.052-5.406C3.342,29.448,1.54,24.725,1.54,20c0-4.724,1.802-9.449,5.407-13.053
			C10.287,3.607,14.901,1.541,19.999,1.541 M19.999,0.001c-5.342,0-10.364,2.08-14.141,5.857C2.081,9.636,0,14.658,0,20
			c0,5.343,2.081,10.364,5.858,14.142c3.777,3.776,8.799,5.856,14.141,5.856c5.342,0,10.364-2.08,14.141-5.856
			c3.777-3.777,5.858-8.799,5.858-14.142c0-5.342-2.081-10.364-5.858-14.142C30.362,2.082,25.341,0.001,19.999,0.001"/>
		<path clip-path="url(#SVGID_4_)" fill="#D2D2D2" d="M19.999,20L6.946,6.947C3.342,10.552,1.54,15.276,1.54,20H19.999z"/>
		<path clip-path="url(#SVGID_4_)" fill="#D2D2D2" d="M20.002,20.771c-0.312,0-0.592-0.188-0.711-0.476
			c-0.119-0.286-0.053-0.619,0.167-0.838L32.51,6.402c0.144-0.144,0.34-0.225,0.544-0.225c0.205,0,0.399,0.081,0.544,0.225
			c3.633,3.632,5.632,8.461,5.632,13.598c0,0.427-0.344,0.771-0.77,0.771H20.002z"/>
		<path clip-path="url(#SVGID_4_)" fill="#493547" d="M33.054,6.947c3.604,3.605,5.407,8.329,5.407,13.053h-18.46L33.054,6.947
			 M33.054,5.408c-0.407,0-0.8,0.162-1.089,0.451L18.913,18.912c-0.44,0.44-0.572,1.102-0.334,1.677
			c0.238,0.575,0.8,0.951,1.422,0.951h18.46C39.311,21.54,40,20.85,40,20c0-5.342-2.08-10.364-5.857-14.141
			C33.854,5.57,33.462,5.408,33.054,5.408"/>
		<path clip-path="url(#SVGID_4_)" fill="#B4B4B5" d="M20.001,20l13.054,13.053C36.658,29.448,38.46,24.724,38.46,20H20.001z"/>
		<path clip-path="url(#SVGID_4_)" fill="#B4B4B5" d="M19.999,20L6.946,33.053C3.342,29.448,1.54,24.724,1.54,20H19.999z"/>
		<path clip-path="url(#SVGID_4_)" fill="#D2D2D2" d="M20.001,20v18.459c5.098,0,9.712-2.066,13.054-5.406L20.001,20z"/>
		<path clip-path="url(#SVGID_4_)" fill="#E5E5E5" d="M19.999,20v18.459c-5.097,0-9.712-2.066-13.053-5.406L19.999,20z"/>
		<path clip-path="url(#SVGID_4_)" fill="#E5E5E5" d="M19.999,20V1.541c-5.097,0-9.712,2.066-13.053,5.406L19.999,20z"/>
		<path clip-path="url(#SVGID_4_)" fill="#B4B4B5" d="M19.999,20V1.541c5.097,0,9.712,2.066,13.053,5.406L19.999,20z"/>
		<path clip-path="url(#SVGID_4_)" fill="#FFFFFF" d="M19.999,39.229c-0.762,0-1.553-0.057-2.493-0.179
			c-0.383-0.051-0.67-0.377-0.67-0.764v-9.6c-2.476-1.3-4.05-3.875-4.05-6.693v-6.794c0-0.425,0.344-0.77,0.77-0.77h13.058
			c0.426,0,0.771,0.345,0.771,0.77v3.479c1.506,0.35,2.63,1.703,2.63,3.315c0,1.701-1.256,3.114-2.889,3.362
			c-0.824,1.657-2.223,2.951-3.935,3.645v9.282c0,0.386-0.286,0.712-0.669,0.764C21.572,39.17,20.771,39.229,19.999,39.229"/>
		<path clip-path="url(#SVGID_4_)" fill="#493547" d="M20.349,15.198c0.006,0,0.012,0.002,0.017,0.002h6.248v4.161
			c1.453,0,2.632,1.178,2.632,2.631s-1.179,2.632-2.632,2.632c-0.765,1.817-2.299,3.229-4.192,3.837v9.822
			c-0.795,0.104-1.6,0.176-2.422,0.176c-0.813,0-1.608-0.07-2.394-0.172V28.204c-2.384-1.055-4.05-3.438-4.05-6.212V15.2h6.768
			C20.332,15.2,20.34,15.198,20.349,15.198 M20.349,13.659c-0.019,0-0.04,0-0.062,0.001h-6.732c-0.85,0-1.539,0.69-1.539,1.54v6.792
			c0,2.947,1.56,5.651,4.05,7.145v9.15c0,0.772,0.574,1.427,1.341,1.526c0.974,0.126,1.798,0.186,2.592,0.186
			c0.803,0,1.636-0.062,2.623-0.19c0.766-0.101,1.339-0.754,1.339-1.525v-8.782c1.554-0.746,2.838-1.955,3.676-3.464
			c1.807-0.457,3.149-2.098,3.149-4.045c0-1.757-1.093-3.263-2.633-3.876V15.2c0-0.85-0.688-1.54-1.539-1.54H20.41
			C20.389,13.659,20.369,13.659,20.349,13.659"/>
		<path clip-path="url(#SVGID_4_)" fill="#FFFFFF" d="M11.313,17.715v-3.03c0-0.564,0.234-1.119,0.673-1.473
			c2.308-1.861,4.908-0.238,4.908,1.978v2.02c0,2.216-2.6,3.838-4.908,1.977C11.547,18.834,11.313,18.279,11.313,17.715"/>
		<path clip-path="url(#SVGID_4_)" fill="#493547" d="M14.104,13.168c1.116,0,2.021,0.905,2.021,2.021v2.021
			c0,1.116-0.905,2.021-2.021,2.021c-1.116,0-2.021-0.905-2.021-2.021v-2.021C12.083,14.073,12.988,13.168,14.104,13.168
			 M14.104,11.629c-1.963,0-3.56,1.597-3.56,3.56v2.666c0,0.773,0.364,1.507,0.98,1.976c2.917,2.218,6.14,0.168,6.14-2.621v-2.021
			C17.664,13.227,16.067,11.629,14.104,11.629"/>
		<path clip-path="url(#SVGID_4_)" fill="#FFFFFF" d="M17.222,17.681v-4.962c0-0.564,0.234-1.119,0.673-1.473
			c2.308-1.861,4.908-0.238,4.908,1.978v3.952c0,2.216-2.6,3.839-4.908,1.977C17.456,18.8,17.222,18.245,17.222,17.681"/>
		<path clip-path="url(#SVGID_4_)" fill="#493547" d="M20.013,11.202c1.116,0,2.021,0.905,2.021,2.021v3.953
			c0,1.116-0.905,2.021-2.021,2.021s-2.021-0.905-2.021-2.021v-3.953C17.992,12.107,18.896,11.202,20.013,11.202 M20.013,9.663
			c-1.963,0-3.56,1.597-3.56,3.56v4.598c0,0.774,0.364,1.508,0.98,1.976c2.917,2.218,6.14,0.168,6.14-2.621v-3.953
			C23.572,11.26,21.976,9.663,20.013,9.663"/>
		<path clip-path="url(#SVGID_4_)" fill="#FFFFFF" d="M25.612,18.559h-1.795c-1.453,0-2.632,1.178-2.632,2.632
			c0,1.452,1.179,2.631,2.632,2.631"/>
		<path clip-path="url(#SVGID_4_)" fill="#493547" d="M23.817,24.592c-1.875,0-3.401-1.525-3.401-3.401
			c0-1.875,1.526-3.401,3.401-3.401h1.795c0.425,0,0.77,0.345,0.77,0.77c0,0.425-0.345,0.77-0.77,0.77h-1.795
			c-1.027,0-1.861,0.834-1.861,1.861c0,1.026,0.834,1.862,1.861,1.862c0.425,0,0.77,0.345,0.77,0.77
			C24.587,24.248,24.242,24.592,23.817,24.592"/>
		<path clip-path="url(#SVGID_4_)" fill="#FFFFFF" d="M23.141,18.526l-0.158-0.559c-0.077-0.269-0.114-0.516-0.114-0.756V15.19
			c0-1.538,1.252-2.79,2.79-2.79s2.79,1.252,2.79,2.79v2.021c0,0.24-0.037,0.487-0.113,0.756l-0.158,0.559H23.141z"/>
		<path clip-path="url(#SVGID_4_)" fill="#493547" d="M25.659,13.168c1.116,0,2.021,0.905,2.021,2.021v2.021
			c0,0.19-0.035,0.371-0.084,0.546h-3.874c-0.05-0.175-0.084-0.356-0.084-0.546v-2.021C23.639,14.073,24.543,13.168,25.659,13.168
			 M25.659,11.629c-1.963,0-3.56,1.597-3.56,3.56v2.021c0,0.309,0.046,0.624,0.142,0.963l0.316,1.122h1.165h3.874h1.164l0.316-1.122
			c0.096-0.339,0.142-0.654,0.142-0.963v-2.021C29.219,13.227,27.622,11.629,25.659,11.629"/>
		<path clip-path="url(#SVGID_4_)" fill="#FFFFFF" d="M17.222,17.681v-4.962c0-0.564,0.234-1.119,0.673-1.473
			c2.308-1.861,4.908-0.238,4.908,1.978v3.952c0,2.216-2.6,3.839-4.908,1.977C17.456,18.8,17.222,18.245,17.222,17.681"/>
		<path clip-path="url(#SVGID_4_)" fill="#493547" d="M20.013,11.202c1.116,0,2.021,0.905,2.021,2.021v3.953
			c0,1.116-0.905,2.021-2.021,2.021s-2.021-0.905-2.021-2.021v-3.953C17.992,12.107,18.896,11.202,20.013,11.202 M20.013,9.663
			c-1.963,0-3.56,1.597-3.56,3.56v4.598c0,0.774,0.364,1.508,0.98,1.976c2.917,2.218,6.14,0.168,6.14-2.621v-3.953
			C23.572,11.26,21.976,9.663,20.013,9.663"/>
		<path clip-path="url(#SVGID_4_)" fill="#FFFFFF" d="M26.613,18.596h-2.796c-1.453,0-2.631,1.178-2.631,2.632
			c0,1.453,1.178,2.631,2.631,2.631"/>
		<path clip-path="url(#SVGID_4_)" fill="#493547" d="M23.817,24.628c-1.875,0-3.401-1.525-3.401-3.4
			c0-1.876,1.526-3.402,3.401-3.402h2.796c0.426,0,0.77,0.345,0.77,0.77c0,0.425-0.344,0.77-0.77,0.77h-2.796
			c-1.027,0-1.861,0.836-1.861,1.862s0.834,1.861,1.861,1.861c0.425,0,0.77,0.344,0.77,0.77S24.242,24.628,23.817,24.628"/>
		<g opacity="0.6" clip-path="url(#SVGID_4_)">
			<g>
				<defs>
					<rect id="SVGID_5_" x="3.177" y="3.18" width="17.591" height="17.591"/>
				</defs>
				<clipPath id="SVGID_6_">
					<use xlink:href="#SVGID_5_"  overflow="visible"/>
				</clipPath>
				<path clip-path="url(#SVGID_6_)" fill="#FFFFFF" d="M3.947,20.771c-0.425,0-0.77-0.344-0.77-0.771
					c0-4.492,1.75-8.716,4.927-11.893c3.178-3.178,7.402-4.928,11.894-4.928c0.426,0,0.771,0.344,0.771,0.77
					c0,0.425-0.345,0.77-0.771,0.77c-4.081,0-7.919,1.59-10.806,4.477C6.306,12.083,4.717,15.919,4.717,20
					C4.717,20.427,4.372,20.771,3.947,20.771"/>
			</g>
		</g>
	</g>
</g>
</svg>
