<?xml version="1.0" encoding="utf-8"?>
<!-- Generator: Adobe Illustrator 19.2.0, SVG Export Plug-In . SVG Version: 6.00 Build 0)  -->
<svg version="1.1" id="Layer_1" xmlns="http://www.w3.org/2000/svg" xmlns:xlink="http://www.w3.org/1999/xlink" x="0px" y="0px"
	 width="11px" height="11px" viewBox="0 0 11 11" style="enable-background:new 0 0 11 11;" xml:space="preserve">
<style type="text/css">
	.st0{fill:#EC4380;}
</style>
<title>Group 23</title>
<desc>Created with Sketch.</desc>
<g id="Page-1">
	<g id="Group-23" transform="translate(4.000000, 2.000000)">
		<g id="Group-14-Copy" transform="translate(15.000000, 12.000000)">
			
				<g id="Group-15-Copy" transform="translate(5.000000, 5.500000) rotate(-90.000000) translate(-5.000000, -5.500000) translate(-0.500000, 0.500000)">
				<g id="Group-11">
					<path id="Fill-32-Copy-2" class="st0" d="M20.1-18.7c-0.2-0.2-0.5-0.3-0.8-0.3c-0.6,0-1.1,0.5-1.1,1.2c0,0.3,0.1,0.7,0.4,0.9
						l3.6,3.5L18.6-10c-0.2,0.2-0.4,0.5-0.4,0.9c0,0.7,0.5,1.2,1.1,1.2c0.3,0,0.6-0.1,0.8-0.3l4.5-4.3c0.2-0.2,0.4-0.5,0.4-0.9
						c0-0.3-0.1-0.6-0.4-0.9L20.1-18.7z"/>
					<path id="Rectangle-200" class="st0" d="M21.4-12.4h-6.3c-0.6,0-1.1-0.5-1.1-1.1l0,0c0-0.6,0.5-1.1,1.1-1.1h6.3
						c0.6,0,1.1,0.5,1.1,1.1l0,0C22.4-12.9,22-12.4,21.4-12.4"/>
				</g>
			</g>
		</g>
	</g>
</g>
</svg>
