<?xml version="1.0" encoding="utf-8"?>
<!-- Generator: Adobe Illustrator 16.0.0, SVG Export Plug-In . SVG Version: 6.00 Build 0)  -->
<!DOCTYPE svg PUBLIC "-//W3C//DTD SVG 1.1//EN" "http://www.w3.org/Graphics/SVG/1.1/DTD/svg11.dtd">
<svg version="1.1" id="Layer_1" xmlns="http://www.w3.org/2000/svg" xmlns:xlink="http://www.w3.org/1999/xlink" x="0px" y="0px"
	 width="12px" height="12px" viewBox="0 0 12 12" enable-background="new 0 0 12 12" xml:space="preserve">
<g>
	<path fill="#F9B1A5" d="M6.142,7.306c0,0.063-0.039,0.119-0.098,0.142c-0.019,0.006-0.037,0.01-0.055,0.01
		c-0.044,0-0.085-0.018-0.115-0.051C5.817,7.34,4.894,6.281,4.631,5.228L4.542,5.185c-0.14-0.067-0.285-0.098-0.425-0.098
		c-0.512,0-0.974,0.406-0.974,0.962v1.044C2.851,6.858,2.543,6.721,2.311,6.721c-0.109,0-0.205,0.031-0.271,0.097
		C1.803,7.053,1.995,7.624,2.47,8.092c0.218,0.215,0.455,0.362,0.674,0.446v1.089c0,0.562,0.33,1.073,0.848,1.308l1.387,0.632
		C5.571,11.655,5.78,11.7,5.989,11.7s0.417-0.045,0.612-0.133l1.387-0.632c0.516-0.235,0.848-0.746,0.848-1.308V8.539
		C9.054,8.455,9.292,8.307,9.51,8.092c0.475-0.469,0.667-1.039,0.429-1.274c-0.067-0.066-0.16-0.097-0.271-0.097
		c-0.232,0-0.539,0.137-0.832,0.371V6.048c0-0.556-0.462-0.962-0.974-0.962c-0.142,0-0.286,0.031-0.426,0.098L7.058,5.367
		C6.945,5.451,6.831,5.554,6.716,5.694C6.141,6.399,6.142,7.297,6.142,7.306z M3.312,6.916c0.02-0.091,0.079-0.168,0.164-0.209
		c0.042-0.021,0.088-0.031,0.134-0.031s0.092,0.01,0.134,0.031L5.74,7.674c0.104,0.051,0.171,0.157,0.17,0.272
		c-0.001,0.115-0.069,0.22-0.175,0.269C5.708,8.227,5.074,8.519,4.451,8.519c-0.185,0-0.354-0.026-0.505-0.077
		C3.246,8.205,3.218,7.371,3.312,6.916z M7.672,10.555c-0.127,0.16-0.317,0.252-0.523,0.252H4.83c-0.206,0-0.396-0.092-0.523-0.252
		c-0.127-0.161-0.17-0.366-0.121-0.563l0.159-0.623c0.073-0.293,0.339-0.497,0.644-0.497c0.063,0,0.122,0.009,0.182,0.025
		l0.835,0.227l0.803-0.227c0.061-0.016,0.121-0.025,0.184-0.025c0.305,0,0.569,0.204,0.644,0.497l0.158,0.623
		C7.843,10.189,7.798,10.394,7.672,10.555z M8.235,6.707c0.042-0.021,0.088-0.031,0.134-0.031c0.045,0,0.092,0.01,0.133,0.031
		c0.086,0.041,0.146,0.118,0.165,0.209c0.094,0.455,0.065,1.289-0.636,1.526C7.882,8.493,7.713,8.519,7.527,8.519
		c-0.623,0-1.257-0.292-1.283-0.304C6.138,8.166,6.07,8.061,6.069,7.946c-0.001-0.115,0.065-0.221,0.17-0.272L8.235,6.707z"/>
	<path fill="#B21E44" d="M11.404,6.842L9.916,6.109c-0.188-0.092-0.234-0.337-0.091-0.49l1.206-1.285
		c0.148-0.158,0.184-0.39,0.085-0.583L10.78,3.08c-0.09-0.177-0.271-0.288-0.471-0.288c-0.017,0-0.035,0.001-0.053,0.003
		L8.051,3.016c-0.02,0.001-0.036,0.002-0.054,0.002c-0.126,0-0.248-0.045-0.346-0.127L6.559,1.952
		C6.149,1.6,5.695,1.301,5.207,1.064L3.746,0.353C3.672,0.318,3.593,0.3,3.514,0.3c-0.104,0-0.208,0.03-0.296,0.09L2.151,1.109
		c-0.267,0.18-0.307,0.555-0.083,0.786l1.54,1.587c0.096,0.099,0.024,0.263-0.114,0.263c0,0-0.001,0-0.002,0L1.027,3.714
		c-0.002,0-0.004,0-0.007,0c-0.229,0-0.432,0.148-0.501,0.365L0.367,4.568C0.287,4.825,0.419,5.099,0.67,5.201l1.146,0.463
		C2.067,5.765,2.08,6.111,1.838,6.23L0.595,6.842C0.378,6.949,0.264,7.188,0.317,7.421l0.109,0.475
		c0.05,0.217,0.236,0.378,0.461,0.4l1.075,0.105C2.21,8.425,2.332,8.71,2.179,8.903L1.571,9.665
		c-0.166,0.207-0.146,0.503,0.042,0.688l0.396,0.388c0.101,0.098,0.233,0.15,0.37,0.15c0.059,0,0.116-0.009,0.173-0.028l0.637-0.218
		C2.973,10.352,2.84,10.001,2.84,9.627V8.731C2.632,8.625,2.434,8.48,2.255,8.304c-0.262-0.259-0.46-0.558-0.556-0.842
		C1.58,7.108,1.624,6.804,1.825,6.606c0.122-0.121,0.29-0.185,0.485-0.185c0.161,0,0.343,0.045,0.529,0.129V6.048
		c0-0.346,0.138-0.667,0.388-0.906c0.236-0.226,0.561-0.356,0.89-0.356c0.155,0,0.306,0.036,0.451,0.091
		C4.532,4.48,4.616,4.099,4.909,3.792C4.966,3.73,5.063,3.728,5.124,3.785C5.17,3.827,5.171,3.888,5.151,3.943
		C5.145,3.961,5.145,3.981,5.131,3.997c-0.75,0.787,0.257,2.295,0.74,2.924c0.057-0.364,0.207-0.924,0.607-1.415
		c0.373-0.455,0.765-0.624,1.026-0.688c0.171-0.042,0.287-0.04,0.301-0.041c0.011,0,0.018,0.01,0.026,0.012
		c0.011,0,0.021-0.003,0.03-0.003c0.703,0,1.277,0.566,1.277,1.262V6.55c0.186-0.084,0.368-0.129,0.528-0.129
		c0.195,0,0.363,0.064,0.486,0.185c0.367,0.363,0.182,1.093-0.431,1.698C9.546,8.48,9.346,8.625,9.14,8.731v0.896
		c0,0.372-0.131,0.72-0.344,1.011l0.652,0.224c0.056,0.019,0.114,0.028,0.172,0.028c0.137,0,0.27-0.052,0.371-0.15l0.395-0.388
		c0.188-0.185,0.208-0.481,0.042-0.688L9.821,8.903C9.667,8.71,9.789,8.425,10.037,8.401l1.074-0.105
		c0.226-0.022,0.411-0.183,0.461-0.4l0.11-0.475C11.735,7.188,11.621,6.949,11.404,6.842z"/>
	<path fill="#493547" d="M11.541,6.573l-1.49-0.732l1.204-1.304c0.231-0.247,0.287-0.617,0.135-0.919l-0.337-0.671
		c-0.141-0.28-0.426-0.455-0.743-0.455c-0.026,0-0.056,0.002-0.083,0.004L8.019,2.717c-0.002,0-0.004,0-0.006,0
		c-0.072,0-0.121-0.019-0.161-0.052l-1.093-0.94c-0.43-0.368-0.906-0.681-1.417-0.93L3.88,0.084C3.767,0.029,3.64,0,3.514,0
		C3.347,0,3.185,0.049,3.047,0.142L1.98,0.861C1.778,0.997,1.648,1.212,1.623,1.452C1.599,1.692,1.681,1.929,1.85,2.103l1.298,1.338
		L1.033,3.414c-0.376,0-0.695,0.231-0.803,0.576L0.077,4.479c-0.129,0.408,0.077,0.838,0.478,0.999l1.146,0.464L0.459,6.573
		C0.116,6.742-0.064,7.119,0.021,7.488l0.11,0.475C0.21,8.306,0.503,8.56,0.856,8.595l1.076,0.104L1.332,9.48
		c-0.261,0.326-0.231,0.793,0.067,1.086l0.396,0.388c0.155,0.153,0.363,0.237,0.584,0.237c0.093,0,0.185-0.015,0.273-0.045
		l0.747-0.257c0.137,0.127,0.289,0.239,0.464,0.318l1.387,0.632C5.483,11.946,5.732,12,5.989,12s0.505-0.054,0.738-0.161
		l1.388-0.632c0.178-0.081,0.331-0.195,0.469-0.324l0.764,0.263c0.089,0.03,0.181,0.045,0.272,0.045
		c0.221,0,0.429-0.084,0.585-0.237l0.395-0.388c0.299-0.293,0.328-0.76,0.068-1.086L10.06,8.717l1.083-0.122
		c0.354-0.035,0.646-0.289,0.726-0.632l0.111-0.475C12.064,7.119,11.884,6.742,11.541,6.573z M7.988,10.936l-1.387,0.632
		C6.406,11.655,6.198,11.7,5.989,11.7s-0.418-0.045-0.611-0.133l-1.387-0.632C3.474,10.7,3.144,10.189,3.144,9.627V8.539
		C2.925,8.455,2.688,8.307,2.47,8.092C1.995,7.624,1.803,7.053,2.04,6.818c0.065-0.066,0.161-0.097,0.271-0.097
		c0.232,0,0.54,0.137,0.833,0.371V6.048c0-0.556,0.462-0.962,0.974-0.962c0.14,0,0.285,0.031,0.425,0.098l0.089,0.043
		C4.894,6.281,5.817,7.34,5.874,7.406c0.03,0.033,0.071,0.051,0.115,0.051c0.018,0,0.036-0.003,0.055-0.01
		c0.059-0.022,0.098-0.079,0.098-0.142c0-0.009-0.001-0.907,0.574-1.611c0.115-0.14,0.229-0.244,0.342-0.328l0.379-0.182
		c0.14-0.067,0.284-0.098,0.426-0.098c0.512,0,0.974,0.406,0.974,0.962v1.044c0.293-0.234,0.6-0.371,0.832-0.371
		c0.11,0,0.203,0.031,0.271,0.097c0.238,0.235,0.046,0.805-0.429,1.274C9.292,8.307,9.054,8.455,8.836,8.539v1.089
		C8.836,10.189,8.504,10.7,7.988,10.936z M11.683,7.421l-0.11,0.475c-0.05,0.217-0.235,0.378-0.461,0.4l-1.074,0.105
		C9.789,8.425,9.667,8.71,9.821,8.903l0.606,0.762c0.166,0.207,0.146,0.503-0.042,0.688l-0.395,0.388
		c-0.102,0.098-0.234,0.15-0.371,0.15c-0.058,0-0.116-0.009-0.172-0.028l-0.652-0.224c0.213-0.292,0.344-0.64,0.344-1.011V8.731
		C9.346,8.625,9.546,8.48,9.724,8.304c0.612-0.605,0.798-1.335,0.431-1.698c-0.123-0.121-0.291-0.185-0.486-0.185
		c-0.16,0-0.343,0.045-0.528,0.129V6.048c0-0.696-0.574-1.262-1.277-1.262c-0.01,0-0.02,0.003-0.03,0.003
		C7.823,4.787,7.816,4.778,7.806,4.777c-0.014,0-0.13-0.001-0.301,0.041C7.243,4.882,6.852,5.051,6.479,5.506
		c-0.4,0.491-0.551,1.051-0.607,1.415c-0.483-0.629-1.49-2.138-0.74-2.924c0.014-0.015,0.014-0.035,0.021-0.054
		c0.02-0.055,0.019-0.116-0.027-0.158C5.063,3.728,4.966,3.73,4.909,3.792C4.616,4.099,4.532,4.48,4.568,4.877
		C4.423,4.822,4.272,4.786,4.117,4.786c-0.329,0-0.653,0.13-0.89,0.356C2.978,5.381,2.84,5.702,2.84,6.048V6.55
		C2.653,6.466,2.472,6.421,2.311,6.421c-0.195,0-0.363,0.064-0.485,0.185C1.624,6.804,1.58,7.108,1.699,7.462
		c0.096,0.284,0.294,0.583,0.556,0.842C2.434,8.48,2.632,8.625,2.84,8.731v0.896c0,0.374,0.133,0.725,0.349,1.017l-0.637,0.218
		c-0.057,0.019-0.114,0.028-0.173,0.028c-0.137,0-0.27-0.052-0.37-0.15l-0.396-0.388c-0.188-0.185-0.208-0.481-0.042-0.688
		l0.607-0.762C2.332,8.71,2.21,8.425,1.963,8.401L0.888,8.296c-0.225-0.022-0.411-0.183-0.461-0.4L0.317,7.421
		C0.264,7.188,0.378,6.949,0.595,6.842L1.838,6.23C2.08,6.111,2.067,5.765,1.816,5.664L0.67,5.201
		C0.419,5.099,0.287,4.825,0.367,4.568L0.52,4.079c0.069-0.217,0.271-0.365,0.501-0.365c0.003,0,0.005,0,0.007,0l2.465,0.031
		c0.001,0,0.002,0,0.002,0c0.139,0,0.21-0.164,0.114-0.263l-1.54-1.587C1.845,1.664,1.885,1.289,2.151,1.109L3.218,0.39
		C3.306,0.33,3.409,0.3,3.514,0.3c0.079,0,0.158,0.018,0.232,0.053l1.461,0.711C5.695,1.301,6.149,1.6,6.559,1.952l1.093,0.939
		c0.098,0.082,0.22,0.127,0.346,0.127c0.018,0,0.034-0.001,0.054-0.002l2.206-0.221c0.018-0.002,0.036-0.003,0.053-0.003
		c0.199,0,0.381,0.111,0.471,0.288l0.336,0.671c0.099,0.193,0.063,0.425-0.085,0.583L9.825,5.619
		c-0.144,0.153-0.098,0.398,0.091,0.49l1.488,0.733C11.621,6.949,11.735,7.188,11.683,7.421z"/>
	<path fill="#E94747" d="M4.046,8.158c0.126,0.043,0.265,0.061,0.405,0.061c0.563,0,1.155-0.276,1.155-0.276L3.609,6.976
		C3.609,6.976,3.41,7.943,4.046,8.158z"/>
	<path fill="#493547" d="M3.946,8.442c0.15,0.051,0.32,0.077,0.505,0.077c0.623,0,1.257-0.292,1.284-0.304
		C5.841,8.166,5.909,8.061,5.91,7.946c0.001-0.115-0.066-0.221-0.17-0.272L3.743,6.707C3.701,6.686,3.655,6.676,3.609,6.676
		s-0.092,0.01-0.134,0.031C3.391,6.748,3.331,6.825,3.312,6.916C3.218,7.371,3.246,8.205,3.946,8.442z M3.609,6.976l1.997,0.967
		c0,0-0.593,0.276-1.155,0.276c-0.141,0-0.279-0.018-0.405-0.061C3.41,7.943,3.609,6.976,3.609,6.976z"/>
	<path fill="#E94747" d="M8.369,6.976L6.373,7.943c0,0,0.593,0.276,1.154,0.276c0.141,0,0.279-0.018,0.406-0.061
		C8.568,7.943,8.369,6.976,8.369,6.976z"/>
	<path fill="#493547" d="M6.069,7.946c0.001,0.115,0.068,0.22,0.175,0.269c0.026,0.012,0.66,0.304,1.283,0.304
		c0.186,0,0.354-0.026,0.504-0.077c0.701-0.237,0.729-1.071,0.636-1.526c-0.02-0.091-0.079-0.168-0.165-0.209
		C8.461,6.686,8.414,6.676,8.369,6.676c-0.046,0-0.092,0.01-0.134,0.031L6.239,7.674C6.135,7.725,6.068,7.831,6.069,7.946z
		 M6.373,7.943l1.996-0.967c0,0,0.199,0.967-0.436,1.182C7.807,8.201,7.668,8.219,7.527,8.219C6.966,8.219,6.373,7.943,6.373,7.943z
		"/>
	<path fill="#FFFFFF" d="M7.34,9.441C7.299,9.279,7.151,9.172,6.991,9.172c-0.033,0-0.066,0.004-0.1,0.014L6.088,9.412
		C6.056,9.421,6.022,9.426,5.989,9.426c-0.034,0-0.066-0.005-0.099-0.014L5.087,9.186c-0.032-0.01-0.066-0.014-0.099-0.014
		c-0.161,0-0.308,0.107-0.35,0.269L4.48,10.065c-0.056,0.224,0.116,0.442,0.35,0.442h2.318c0.234,0,0.406-0.218,0.35-0.442
		L7.34,9.441z"/>
	<path fill="#493547" d="M7.793,9.992L7.635,9.369C7.561,9.076,7.296,8.872,6.991,8.872c-0.063,0-0.123,0.009-0.184,0.025
		L6.005,9.124L5.17,8.897C5.11,8.881,5.051,8.872,4.988,8.872c-0.305,0-0.57,0.204-0.644,0.497L4.186,9.992
		c-0.049,0.197-0.006,0.402,0.121,0.563c0.127,0.16,0.317,0.252,0.523,0.252h2.318c0.206,0,0.396-0.092,0.523-0.252
		C7.798,10.394,7.843,10.189,7.793,9.992z M7.148,10.507H4.83c-0.233,0-0.405-0.218-0.35-0.442l0.158-0.624
		c0.042-0.162,0.188-0.269,0.35-0.269c0.032,0,0.066,0.004,0.099,0.014l0.804,0.226c0.032,0.009,0.064,0.014,0.099,0.014
		c0.033,0,0.066-0.005,0.099-0.014l0.804-0.226c0.033-0.01,0.066-0.014,0.1-0.014c0.16,0,0.308,0.107,0.349,0.269l0.158,0.624
		C7.555,10.289,7.383,10.507,7.148,10.507z"/>
</g>
</svg>
