<?xml version="1.0" encoding="utf-8"?>
<!-- Generator: Adobe Illustrator 16.0.0, SVG Export Plug-In . SVG Version: 6.00 Build 0)  -->
<!DOCTYPE svg PUBLIC "-//W3C//DTD SVG 1.1//EN" "http://www.w3.org/Graphics/SVG/1.1/DTD/svg11.dtd">
<svg version="1.1" id="Layer_1" xmlns="http://www.w3.org/2000/svg" xmlns:xlink="http://www.w3.org/1999/xlink" x="0px" y="0px"
	 width="12px" height="12px" viewBox="0 0 12 12" enable-background="new 0 0 12 12" xml:space="preserve">
<path fill="#46ADE0" d="M9.497,6.994c-0.803,0-1.509,0.385-1.967,0.972L4.758,6.597c0.049-0.193,0.083-0.391,0.083-0.599
	c0-0.207-0.034-0.404-0.083-0.596l2.771-1.37c0.458,0.588,1.165,0.974,1.968,0.974C10.88,5.006,12,3.885,12,2.502
	C12,1.121,10.88,0,9.497,0C8.115,0,6.994,1.121,6.994,2.502c0,0.221,0.037,0.431,0.091,0.634l-2.772,1.37
	C3.869,3.945,3.191,3.578,2.421,3.578C1.085,3.578,0,4.662,0,5.998C0,7.338,1.085,8.42,2.421,8.42c0.77,0,1.448-0.366,1.892-0.927
	l2.772,1.37C7.031,9.066,6.994,9.276,6.994,9.496C6.994,10.879,8.115,12,9.497,12C10.88,12,12,10.879,12,9.496
	C12,8.115,10.88,6.994,9.497,6.994z M9.497,1C10.326,1,11,1.674,11,2.502s-0.674,1.504-1.503,1.504S7.994,3.33,7.994,2.502
	S8.668,1,9.497,1z M2.421,7.42C1.638,7.42,1,6.783,1,5.998c0-0.783,0.638-1.42,1.421-1.42s1.42,0.637,1.42,1.42
	C3.841,6.783,3.204,7.42,2.421,7.42z M9.497,11c-0.829,0-1.503-0.676-1.503-1.504s0.674-1.502,1.503-1.502S11,8.668,11,9.496
	S10.326,11,9.497,11z"/>
</svg>
