<?xml version="1.0" encoding="utf-8"?>
<!-- Generator: Adobe Illustrator 16.0.0, SVG Export Plug-In . SVG Version: 6.00 Build 0)  -->
<!DOCTYPE svg PUBLIC "-//W3C//DTD SVG 1.1//EN" "http://www.w3.org/Graphics/SVG/1.1/DTD/svg11.dtd">
<svg version="1.1" id="Layer_1" xmlns="http://www.w3.org/2000/svg" xmlns:xlink="http://www.w3.org/1999/xlink" x="0px" y="0px"
	 width="12px" height="12px" viewBox="0 0 12 12" enable-background="new 0 0 12 12" xml:space="preserve">
<g>
	<g>
		<path fill="#46ADE0" d="M6,1.738l0.143,0.289l1.04,2.105l0.232,0.471L7.936,4.68l2.326,0.338l0.317,0.047l-0.23,0.225L9.735,5.885
			L8.666,6.932L8.291,7.299L8.38,7.814l0.251,1.475l0.146,0.84l0.055,0.318l-0.286-0.15L6.466,9.203L6,8.959L5.534,9.203
			l-2.078,1.094l-0.287,0.15l0.055-0.316l0.146-0.842l0.253-1.473l0.089-0.518L3.335,6.932L2.263,5.883L1.652,5.29L1.421,5.064
			l0.32-0.047L4.065,4.68l0.52-0.076l0.232-0.471l1.039-2.105L6,1.738 M6.001,0.266c-0.24,0-0.481,0.186-0.664,0.557L4.96,1.584
			L3.921,3.689L1.597,4.028L0.755,4.149c-0.813,0.12-0.999,0.686-0.41,1.261c0,0.002,0,0.002,0,0.002l0.609,0.594L1.565,6.6
			l1.071,1.047L2.384,9.119l-0.146,0.84l-0.144,0.838v0.004c-0.099,0.588,0.127,0.934,0.535,0.934c0.155,0,0.337-0.051,0.537-0.156
			l0.754-0.396L6,10.088l2.079,1.094l0.753,0.396c0.2,0.105,0.382,0.156,0.537,0.156c0.409,0,0.636-0.346,0.536-0.934v-0.004
			L9.762,9.959l-0.146-0.84L9.365,7.646L10.435,6.6l0.611-0.594l0.61-0.596c0.588-0.575,0.402-1.141-0.411-1.261l-0.841-0.121
			L8.079,3.689l-1.04-2.105L6.663,0.822C6.481,0.451,6.241,0.266,6.001,0.266L6.001,0.266z"/>
	</g>
	<rect fill="none" width="12" height="12"/>
</g>
</svg>
