<?xml version="1.0" encoding="utf-8"?>
<!-- Generator: Adobe Illustrator 16.0.0, SVG Export Plug-In . SVG Version: 6.00 Build 0)  -->
<!DOCTYPE svg PUBLIC "-//W3C//DTD SVG 1.1//EN" "http://www.w3.org/Graphics/SVG/1.1/DTD/svg11.dtd">
<svg version="1.1" id="Layer_1" xmlns="http://www.w3.org/2000/svg" xmlns:xlink="http://www.w3.org/1999/xlink" x="0px" y="0px"
	 width="12px" height="12px" viewBox="0 0 12 12" enable-background="new 0 0 12 12" xml:space="preserve">
<g>
	<path fill="#F26C7E" d="M4.813,0.3c-0.193,0-0.388,0.111-0.467,0.325L3.853,1.977H4.13c0.564-0.208,1.135-0.332,1.682-0.355
		L5.251,0.564C5.156,0.386,4.984,0.3,4.813,0.3z"/>
	<path fill="#F26C7E" d="M7.652,0.625C7.573,0.411,7.38,0.3,7.186,0.3c-0.171,0-0.343,0.086-0.438,0.264L6.188,1.622
		c0.547,0.023,1.118,0.147,1.682,0.355h0.277L7.652,0.625z"/>
	<path fill="#FFFFFF" d="M11.013,2.011c-0.253-0.253-0.54-0.359-0.848-0.359c-0.354,0-0.736,0.141-1.123,0.359
		C8.893,2.095,8.788,2.216,8.714,2.354c0.817,0.431,1.573,1.025,2.155,1.725c0.046-0.036,0.102-0.053,0.144-0.096
		C11.558,3.438,11.558,2.555,11.013,2.011z"/>
	<path fill="#FFFFFF" d="M2.957,2.011C2.57,1.792,2.188,1.652,1.834,1.652c-0.308,0-0.595,0.106-0.848,0.359
		c-0.545,0.544-0.545,1.427,0,1.972c0.043,0.042,0.098,0.06,0.145,0.096c0.581-0.699,1.337-1.293,2.154-1.725
		C3.211,2.216,3.106,2.095,2.957,2.011z"/>
	<path fill="#FFFFFF" d="M6,1.911c-2.586,0-5.7,2.43-5.7,4.974C0.3,9.828,2.852,11.7,6,11.7c3.147,0,5.699-1.872,5.699-4.815
		C11.699,4.341,8.561,1.911,6,1.911z M2.106,6.143C1.894,5.987,1.752,5.758,1.711,5.498C1.67,5.237,1.733,4.976,1.889,4.762
		c0.185-0.255,0.483-0.407,0.8-0.407c0.21,0,0.41,0.065,0.58,0.188l0.314,0.229l0.229-0.314c0.185-0.256,0.483-0.408,0.8-0.408
		c0.21,0,0.41,0.065,0.58,0.189c0.214,0.155,0.354,0.384,0.396,0.645C5.628,5.146,5.565,5.406,5.41,5.619L4.602,6.733
		c-0.187,0.255-0.485,0.408-0.8,0.408c-0.21,0-0.411-0.066-0.581-0.189L2.106,6.143z M8.243,8.629
		C7.654,9.066,6.831,9.306,5.926,9.307c-0.001,0-0.002,0.001-0.003,0.001S5.921,9.307,5.92,9.307c-0.905,0-1.728-0.241-2.316-0.677
		c-0.066-0.049-0.08-0.144-0.03-0.21c0.049-0.067,0.143-0.081,0.21-0.031c0.504,0.375,1.208,0.583,1.989,0.609V8.165L5.273,7.671
		c-0.059-0.058-0.06-0.153-0.001-0.212c0.058-0.058,0.153-0.06,0.212-0.001l0.438,0.434l0.439-0.434
		c0.059-0.059,0.153-0.057,0.212,0.001c0.059,0.059,0.058,0.154-0.001,0.212l-0.5,0.495v0.832C6.854,8.972,7.56,8.763,8.065,8.388
		C8.13,8.337,8.225,8.353,8.274,8.419S8.311,8.58,8.243,8.629z M9.74,6.143L8.627,6.952C8.456,7.075,8.256,7.141,8.046,7.141
		c-0.315,0-0.614-0.153-0.801-0.408L6.437,5.619C6.281,5.406,6.219,5.146,6.26,4.884c0.042-0.261,0.182-0.49,0.396-0.645
		c0.17-0.124,0.37-0.189,0.58-0.189c0.316,0,0.615,0.152,0.8,0.407l0.229,0.315l0.314-0.229c0.171-0.123,0.37-0.188,0.58-0.188
		c0.316,0,0.615,0.152,0.801,0.407c0.154,0.214,0.218,0.475,0.177,0.736C10.095,5.758,9.953,5.987,9.74,6.143z"/>
	<path fill="#493547" d="M11.064,4.327c0.054-0.042,0.11-0.082,0.16-0.132c0.661-0.661,0.661-1.736,0-2.396
		c-0.296-0.297-0.652-0.447-1.06-0.447c-0.381,0-0.796,0.13-1.271,0.398C8.738,1.837,8.61,1.958,8.512,2.102L8.429,1.874
		L7.934,0.522C7.817,0.205,7.524,0,7.186,0C6.887,0,6.623,0.158,6.483,0.423L5.999,1.336L5.516,0.423C5.376,0.158,5.112,0,4.813,0
		C4.475,0,4.182,0.205,4.065,0.522L3.57,1.874L3.487,2.102C3.389,1.958,3.261,1.837,3.105,1.75C2.63,1.481,2.215,1.352,1.834,1.352
		c-0.407,0-0.764,0.15-1.06,0.447c-0.661,0.66-0.661,1.735,0,2.396c0.05,0.05,0.106,0.09,0.161,0.133C0.361,5.097,0,5.974,0,6.885
		C0,9.849,2.522,12,6,12c3.477,0,6-2.151,6-5.115C12,5.973,11.638,5.097,11.064,4.327z M9.042,2.011
		c0.387-0.218,0.769-0.359,1.123-0.359c0.308,0,0.595,0.106,0.848,0.359c0.545,0.544,0.545,1.427,0,1.972
		c-0.042,0.042-0.098,0.06-0.144,0.096c-0.582-0.699-1.338-1.293-2.155-1.725C8.788,2.216,8.893,2.095,9.042,2.011z M6.748,0.564
		C6.843,0.386,7.015,0.3,7.186,0.3c0.194,0,0.388,0.111,0.467,0.325l0.494,1.352H7.869C7.306,1.769,6.734,1.645,6.188,1.622
		L6.748,0.564z M4.347,0.625C4.426,0.411,4.62,0.3,4.813,0.3c0.171,0,0.343,0.086,0.438,0.264l0.561,1.058
		C5.265,1.645,4.694,1.769,4.13,1.977H3.853L4.347,0.625z M0.986,3.983c-0.545-0.545-0.545-1.428,0-1.972
		c0.253-0.253,0.54-0.359,0.848-0.359c0.354,0,0.736,0.141,1.123,0.359c0.149,0.084,0.254,0.206,0.328,0.343
		C2.468,2.785,1.712,3.379,1.131,4.079C1.084,4.043,1.029,4.025,0.986,3.983z M6,11.7c-3.148,0-5.7-1.872-5.7-4.815
		c0-2.544,3.114-4.974,5.7-4.974c2.561,0,5.699,2.43,5.699,4.974C11.699,9.828,9.147,11.7,6,11.7z"/>
	<path fill="#F26C7E" d="M9.717,4.938C9.581,4.753,9.371,4.655,9.158,4.655c-0.14,0-0.281,0.042-0.403,0.131L8.197,5.191
		L7.793,4.634C7.658,4.448,7.448,4.35,7.235,4.35c-0.14,0-0.282,0.043-0.404,0.132C6.523,4.705,6.455,5.135,6.68,5.443l0.809,1.114
		c0.136,0.185,0.346,0.284,0.558,0.284c0.141,0,0.281-0.043,0.403-0.132L9.563,5.9C9.871,5.676,9.939,5.246,9.717,4.938z"/>
	<path fill="#493547" d="M9.158,4.355c-0.21,0-0.409,0.065-0.58,0.188L8.264,4.772L8.035,4.458C7.851,4.202,7.552,4.05,7.235,4.05
		c-0.21,0-0.41,0.065-0.58,0.189C6.441,4.394,6.302,4.623,6.26,4.884C6.219,5.146,6.281,5.406,6.437,5.619l0.809,1.114
		C7.432,6.988,7.73,7.141,8.046,7.141c0.21,0,0.41-0.066,0.581-0.189L9.74,6.143c0.213-0.156,0.354-0.385,0.396-0.645
		c0.041-0.261-0.022-0.522-0.177-0.736C9.773,4.507,9.475,4.355,9.158,4.355z M8.046,6.841c-0.212,0-0.422-0.099-0.558-0.284
		L6.68,5.443C6.455,5.135,6.523,4.705,6.831,4.482C6.953,4.393,7.096,4.35,7.235,4.35c0.213,0,0.423,0.098,0.558,0.284l0.404,0.557
		l0.558-0.405c0.122-0.089,0.264-0.131,0.403-0.131c0.213,0,0.423,0.098,0.559,0.283C9.939,5.246,9.871,5.676,9.563,5.9L8.449,6.709
		C8.327,6.798,8.187,6.841,8.046,6.841z"/>
	<path fill="#F26C7E" d="M3.397,6.709C3.52,6.798,3.66,6.841,3.802,6.841c0.212,0,0.422-0.099,0.557-0.284l0.809-1.114
		c0.225-0.308,0.156-0.738-0.151-0.961C4.894,4.393,4.751,4.35,4.611,4.35c-0.213,0-0.423,0.098-0.557,0.284L3.649,5.191
		L3.093,4.786C2.971,4.697,2.828,4.655,2.688,4.655c-0.213,0-0.423,0.098-0.559,0.283C1.907,5.246,1.976,5.676,2.283,5.9
		L3.397,6.709z"/>
	<path fill="#493547" d="M4.602,6.733L5.41,5.619c0.155-0.213,0.218-0.474,0.177-0.735c-0.042-0.261-0.182-0.49-0.396-0.645
		c-0.17-0.124-0.37-0.189-0.58-0.189c-0.316,0-0.615,0.152-0.8,0.408L3.583,4.772L3.269,4.543c-0.17-0.123-0.37-0.188-0.58-0.188
		c-0.316,0-0.615,0.152-0.8,0.407C1.733,4.976,1.67,5.237,1.711,5.498c0.041,0.26,0.183,0.489,0.396,0.645l1.114,0.809
		c0.17,0.123,0.371,0.189,0.581,0.189C4.116,7.141,4.415,6.988,4.602,6.733z M2.13,4.938c0.136-0.185,0.346-0.283,0.559-0.283
		c0.14,0,0.282,0.042,0.404,0.131l0.557,0.405l0.405-0.557C4.188,4.448,4.398,4.35,4.611,4.35c0.14,0,0.282,0.043,0.404,0.132
		c0.308,0.223,0.376,0.653,0.151,0.961L4.358,6.557C4.224,6.742,4.014,6.841,3.802,6.841c-0.142,0-0.282-0.043-0.404-0.132
		L2.283,5.9C1.976,5.676,1.907,5.246,2.13,4.938z"/>
	<path fill="#493547" d="M8.274,8.419C8.225,8.353,8.13,8.337,8.065,8.388C7.56,8.763,6.854,8.972,6.073,8.997V8.166l0.5-0.495
		c0.059-0.058,0.06-0.153,0.001-0.212c-0.059-0.058-0.153-0.06-0.212-0.001L5.923,7.892L5.484,7.458
		C5.426,7.399,5.33,7.401,5.272,7.459C5.214,7.518,5.215,7.613,5.273,7.671l0.499,0.494v0.832C4.991,8.972,4.287,8.763,3.783,8.388
		c-0.067-0.05-0.161-0.036-0.21,0.031c-0.05,0.066-0.036,0.161,0.03,0.21C4.192,9.065,5.015,9.306,5.92,9.307
		c0.001,0,0.002,0.001,0.003,0.001s0.002-0.001,0.003-0.001c0.905,0,1.729-0.241,2.317-0.677C8.311,8.58,8.324,8.486,8.274,8.419z"
		/>
</g>
</svg>
