<?xml version="1.0" encoding="utf-8"?>
<!-- Generator: Adobe Illustrator 16.0.0, SVG Export Plug-In . SVG Version: 6.00 Build 0)  -->
<!DOCTYPE svg PUBLIC "-//W3C//DTD SVG 1.1//EN" "http://www.w3.org/Graphics/SVG/1.1/DTD/svg11.dtd">
<svg version="1.1" id="Layer_1" xmlns="http://www.w3.org/2000/svg" xmlns:xlink="http://www.w3.org/1999/xlink" x="0px" y="0px"
	 width="12px" height="12px" viewBox="0 0 12 12" enable-background="new 0 0 12 12" xml:space="preserve">
<g>
	
		<rect x="7.624" y="9.033" transform="matrix(-0.7071 -0.7071 0.7071 -0.7071 9.0349 21.8088)" fill="none" width="2.819" height="0.001"/>
	<polygon fill="none" points="2.601,2.602 2.601,2.602 3.787,3.788 3.787,3.787 2.602,2.602 	"/>
	
		<rect x="1.528" y="8.966" transform="matrix(0.7072 -0.707 0.707 0.7072 -5.4517 4.77)" fill="none" width="3.009" height="0.001"/>
	
		<rect x="7.874" y="2.862" transform="matrix(-0.7073 0.7069 -0.7069 -0.7073 17.6243 -1.5713)" fill="none" width="2.526" height="0.001"/>
	<polygon fill="none" points="2.389,2.39 2.39,2.39 1.969,1.97 1.969,1.97 2.389,2.39 	"/>
	<path fill="#493547" d="M6.773,11.945c-0.112,0.015-0.215,0.024-0.315,0.033C6.563,11.97,6.668,11.958,6.773,11.945z"/>
	<path fill="#493547" d="M6,0C4.397,0,2.891,0.624,1.757,1.757C0.624,2.891,0,4.397,0,6s0.624,3.109,1.757,4.243
		c0.948,0.947,2.158,1.532,3.465,1.701c-0.149-0.019-0.261-0.147-0.261-0.297v-0.045c-1.157-0.213-2.193-0.772-2.992-1.57l0,0
		c0,0,0,0,0,0l0,0C0.856,8.917,0.3,7.459,0.3,6s0.556-2.917,1.669-4.03l0,0c0,0,0,0,0,0l0,0c0.903-0.902,2.107-1.503,3.448-1.64
		C5.609,0.31,5.803,0.3,6,0.3c0.394,0,0.778,0.04,1.148,0.116c1.113,0.228,2.108,0.78,2.882,1.553l0,0c0,0,0,0.001,0.001,0.001l0,0
		c1.113,1.113,1.669,2.571,1.669,4.03s-0.556,2.917-1.669,4.03l0,0c0,0,0,0,0,0l0.001,0.001c-0.797,0.796-1.83,1.354-2.984,1.568
		v0.046c0,0.15-0.111,0.276-0.259,0.297c1.303-0.17,2.509-0.755,3.455-1.699C11.376,9.109,12,7.603,12,6s-0.624-3.109-1.757-4.243
		C9.109,0.624,7.603,0,6,0z"/>
	<path fill="#493547" d="M5.547,11.978c-0.103-0.009-0.206-0.019-0.32-0.033C5.333,11.958,5.439,11.97,5.547,11.978z"/>
	<path fill="#EF4581" d="M3.406,5.139V4.515c0-0.303,0.156-0.559,0.381-0.727L2.601,2.602C1.694,3.509,1.194,4.716,1.194,6H3.71
		V5.814C3.526,5.645,3.406,5.408,3.406,5.139z"/>
	<path fill="#EF4581" d="M0.894,6c0-1.364,0.531-2.646,1.495-3.61l-0.42-0.42l0,0C0.856,3.083,0.3,4.541,0.3,6H0.894z"/>
	<path fill="#EF4581" d="M8.672,4.515v0.624c0,0.079-0.012,0.161-0.037,0.25l-0.07,0.259C8.724,5.733,8.857,5.851,8.958,6h2.743
		c0-1.459-0.556-2.917-1.669-4.03l0,0L8.245,3.756C8.496,3.922,8.672,4.192,8.672,4.515z"/>
	<path fill="#47ACE0" d="M8.958,6c0.12,0.177,0.197,0.386,0.197,0.616c0,0.545-0.395,1-0.913,1.095
		C8.183,7.826,8.113,7.933,8.037,8.036l1.994,1.994l0,0c1.113-1.113,1.669-2.571,1.669-4.03H8.958z"/>
	<path fill="#47ACE0" d="M3.71,6.616V6H1.194c0,0.083-0.067,0.15-0.15,0.15S0.894,6.083,0.894,6H0.3c0,1.459,0.556,2.917,1.669,4.03
		l0,0l2.128-2.127C3.854,7.524,3.71,7.083,3.71,6.616z"/>
	<path fill="#F9AC1F" d="M7.048,8.82V11.6c1.154-0.214,2.187-0.772,2.984-1.568l-0.001-0.001L8.037,8.037
		C7.784,8.38,7.444,8.652,7.048,8.82z"/>
	<path fill="#EF4581" d="M4.961,8.72C4.602,8.524,4.312,8.237,4.097,7.903l-2.127,2.127l0,0c0.799,0.798,1.835,1.356,2.992,1.57
		V8.72z"/>
	<path fill="#F9AC1F" d="M3.787,3.787C3.941,3.672,4.123,3.591,4.33,3.591c0.317,0,0.584,0.171,0.75,0.416V3.908
		c0-0.509,0.413-0.921,0.92-0.923V1.194c-1.284,0-2.491,0.5-3.398,1.408L3.787,3.787z"/>
	<path fill="#F9AC1F" d="M6,0.894V0.3c-0.197,0-0.391,0.01-0.583,0.029c-1.341,0.136-2.545,0.737-3.448,1.64l0,0l0.42,0.42
		C3.354,1.425,4.636,0.894,6,0.894z"/>
	<path fill="#47ACE0" d="M6.15,1.044c0,0.083-0.067,0.15-0.15,0.15v1.791c0.001,0,0.003-0.001,0.004-0.001
		c0.509,0,0.924,0.414,0.924,0.924v0.201c0.152-0.304,0.458-0.518,0.82-0.518c0.187,0,0.351,0.069,0.496,0.165L10.03,1.97l0,0
		C9.257,1.196,8.262,0.644,7.148,0.416C6.778,0.34,6.394,0.3,6,0.3v0.594C6.083,0.894,6.15,0.961,6.15,1.044z"/>
	<path fill="#FFFFFF" d="M7.301,7.386c-0.01,0-0.019-0.005-0.028-0.005C7.247,7.402,7.216,7.419,7.18,7.419
		c-0.531,0-0.963-0.432-0.963-0.962c0-0.015,0.008-0.028,0.009-0.043C6.225,6.398,6.216,6.384,6.216,6.368
		c0-0.132,0.027-0.259,0.076-0.374C6.2,6.025,6.106,6.053,6.004,6.053c-0.371,0-0.687-0.223-0.834-0.54
		c-0.145,0.323-0.466,0.55-0.841,0.55c-0.113,0-0.219-0.027-0.319-0.065v0.618c0,0.857,0.515,1.592,1.251,1.918v3.113
		C5.503,11.679,5.749,11.701,6,11.701c0.254,0,0.502-0.023,0.748-0.055V8.612c0.585-0.187,1.058-0.623,1.294-1.185
		c0.449,0,0.813-0.363,0.813-0.812c0-0.449-0.364-0.813-0.813-0.813V5.794H7.95L7.301,7.386z"/>
	<path fill="#FFFFFF" d="M6.882,5.465L6.87,5.419C6.864,5.435,6.865,5.454,6.859,5.47C6.866,5.467,6.875,5.468,6.882,5.465z"/>
	<path fill="#FFFFFF" d="M4.33,3.891c-0.345,0-0.624,0.279-0.624,0.624v0.624c0,0.345,0.279,0.624,0.624,0.624
		c0.345,0,0.624-0.279,0.624-0.624V4.515C4.954,4.17,4.675,3.891,4.33,3.891z"/>
	<path fill="#493547" d="M6.795,5.577C6.83,5.562,6.87,5.561,6.906,5.549L6.882,5.465C6.875,5.468,6.866,5.467,6.859,5.47
		C6.843,5.509,6.816,5.54,6.795,5.577z"/>
	<path fill="#493547" d="M6.216,6.368c0,0.016,0.008,0.03,0.009,0.045c0.007-0.16,0.06-0.303,0.136-0.433
		C6.34,5.989,6.314,5.987,6.292,5.994C6.243,6.109,6.216,6.236,6.216,6.368z"/>
	<path fill="#FFFFFF" d="M8.346,5.308c0.015-0.054,0.026-0.11,0.026-0.169V4.515c0-0.345-0.279-0.624-0.624-0.624
		c-0.345,0-0.624,0.279-0.624,0.624v0.624c0,0.059,0.011,0.115,0.026,0.169H8.346z"/>
	<path fill="#FFFFFF" d="M6.004,3.284c-0.345,0-0.624,0.279-0.624,0.624v1.221c0,0.344,0.279,0.624,0.624,0.624
		c0.345,0,0.624-0.28,0.624-0.624V3.908C6.628,3.563,6.349,3.284,6.004,3.284z"/>
	<path fill="#FFFFFF" d="M7.95,5.794H7.18c-0.366,0-0.663,0.297-0.663,0.663c0,0.365,0.297,0.662,0.663,0.662
		c0.083,0,0.15,0.067,0.15,0.15c0,0.047-0.024,0.084-0.057,0.112c0.01,0,0.018,0.005,0.028,0.005L7.95,5.794z"/>
	<path fill="#493547" d="M8.958,6C8.857,5.851,8.724,5.733,8.565,5.647l0.07-0.259C8.66,5.3,8.672,5.218,8.672,5.139V4.515
		c0-0.322-0.176-0.593-0.427-0.758l0,0C8.099,3.66,7.935,3.591,7.748,3.591c-0.362,0-0.668,0.214-0.82,0.518V3.908
		c0-0.51-0.415-0.924-0.924-0.924C6.003,2.983,6.001,2.984,6,2.984C5.493,2.987,5.08,3.399,5.08,3.908v0.099
		C4.914,3.762,4.647,3.591,4.33,3.591c-0.207,0-0.389,0.081-0.542,0.196c0,0,0,0,0,0C3.562,3.956,3.406,4.212,3.406,4.515v0.624
		c0,0.269,0.12,0.506,0.304,0.675V6v0.616c0,0.467,0.144,0.909,0.387,1.287c0,0,0,0,0,0C4.312,8.237,4.602,8.524,4.961,8.72v2.881
		v0.045c0,0.15,0.112,0.278,0.261,0.297c0,0,0,0,0,0c0.002,0,0.003,0,0.005,0c0.114,0.015,0.217,0.024,0.32,0.033
		C5.705,11.992,5.856,12,6,12c0.145,0,0.297-0.009,0.458-0.023c0.101-0.009,0.203-0.018,0.315-0.033
		c0.005,0,0.009-0.001,0.014-0.001c0,0,0.001-0.001,0.001-0.001c0.148-0.021,0.259-0.146,0.259-0.297V11.6V8.82
		c0.396-0.168,0.736-0.44,0.989-0.784c0,0,0,0,0,0c0.076-0.103,0.146-0.21,0.205-0.326c0.518-0.095,0.913-0.55,0.913-1.095
		C9.155,6.386,9.078,6.177,8.958,6z M7.124,4.515c0-0.345,0.279-0.624,0.624-0.624c0.345,0,0.624,0.279,0.624,0.624v0.624
		c0,0.059-0.011,0.115-0.026,0.169H7.15c-0.015-0.054-0.026-0.11-0.026-0.169V4.515z M5.38,3.908c0-0.345,0.279-0.624,0.624-0.624
		c0.345,0,0.624,0.279,0.624,0.624v1.221c0,0.344-0.279,0.624-0.624,0.624c-0.345,0-0.624-0.28-0.624-0.624V3.908z M3.706,5.139
		V4.515c0-0.345,0.279-0.624,0.624-0.624c0.345,0,0.624,0.279,0.624,0.624v0.624c0,0.345-0.279,0.624-0.624,0.624
		C3.985,5.763,3.706,5.484,3.706,5.139z M8.042,7.428C7.806,7.989,7.333,8.425,6.748,8.612v3.033
		C6.502,11.677,6.254,11.701,6,11.701c-0.251,0-0.497-0.022-0.739-0.054V8.534C4.525,8.208,4.01,7.473,4.01,6.616V5.998
		C4.111,6.036,4.216,6.063,4.33,6.063c0.375,0,0.696-0.227,0.841-0.55c0.147,0.316,0.463,0.54,0.834,0.54
		c0.102,0,0.196-0.028,0.288-0.059C6.314,5.987,6.34,5.989,6.362,5.98c-0.077,0.13-0.129,0.273-0.136,0.433
		C6.225,6.429,6.217,6.442,6.217,6.457c0,0.53,0.432,0.962,0.963,0.962c0.036,0,0.067-0.017,0.093-0.038
		C7.306,7.353,7.33,7.316,7.33,7.269c0-0.083-0.067-0.15-0.15-0.15c-0.366,0-0.663-0.297-0.663-0.662
		c0-0.366,0.297-0.663,0.663-0.663h0.77h0.092v0.009c0.449,0,0.813,0.364,0.813,0.813C8.855,7.064,8.491,7.428,8.042,7.428z"/>
	<path fill="#FFFFFF" d="M2.601,2.602C2.601,2.602,2.601,2.602,2.601,2.602C3.509,1.694,4.716,1.194,6,1.194
		c0.083,0,0.15-0.067,0.15-0.15S6.083,0.894,6,0.894c-1.364,0-2.646,0.531-3.61,1.496c0,0,0,0,0,0l0,0
		C1.425,3.354,0.894,4.636,0.894,6c0,0.083,0.067,0.15,0.15,0.15S1.194,6.083,1.194,6C1.194,4.716,1.694,3.509,2.601,2.602
		L2.601,2.602z"/>
</g>
</svg>
