<?xml version="1.0" encoding="utf-8"?>
<!-- Generator: Adobe Illustrator 16.0.0, SVG Export Plug-In . SVG Version: 6.00 Build 0)  -->
<!DOCTYPE svg PUBLIC "-//W3C//DTD SVG 1.1//EN" "http://www.w3.org/Graphics/SVG/1.1/DTD/svg11.dtd">
<svg version="1.1" id="Layer_1" xmlns="http://www.w3.org/2000/svg" xmlns:xlink="http://www.w3.org/1999/xlink" x="0px" y="0px"
	 width="12px" height="12px" viewBox="0 0 12 12" enable-background="new 0 0 12 12" xml:space="preserve">
<g>
	<path fill="#964031" d="M9.15,8.258c0.102,0.173,0.175,0.404,0.175,0.735c0,1.413,0.532,2.148,1.309,2.148
		c0.072,0,0.147-0.006,0.226-0.02c0.71-0.12,0.808-0.893,0.808-0.893s-0.4,0.271-0.73,0.271c-0.233,0-0.43-0.134-0.428-0.595
		c0.005-0.61,0.269-1.782-0.852-2.075C9.628,7.823,9.591,7.821,9.56,7.814C9.468,7.938,9.376,8.061,9.25,8.177
		C9.219,8.207,9.183,8.229,9.15,8.258z"/>
	<path fill="#964031" d="M1.869,1.574c-0.658,0.19-1.104,0.757-1.104,1.396v3.288C0.93,6.265,1.11,6.306,1.297,6.384V4.5
		c0-0.485,0.205-0.937,0.577-1.272c0.354-0.32,0.839-0.503,1.329-0.503c0.063,0,0.125,0.013,0.188,0.019
		c-0.283-0.488-0.498-1.002-0.523-1.46L1.869,1.574z"/>
	<path fill="#F9B1A5" d="M5.126,4.551C5.123,4.614,5.079,4.668,5.015,4.688C4.997,4.694,4.979,4.697,4.96,4.697
		c-0.046,0-0.092-0.019-0.123-0.052C4.78,4.587,4.141,3.913,3.604,3.091c-0.134-0.034-0.27-0.057-0.401-0.057
		C2.374,3.034,1.63,3.656,1.63,4.5v2.441C1.315,6.704,0.984,6.565,0.732,6.565c-0.118,0-0.219,0.031-0.292,0.099
		C0.186,6.901,0.393,7.48,0.904,7.958C1.139,8.176,1.396,8.326,1.63,8.411v1.073c0,0.439,0.212,0.846,0.56,1.119V7.555
		c0-0.172,0.149-0.311,0.334-0.311h0.999c0.185,0,0.334,0.139,0.334,0.311v3.779l0.487,0.192c0.197,0.078,0.406,0.117,0.616,0.117
		c0.209,0,0.419-0.039,0.615-0.117l0.485-0.191v-3.78c0-0.172,0.15-0.311,0.334-0.311h1c0.185,0,0.333,0.139,0.333,0.311v3.051
		C8.078,10.332,8.29,9.925,8.29,9.484V8.411c0.235-0.085,0.49-0.235,0.725-0.453C9.526,7.48,9.735,6.901,9.478,6.664
		C9.406,6.597,9.307,6.565,9.187,6.565c-0.25,0-0.582,0.139-0.896,0.376V4.5c0-0.844-0.745-1.466-1.573-1.466
		c-0.2,0-0.405,0.041-0.605,0.119C6.021,3.192,5.93,3.241,5.836,3.305C5.188,3.75,5.128,4.543,5.126,4.551z M5.925,9.229
		c-0.032,0.039-0.081,0.06-0.131,0.06c-0.036,0-0.073-0.011-0.104-0.033c-0.365-0.267-1.099-0.266-1.46,0
		C4.158,9.308,4.055,9.297,3.996,9.229C3.939,9.161,3.951,9.063,4.023,9.011c0.478-0.351,1.39-0.352,1.873,0
		C5.969,9.063,5.981,9.161,5.925,9.229z M2.451,6.031L3.86,5.428C3.903,5.409,3.951,5.4,3.999,5.4c0.062,0,0.124,0.017,0.178,0.049
		c0.061,0.034,0.36,0.228,0.338,0.534C4.504,6.125,4.422,6.322,4.088,6.463c-0.261,0.112-0.66,0.168-1.183,0.168
		c-0.197,0-0.336-0.009-0.336-0.009C2.417,6.613,2.292,6.509,2.264,6.369S2.313,6.09,2.451,6.031z M6.06,5.428l1.408,0.604
		C7.606,6.09,7.683,6.229,7.656,6.369C7.628,6.509,7.502,6.613,7.35,6.622c0,0-0.138,0.009-0.335,0.009
		c-0.523,0-0.923-0.056-1.184-0.168C5.497,6.322,5.415,6.125,5.405,5.983c-0.022-0.307,0.276-0.5,0.336-0.534
		C5.797,5.417,5.859,5.4,5.921,5.4C5.969,5.4,6.016,5.409,6.06,5.428z"/>
	<path fill="#964031" d="M8.051,1.574L6.082,1.001c0.004,0.008,0.013,0.015,0.016,0.022c0.03,0.069-0.004,0.141-0.068,0.181
		C6.02,1.21,6.018,1.221,6.007,1.225C5.921,1.26,5.823,1.22,5.789,1.141C5.661,0.85,5.104,0.449,4.508,0.34
		c-0.306-0.056-0.744-0.057-1.08,0.261C2.634,1.353,4.028,3.26,4.856,4.191C4.944,3.869,5.151,3.39,5.639,3.056
		c0.598-0.411,1.172-0.367,1.467-0.304C7.224,2.777,7.302,2.806,7.312,2.81c0.009,0.004,0.01,0.013,0.018,0.018
		C8.079,3.065,8.623,3.722,8.623,4.5v1.884c0.187-0.079,0.366-0.12,0.531-0.125V2.971C9.154,2.331,8.707,1.765,8.051,1.574z"/>
	<path fill="#964031" d="M5.969,6.181c0.276,0.118,0.738,0.14,1.046,0.14c0.185,0,0.313-0.007,0.313-0.007L5.921,5.71
		C5.921,5.71,5.478,5.972,5.969,6.181z"/>
	<path fill="#493547" d="M5.405,5.983c0.01,0.142,0.092,0.339,0.426,0.479c0.261,0.112,0.66,0.168,1.184,0.168
		c0.197,0,0.335-0.009,0.335-0.009c0.152-0.009,0.278-0.113,0.307-0.253c0.026-0.14-0.05-0.279-0.188-0.338L6.06,5.428
		C6.016,5.409,5.969,5.4,5.921,5.4c-0.062,0-0.124,0.017-0.18,0.049C5.682,5.483,5.383,5.677,5.405,5.983z M5.921,5.71l1.407,0.604
		c0,0-0.129,0.007-0.313,0.007c-0.308,0-0.77-0.021-1.046-0.14C5.478,5.972,5.921,5.71,5.921,5.71z"/>
	<path fill="#964031" d="M3.999,5.71L2.592,6.313c0,0,0.129,0.007,0.313,0.007c0.307,0,0.77-0.021,1.046-0.14
		C4.441,5.972,3.999,5.71,3.999,5.71z"/>
	<path fill="#493547" d="M2.569,6.622c0,0,0.139,0.009,0.336,0.009c0.522,0,0.922-0.056,1.183-0.168
		c0.334-0.141,0.416-0.338,0.427-0.479c0.022-0.307-0.277-0.5-0.338-0.534C4.123,5.417,4.061,5.4,3.999,5.4
		c-0.048,0-0.096,0.009-0.139,0.027L2.451,6.031C2.313,6.09,2.235,6.229,2.264,6.369S2.417,6.613,2.569,6.622z M3.951,6.181
		C3.675,6.299,3.212,6.32,2.905,6.32c-0.185,0-0.313-0.007-0.313-0.007L3.999,5.71C3.999,5.71,4.441,5.972,3.951,6.181z"/>
	<path fill="#493547" d="M4.023,9.011c-0.072,0.053-0.084,0.15-0.027,0.218C4.055,9.297,4.158,9.308,4.23,9.255
		c0.361-0.266,1.095-0.267,1.46,0c0.03,0.022,0.067,0.033,0.104,0.033c0.05,0,0.099-0.021,0.131-0.06
		c0.057-0.067,0.044-0.165-0.028-0.218C5.413,8.659,4.501,8.66,4.023,9.011z"/>
	<rect x="2.523" y="7.555" fill="#7DC0EA" width="0.999" height="4.136"/>
	<rect x="6.395" y="7.555" fill="#7DC0EA" width="1" height="4.136"/>
	<path fill="#493547" d="M11.836,9.963c-0.052-0.029-0.11-0.044-0.169-0.044c-0.068,0-0.138,0.02-0.195,0.06
		c-0.132,0.088-0.384,0.212-0.535,0.212c-0.05-0.013-0.096-0.085-0.095-0.283c0.001-0.085,0.007-0.181,0.015-0.282
		c0.035-0.621,0.106-1.775-1.109-2.093C9.744,7.531,9.739,7.531,9.736,7.53c0.223-0.429,0.242-0.841-0.022-1.086
		C9.649,6.385,9.573,6.34,9.487,6.309V2.971c0-0.779-0.537-1.46-1.338-1.693L5.696,0.563C5.393,0.318,4.983,0.11,4.573,0.035
		c-0.548-0.103-1.04,0.023-1.384,0.349C3.019,0.545,2.927,0.739,2.887,0.953L1.77,1.277C0.969,1.511,0.432,2.191,0.432,2.971v3.338
		C0.346,6.34,0.271,6.385,0.205,6.444c-0.399,0.37-0.198,1.116,0.464,1.732C0.86,8.355,1.074,8.503,1.297,8.61v0.874
		c0,0.614,0.35,1.158,0.893,1.48v0.726c0,0.172,0.149,0.31,0.334,0.31h0.999c0.185,0,0.334-0.138,0.334-0.31v-0.02l0.357,0.141
		c0.237,0.095,0.488,0.143,0.746,0.143s0.51-0.048,0.746-0.143l0.354-0.14v0.019c0,0.172,0.15,0.31,0.334,0.31h1
		c0.185,0,0.333-0.138,0.333-0.31v-0.725c0.544-0.321,0.896-0.866,0.896-1.481V8.61C8.713,8.566,8.8,8.512,8.887,8.456
		c0.063,0.129,0.105,0.299,0.105,0.537c0,1.539,0.615,2.459,1.642,2.459c0.092,0,0.188-0.009,0.285-0.024
		c0.941-0.16,1.073-1.121,1.079-1.162C12.014,10.144,11.95,10.024,11.836,9.963z M3.428,0.601c0.336-0.317,0.774-0.316,1.08-0.261
		c0.597,0.109,1.153,0.51,1.281,0.801C5.823,1.22,5.921,1.26,6.007,1.225C6.018,1.221,6.02,1.21,6.029,1.204
		c0.064-0.04,0.099-0.111,0.068-0.181C6.095,1.016,6.086,1.009,6.082,1.001l1.969,0.573c0.656,0.19,1.104,0.757,1.104,1.396v3.288
		C8.989,6.264,8.81,6.305,8.623,6.384V4.5c0-0.778-0.544-1.435-1.294-1.673C7.321,2.822,7.32,2.813,7.312,2.81
		c-0.01-0.004-0.088-0.032-0.206-0.058C6.811,2.688,6.236,2.645,5.639,3.056C5.151,3.39,4.944,3.869,4.856,4.191
		C4.028,3.26,2.634,1.353,3.428,0.601z M0.765,2.971c0-0.64,0.446-1.206,1.104-1.396l0.999-0.291c0.025,0.458,0.24,0.972,0.523,1.46
		C3.328,2.737,3.267,2.725,3.203,2.725c-0.49,0-0.975,0.183-1.329,0.503C1.502,3.563,1.297,4.015,1.297,4.5v1.884
		C1.11,6.306,0.93,6.265,0.765,6.259V2.971z M3.522,11.69H2.523V7.555h0.999V11.69z M7.395,11.69h-1V7.555h1V11.69z M8.29,8.411
		v1.073c0,0.44-0.212,0.848-0.563,1.121V7.555c0-0.172-0.148-0.311-0.333-0.311h-1c-0.184,0-0.334,0.139-0.334,0.311v3.78
		l-0.485,0.191c-0.196,0.078-0.406,0.117-0.615,0.117c-0.21,0-0.419-0.039-0.616-0.117l-0.487-0.192V7.555
		c0-0.172-0.149-0.311-0.334-0.311H2.523c-0.185,0-0.334,0.139-0.334,0.311v3.049c-0.348-0.273-0.56-0.68-0.56-1.119V8.411
		C1.396,8.326,1.139,8.176,0.904,7.958C0.393,7.48,0.186,6.901,0.44,6.664c0.073-0.067,0.174-0.099,0.292-0.099
		c0.252,0,0.583,0.139,0.897,0.376V4.5c0-0.844,0.744-1.466,1.573-1.466c0.132,0,0.268,0.022,0.401,0.057
		C4.141,3.913,4.78,4.587,4.837,4.646C4.868,4.679,4.914,4.697,4.96,4.697c0.019,0,0.037-0.003,0.055-0.009
		c0.064-0.021,0.108-0.074,0.111-0.138c0.002-0.008,0.062-0.801,0.71-1.246C5.93,3.241,6.021,3.192,6.111,3.153
		c0.11-0.049,0.211-0.069,0.311-0.09c0.099-0.019,0.197-0.029,0.295-0.029c0.828,0,1.573,0.622,1.573,1.466v2.441
		c0.314-0.237,0.646-0.376,0.896-0.376c0.12,0,0.22,0.031,0.291,0.099C9.735,6.901,9.526,7.48,9.015,7.958
		C8.78,8.176,8.525,8.326,8.29,8.411z M10.859,11.122c-0.078,0.014-0.153,0.02-0.226,0.02c-0.776,0-1.309-0.735-1.309-2.148
		c0-0.331-0.073-0.563-0.175-0.735c0.032-0.028,0.068-0.051,0.1-0.081c0.126-0.116,0.218-0.239,0.31-0.362
		C9.591,7.821,9.628,7.823,9.657,7.83c1.12,0.293,0.856,1.465,0.852,2.075c-0.002,0.461,0.194,0.595,0.428,0.595
		c0.33,0,0.73-0.271,0.73-0.271S11.569,11.002,10.859,11.122z"/>
</g>
</svg>
