<?xml version="1.0" encoding="utf-8"?>
<!-- Generator: Adobe Illustrator 16.0.0, SVG Export Plug-In . SVG Version: 6.00 Build 0)  -->
<!DOCTYPE svg PUBLIC "-//W3C//DTD SVG 1.1//EN" "http://www.w3.org/Graphics/SVG/1.1/DTD/svg11.dtd">
<svg version="1.1" id="Layer_1" xmlns="http://www.w3.org/2000/svg" xmlns:xlink="http://www.w3.org/1999/xlink" x="0px" y="0px"
	 width="12px" height="12px" viewBox="0 0 12 12" enable-background="new 0 0 12 12" xml:space="preserve">
<path fill="#46ADE0" d="M8.352,3.983c-0.258,0-0.507,0.029-0.751,0.076c0.016-0.139,0.043-0.275,0.043-0.418
	C7.643,1.631,6.011,0,4.001,0H4C3.072,0,2.234,0.357,1.591,0.93C1.589,0.931,1.586,0.931,1.584,0.932
	C1.573,0.939,1.567,0.95,1.557,0.957C1.501,0.998,1.458,1.049,1.424,1.105C0.776,1.762,0.36,2.645,0.36,3.64
	C0.359,5.649,1.988,7.28,3.999,7.281H4c0.144,0,0.279-0.026,0.419-0.042C4.372,7.483,4.343,7.733,4.343,7.991
	c0,0.026,0.008,0.051,0.008,0.078h-1.92c-1.138,0-2.073,0.935-2.073,2.071v1.264c0,0.325,0.264,0.593,0.592,0.594
	c0,0,0.342,0,1.479,0l4.146,0.001c1.14,0,1.478,0.001,1.478,0.001c0.035,0,0.064-0.015,0.098-0.021C8.219,11.982,8.281,12,8.348,12
	c2.215,0,4.01-1.793,4.01-4.007C12.357,5.78,10.566,3.984,8.352,3.983z M4.001,1c1.031,0,1.917,0.601,2.352,1.464
	C4.222,2.459,3.09,1.822,2.598,1.412C3.006,1.154,3.484,1,4.001,1z M3.999,6.281c-0.705,0-1.368-0.274-1.867-0.774
	C1.634,5.008,1.359,4.345,1.359,3.64c0-0.573,0.188-1.101,0.5-1.533c0.614,0.552,1.95,1.375,4.468,1.375
	c0.097,0,0.199-0.005,0.299-0.007C6.629,3.53,6.643,3.584,6.643,3.642c0,0.286-0.058,0.557-0.143,0.815
	C5.78,4.835,5.195,5.419,4.816,6.139C4.558,6.224,4.286,6.281,3.999,6.281z M6.154,8.554c0.856,0,1.547,0.697,1.547,1.55H6.154
	V8.554z M2.429,10.998H1.357v-0.857c0-0.581,0.491-1.071,1.073-1.071h2.077c0.213,0.762,0.64,1.424,1.218,1.929H2.429z
	 M8.752,10.104c0-1.421-1.158-2.577-2.578-2.577V6.749c1.85,0.001,3.357,1.506,3.355,3.354H8.752z M10.441,10.104
	c0-2.35-1.91-4.264-4.261-4.264V5.142c2.737,0.002,4.964,2.229,4.962,4.962H10.441z"/>
</svg>
