<?xml version="1.0" encoding="utf-8"?>
<!-- Generator: Adobe Illustrator 16.0.0, SVG Export Plug-In . SVG Version: 6.00 Build 0)  -->
<!DOCTYPE svg PUBLIC "-//W3C//DTD SVG 1.1//EN" "http://www.w3.org/Graphics/SVG/1.1/DTD/svg11.dtd">
<svg version="1.1" id="Layer_1" xmlns="http://www.w3.org/2000/svg" xmlns:xlink="http://www.w3.org/1999/xlink" x="0px" y="0px"
	 width="12px" height="12px" viewBox="0 0 12 12" enable-background="new 0 0 12 12" xml:space="preserve">
<path fill="#46ADE0" d="M10,3.969c0,0-2.375,0-3,0c0-0.684,0-1.066,0-1.684C7,0.908,6,0,5.031,0c-0.594,0-2,0-2,0v3.969H0V12h3.031
	H4h6c0,0,2,0,2-2.061c0-1.715,0-2.096,0-4.004C12,3.969,10,3.969,10,3.969z M11,9.939c0,0.854-0.551,1.049-1,1.061H4.031V6V1h1
	C5.438,1,6,1.447,6,2.285v1.684c0,0.553,0.447,1,1,1h2.988C10.45,4.98,11,5.158,11,5.936V9.939z"/>
</svg>
