<?xml version="1.0" encoding="utf-8"?>
<!-- Generator: Adobe Illustrator 16.0.0, SVG Export Plug-In . SVG Version: 6.00 Build 0)  -->
<!DOCTYPE svg PUBLIC "-//W3C//DTD SVG 1.1//EN" "http://www.w3.org/Graphics/SVG/1.1/DTD/svg11.dtd">
<svg version="1.1" id="Layer_1" xmlns="http://www.w3.org/2000/svg" xmlns:xlink="http://www.w3.org/1999/xlink" x="0px" y="0px"
	 width="12px" height="12px" viewBox="0 0 12 12" enable-background="new 0 0 12 12" xml:space="preserve">
<g>
	<path fill="#FED110" d="M10.272,2.792L8.01,0.521C7.951,0.462,7.933,0.382,7.935,0.301c-0.001,0-0.001,0-0.002,0
		c-1.547,0-3.638,0.498-5.443,2.036C1.157,3.471,0.3,5.157,0.3,6.867c0,2.954,2.552,4.833,5.7,4.833s5.7-1.879,5.7-4.833
		c0-1.558-0.395-2.58-0.599-3.197c-0.017-0.051-0.022-0.104-0.021-0.16c-0.057-0.012-0.115-0.021-0.157-0.064L10.272,2.792z
		 M9.063,7.458C8.965,7.474,8.868,7.481,8.771,7.481c-0.231,0-0.448-0.052-0.657-0.121c0.029,0.171,0.044,0.349,0.044,0.53
		c0,1.451-0.969,2.633-2.159,2.633S3.841,9.342,3.841,7.891c0-0.182,0.015-0.359,0.044-0.53C3.675,7.429,3.459,7.481,3.228,7.481
		c-0.095,0-0.193-0.008-0.292-0.024c-0.748-0.118-1.262-0.555-1.251-1.06C1.689,6.19,1.805,5.742,2.608,5.524
		C2.35,5.248,2.189,4.879,2.189,4.472c0-0.853,0.69-1.544,1.539-1.544c0.778,0,1.415,0.582,1.518,1.335
		C5.49,4.066,5.724,3.922,6,3.922c0.276,0,0.51,0.144,0.754,0.34c0.103-0.753,0.74-1.335,1.518-1.335
		c0.849,0,1.539,0.692,1.539,1.544c0,0.408-0.161,0.776-0.419,1.053c0.803,0.217,0.918,0.666,0.923,0.873
		C10.326,6.903,9.812,7.339,9.063,7.458z"/>
	<path fill="#493547" d="M11.67,2.349c0.017,0.171-0.022,0.344-0.077,0.509C11.648,2.693,11.687,2.521,11.67,2.349z"/>
	<path fill="#493547" d="M10.309,0.714C9.888,0.406,9.43,0.159,9.014,0.086C9,0.084,8.983,0.085,8.97,0.083
		c0.014,0.002,0.031,0.002,0.044,0.004C9.43,0.159,9.888,0.407,10.309,0.714z"/>
	<path fill="#F58821" d="M6,10.223c1.027,0,1.859-1.043,1.859-2.332c0-0.23-0.035-0.449-0.084-0.66
		C7.539,7.124,7.315,6.996,7.105,6.873C6.712,6.641,6.34,6.42,6,6.42c-0.34,0-0.712,0.221-1.106,0.453
		C4.685,6.996,4.46,7.124,4.225,7.231c-0.049,0.21-0.084,0.429-0.084,0.66C4.141,9.18,4.973,10.223,6,10.223z M6,6.424
		c0.376,0,0.598,0.558,0.598,1.467c0,0.909-0.222,1.07-0.598,1.07S5.493,8.8,5.493,7.891C5.493,6.981,5.624,6.424,6,6.424z"/>
	<path fill="#493547" d="M6,9.155c0.376,0,0.9-0.559,0.9-1.468C6.9,6.778,6.375,6.22,6,6.22S5.1,6.778,5.1,7.687
		C5.1,8.597,5.624,9.155,6,9.155z"/>
	<path fill="#F58821" d="M6.75,4.653C6.47,4.41,6.24,4.223,6,4.223s-0.47,0.188-0.75,0.43C5.158,5.418,4.515,6.016,3.728,6.016
		c-0.302,0-0.582-0.091-0.819-0.242C1.517,6.032,1.864,6.984,2.983,7.16C3.065,7.174,3.147,7.18,3.228,7.18
		c1.06,0,1.889-1.061,2.772-1.061c0.883,0,1.712,1.061,2.772,1.061c0.08,0,0.162-0.006,0.245-0.021
		c1.119-0.175,1.466-1.128,0.074-1.386C8.853,5.925,8.573,6.016,8.271,6.016C7.484,6.016,6.841,5.418,6.75,4.653z"/>
	<path fill="#FFFFFF" d="M8.271,5.714c0.684,0,1.239-0.557,1.239-1.243c0-0.687-0.555-1.244-1.239-1.244S7.032,3.785,7.032,4.472
		C7.032,5.158,7.587,5.714,8.271,5.714z M8.274,3.726c0.41,0,0.743,0.333,0.743,0.746S8.684,5.217,8.274,5.217
		c-0.411,0-0.744-0.333-0.744-0.746S7.863,3.726,8.274,3.726z"/>
	<circle fill="#493547" cx="8.274" cy="4.472" r="0.746"/>
	<path fill="#FFFFFF" d="M3.728,5.714c0.684,0,1.239-0.557,1.239-1.243c0-0.687-0.555-1.244-1.239-1.244S2.489,3.785,2.489,4.472
		C2.489,5.158,3.044,5.714,3.728,5.714z M3.728,3.723c0.411,0,0.743,0.334,0.743,0.746c0,0.413-0.332,0.747-0.743,0.747
		S2.985,4.881,2.985,4.469C2.985,4.057,3.317,3.723,3.728,3.723z"/>
	<circle fill="#493547" cx="3.728" cy="4.469" r="0.746"/>
	<path fill="#9B6829" d="M11.328,2.227c-0.302-0.619-1.492-1.692-2.365-1.843C8.74,0.345,8.49,0.32,8.222,0.309
		c1.056,1.061,2.641,2.651,2.914,2.923C11.246,2.89,11.468,2.512,11.328,2.227z"/>
	<g>
		<path fill="#493547" d="M11.439,3.734l-0.054-0.158c-0.03-0.093,0.052-0.306,0.119-0.477c0.03-0.078,0.062-0.159,0.089-0.241
			c0.055-0.166,0.094-0.338,0.077-0.509c-0.008-0.085-0.03-0.171-0.072-0.256c-0.191-0.391-0.702-0.947-1.29-1.379
			C9.888,0.407,9.43,0.159,9.014,0.087C9.001,0.085,8.983,0.085,8.97,0.083C8.748,0.046,8.504,0.02,8.235,0.008
			c-0.005,0-0.009,0-0.013,0c-0.015,0-0.026,0.01-0.041,0.013C8.095,0.017,8.021,0,7.932,0C6.98,0,4.526,0.206,2.295,2.107
			C0.858,3.332,0,5.111,0,6.867C0,9.841,2.523,12,6,12c3.476,0,6-2.159,6-5.133C12,5.387,11.649,4.352,11.439,3.734z M8.963,0.383
			c0.873,0.151,2.063,1.224,2.365,1.843c0.14,0.285-0.082,0.664-0.192,1.005c-0.273-0.272-1.858-1.863-2.914-2.923
			C8.49,0.32,8.74,0.345,8.963,0.383z M6,11.699c-3.148,0-5.7-1.879-5.7-4.833c0-1.71,0.857-3.396,2.189-4.53
			c1.805-1.538,3.896-2.036,5.443-2.036c0.001,0,0.001,0,0.002,0C7.933,0.382,7.951,0.462,8.01,0.521l2.262,2.271l0.651,0.654
			c0.042,0.043,0.101,0.053,0.157,0.064c-0.001,0.056,0.004,0.109,0.021,0.16C11.305,4.287,11.7,5.309,11.7,6.867
			C11.7,9.82,9.148,11.699,6,11.699z"/>
		<path fill="#493547" d="M9.392,5.524c0.258-0.276,0.419-0.645,0.419-1.053c0-0.853-0.69-1.544-1.539-1.544
			c-0.778,0-1.415,0.582-1.518,1.335C6.51,4.066,6.276,3.922,6,3.922c-0.276,0-0.51,0.144-0.753,0.34
			c-0.103-0.753-0.74-1.335-1.518-1.335c-0.849,0-1.539,0.692-1.539,1.544c0,0.408,0.161,0.776,0.419,1.053
			C1.805,5.742,1.689,6.19,1.685,6.397c-0.011,0.505,0.503,0.942,1.251,1.06c0.099,0.016,0.197,0.024,0.292,0.024
			c0.232,0,0.448-0.052,0.657-0.121c-0.029,0.171-0.044,0.349-0.044,0.53c0,1.451,0.969,2.633,2.159,2.633s2.159-1.182,2.159-2.633
			c0-0.182-0.015-0.359-0.044-0.53C8.324,7.429,8.54,7.481,8.771,7.481c0.096,0,0.193-0.008,0.292-0.024
			c0.748-0.118,1.262-0.555,1.251-1.06C10.31,6.19,10.194,5.742,9.392,5.524z M8.271,3.228c0.684,0,1.239,0.557,1.239,1.244
			c0,0.686-0.555,1.243-1.239,1.243S7.032,5.158,7.032,4.472C7.032,3.785,7.587,3.228,8.271,3.228z M2.489,4.472
			c0-0.687,0.555-1.244,1.239-1.244s1.239,0.557,1.239,1.244c0,0.686-0.555,1.243-1.239,1.243S2.489,5.158,2.489,4.472z
			 M7.859,7.891c0,1.289-0.832,2.332-1.859,2.332c-1.027,0-1.859-1.043-1.859-2.332c0-0.23,0.035-0.449,0.084-0.66
			C4.46,7.124,4.685,6.996,4.894,6.873C5.288,6.641,5.66,6.42,6,6.42c0.34,0,0.712,0.221,1.106,0.453
			c0.209,0.124,0.434,0.251,0.669,0.359C7.824,7.442,7.859,7.661,7.859,7.891z M9.017,7.16C8.934,7.174,8.852,7.18,8.771,7.18
			C7.712,7.18,6.883,6.119,6,6.119c-0.883,0-1.712,1.061-2.772,1.061c-0.08,0-0.162-0.006-0.245-0.021
			C1.864,6.984,1.517,6.032,2.909,5.774c0.238,0.151,0.518,0.242,0.819,0.242c0.787,0,1.43-0.598,1.521-1.363
			C5.53,4.41,5.759,4.223,6,4.223S6.47,4.41,6.75,4.653c0.091,0.766,0.734,1.363,1.521,1.363c0.302,0,0.582-0.091,0.819-0.242
			C10.482,6.032,10.135,6.984,9.017,7.16z"/>
	</g>
</g>
</svg>
