<?xml version="1.0" encoding="utf-8"?>
<!-- Generator: Adobe Illustrator 16.0.0, SVG Export Plug-In . SVG Version: 6.00 Build 0)  -->
<!DOCTYPE svg PUBLIC "-//W3C//DTD SVG 1.1//EN" "http://www.w3.org/Graphics/SVG/1.1/DTD/svg11.dtd">
<svg version="1.1" id="Layer_1" xmlns="http://www.w3.org/2000/svg" xmlns:xlink="http://www.w3.org/1999/xlink" x="0px" y="0px"
	 width="12px" height="12px" viewBox="0 0 12 12" enable-background="new 0 0 12 12" xml:space="preserve">
<path fill="#46ADE0" d="M7.994,3.984c-0.258,0-0.509,0.029-0.753,0.075c0.016-0.14,0.042-0.274,0.042-0.418
	C7.284,1.63,5.654,0,3.643-0.001H3.642c-0.928,0-1.765,0.358-2.408,0.929C1.232,0.93,1.229,0.93,1.226,0.932
	c-0.013,0.008-0.02,0.02-0.031,0.029C1.141,1,1.099,1.05,1.066,1.104C0.418,1.76,0.002,2.645,0.001,3.64
	c0,2.01,1.629,3.642,3.639,3.642h0.001c0.144,0,0.279-0.025,0.419-0.042C4.013,7.482,3.984,7.732,3.984,7.99
	c0,0.027,0.008,0.053,0.008,0.079L2.073,8.068C0.934,8.068,0,9.004,0,10.142L0,11.405c0,0.325,0.266,0.593,0.592,0.593
	c0,0,0.342,0,1.48,0L6.217,12c1.142,0,1.479,0,1.479,0h0.001c0.034,0,0.063-0.014,0.096-0.02C7.861,11.984,7.923,12,7.992,12
	C10.207,12.001,12,10.207,12,7.992C12.001,5.779,10.208,3.984,7.994,3.984z M3.643,0.999c0.705,0,1.368,0.274,1.867,0.774
	C5.717,1.98,5.875,2.222,6.002,2.478c-2.159,0.004-3.28-0.648-3.771-1.062C2.641,1.155,3.124,0.999,3.643,0.999z M3.64,6.281
	c-1.455,0-2.639-1.186-2.639-2.641c0-0.574,0.188-1.101,0.5-1.534C2.117,2.658,3.454,3.48,5.971,3.48
	c0.096,0,0.196-0.004,0.295-0.006c0.004,0.057,0.017,0.11,0.017,0.167c0,0.286-0.058,0.558-0.143,0.815
	C5.42,4.835,4.836,5.419,4.458,6.139C4.199,6.224,3.927,6.281,3.64,6.281z M2.072,10.998H1L1,10.142
	c0-0.581,0.491-1.073,1.072-1.073l2.076,0.001C4.363,9.83,4.789,10.494,5.368,11L2.072,10.998z M9.866,8.492H8.493v1.375h-1V8.491
	L6.118,8.49v-1l1.376,0.001V6.117h1v1.375h1.372V8.492z"/>
</svg>
