<?xml version="1.0" encoding="utf-8"?>
<!-- Generator: Adobe Illustrator 16.0.0, SVG Export Plug-In . SVG Version: 6.00 Build 0)  -->
<!DOCTYPE svg PUBLIC "-//W3C//DTD SVG 1.1//EN" "http://www.w3.org/Graphics/SVG/1.1/DTD/svg11.dtd">
<svg version="1.1" id="Layer_1" xmlns="http://www.w3.org/2000/svg" xmlns:xlink="http://www.w3.org/1999/xlink" x="0px" y="0px"
	 width="24px" height="24px" viewBox="0 0 24 24" enable-background="new 0 0 24 24" xml:space="preserve">
<g>
	<rect y="0.25" fill="none" width="24" height="24"/>
	<path d="M18.546,12.121c0-0.75,0-2.12,0-2.12c0-3.323-1.451-6.143-4.127-7.192c0.017-0.116,0.035-0.232,0.035-0.354
		C14.454,1.099,13.354,0,12,0S9.546,1.099,9.546,2.455c0,0.121,0.019,0.237,0.035,0.354c-2.677,1.049-4.127,3.869-4.127,7.192
		c0,0,0,1.282,0,2.12c0,1.695-3.272,3.272-3.272,3.272v3.787c0,0.599,0.49,1.091,1.091,1.091h5.175
		c-0.003,0.055-0.017,0.105-0.017,0.16C8.431,22.4,10.03,24,12,24s3.569-1.6,3.569-3.568c0-0.055-0.014-0.105-0.017-0.16h5.175
		c0.599,0,1.091-0.492,1.091-1.091v-3.787C21.818,15.394,18.546,13.736,18.546,12.121z M10.546,2.455C10.546,1.652,11.198,1,12,1
		s1.454,0.652,1.454,1.455c0,0.02-0.005,0.038-0.006,0.058C12.993,2.417,12.511,2.364,12,2.364s-0.993,0.053-1.448,0.148
		C10.551,2.493,10.546,2.475,10.546,2.455z M6.454,12.121v-2.12c0-3.062,1.452-6.637,5.546-6.637s5.546,3.575,5.546,6.637v2.12
		c0,1.452,1.485,2.708,2.631,3.465H3.858C5.003,14.844,6.454,13.613,6.454,12.121z M14.569,20.432C14.569,21.848,13.417,23,12,23
		s-2.569-1.152-2.569-2.568c0-0.055,0.013-0.106,0.017-0.16h5.105C14.557,20.325,14.569,20.377,14.569,20.432z M20.818,19.181
		c0,0.047-0.044,0.091-0.091,0.091H3.272c-0.048,0-0.091-0.043-0.091-0.091v-2.595h17.637V19.181z"/>
</g>
</svg>
