<?xml version="1.0" encoding="utf-8"?>
<!-- Generator: Adobe Illustrator 16.0.0, SVG Export Plug-In . SVG Version: 6.00 Build 0)  -->
<!DOCTYPE svg PUBLIC "-//W3C//DTD SVG 1.1//EN" "http://www.w3.org/Graphics/SVG/1.1/DTD/svg11.dtd">
<svg version="1.1" id="Layer_1" xmlns="http://www.w3.org/2000/svg" xmlns:xlink="http://www.w3.org/1999/xlink" x="0px" y="0px"
	 width="12px" height="12px" viewBox="0 0 12 12" enable-background="new 0 0 12 12" xml:space="preserve">
<g>
	<path fill="#46ADE0" d="M7.875,7.836h-3.75c-1.031,0-1.875,0.809-1.875,1.799V11c0,0.55,0.38,1,0.844,1c0,0,0,0,1.031,0h3.75
		c1.031,0,1.031,0,1.031,0c0.464,0,0.844-0.45,0.844-1V9.635C9.75,8.645,8.906,7.836,7.875,7.836z M8.75,11H7.875h-3.75H3.25V9.635
		c0-0.434,0.4-0.799,0.875-0.799h3.75c0.475,0,0.875,0.365,0.875,0.799V11z"/>
	<path fill="#46ADE0" d="M5.999,7.092c1.959,0,3.547-1.587,3.547-3.544c0-0.202-0.027-0.397-0.06-0.59
		C9.455,2.771,9.404,2.592,9.345,2.417C8.871,1.015,7.561,0,5.999,0c-0.8,0-1.529,0.274-2.122,0.722
		C3.777,0.797,3.68,0.875,3.589,0.96C2.895,1.607,2.454,2.523,2.454,3.547C2.454,5.504,4.042,7.092,5.999,7.092z M5.999,1
		c0.946,0,1.765,0.525,2.204,1.294C6.362,2.231,5.329,1.685,4.836,1.295C5.187,1.113,5.578,1,5.999,1z M4.038,1.944
		C4.653,2.496,5.988,3.315,8.5,3.315c0.007,0,0.016,0,0.022,0c0.007,0.078,0.023,0.153,0.023,0.233c0,1.403-1.143,2.545-2.547,2.545
		c-1.403,0-2.545-1.142-2.545-2.545C3.454,2.937,3.679,2.383,4.038,1.944z"/>
</g>
<rect fill="none" width="12" height="12"/>
</svg>
