<?xml version="1.0" encoding="utf-8"?>
<!-- Generator: Adobe Illustrator 16.0.0, SVG Export Plug-In . SVG Version: 6.00 Build 0)  -->
<!DOCTYPE svg PUBLIC "-//W3C//DTD SVG 1.1//EN" "http://www.w3.org/Graphics/SVG/1.1/DTD/svg11.dtd">
<svg version="1.1" id="Layer_1" xmlns="http://www.w3.org/2000/svg" xmlns:xlink="http://www.w3.org/1999/xlink" x="0px" y="0px"
	 width="12px" height="12px" viewBox="0 0 12 12" enable-background="new 0 0 12 12" xml:space="preserve">
<g>
	<path fill="#4FADE3" d="M5.546,9.462L5.415,9.333H3.948V7.436H5.23c0.169-0.125,0.381-0.211,0.627-0.247L6.31,7.123l0.076-0.011
		l0.646-0.095l0.135-0.02L7.27,6.789H7.031V4.493h2.302v0.771c0.191,0.123,0.355,0.305,0.474,0.547l0.204,0.41l0.322,0.653V3.291
		c0-1.1-0.9-2-2-2H8.288V1c0-0.55-0.388-1-0.861-1S6.565,0.45,6.565,1v0.291H3.778V1c0-0.55-0.387-1-0.86-1s-0.86,0.45-0.86,1v0.291
		H2c-1.101,0-2,0.9-2,2v5.042c0,1.1,0.899,2,2,2h4.123l0.046-0.265L5.878,9.783L5.546,9.462z M1,4.493h2.303v2.296H1V4.493z
		 M6.386,6.789H3.948V4.493h2.438V6.789z M1,3.291c0-0.552,0.448-1,1-1h0.068c0.029,0.52,0.395,0.938,0.85,0.938
		s0.82-0.418,0.85-0.938h2.809c0.029,0.52,0.396,0.938,0.851,0.938s0.821-0.418,0.851-0.938h0.056c0.552,0,1,0.448,1,1v0.557H1
		V3.291z M1,8.333V7.436h2.303v1.897H2C1.448,9.333,1,8.885,1,8.333z"/>
	<path fill="#4FADE3" d="M11.595,7.931l-0.452-0.065L9.896,7.684l-0.558-1.13L9.135,6.145C9.037,5.945,8.908,5.846,8.779,5.846
		s-0.258,0.1-0.354,0.299L8.222,6.554l-0.558,1.13L6.417,7.865L5.965,7.931C5.527,7.995,5.43,8.298,5.745,8.606
		c0,0.001,0,0.001,0,0.001l0.326,0.318L6.4,9.246l0.574,0.562l-0.136,0.79l-0.078,0.45l-0.076,0.45V11.5
		c-0.053,0.315,0.067,0.501,0.286,0.501c0.083,0,0.181-0.027,0.288-0.084l0.405-0.213l1.115-0.588l1.116,0.588l0.404,0.213
		c0.107,0.057,0.205,0.084,0.288,0.084c0.22,0,0.341-0.186,0.288-0.501v-0.002l-0.077-0.45l-0.078-0.45l-0.135-0.79l0.573-0.562
		l0.328-0.32l0.329-0.319C12.132,8.298,12.032,7.995,11.595,7.931z"/>
</g>
</svg>
