<?xml version="1.0" encoding="utf-8"?>
<!-- Generator: Adobe Illustrator 16.0.0, SVG Export Plug-In . SVG Version: 6.00 Build 0)  -->
<!DOCTYPE svg PUBLIC "-//W3C//DTD SVG 1.1//EN" "http://www.w3.org/Graphics/SVG/1.1/DTD/svg11.dtd">
<svg version="1.1" id="Layer_1" xmlns="http://www.w3.org/2000/svg" xmlns:xlink="http://www.w3.org/1999/xlink" x="0px" y="0px"
	 width="12px" height="12px" viewBox="0 0 12 12" enable-background="new 0 0 12 12" xml:space="preserve">
<g>
	<path fill="#FFFFFF" d="M8.788,6.806c-0.408-0.221-0.848-0.425-1.311-0.58c-0.011,0.003-0.02,0.014-0.031,0.014
		c-0.036,0-0.072-0.013-0.101-0.039C7.338,6.195,7.34,6.186,7.335,6.18C7.183,6.133,7.029,6.095,6.872,6.062
		C6.68,6.266,6.333,6.538,6,6.538c-0.333,0-0.679-0.272-0.872-0.477C5.007,6.087,4.887,6.112,4.769,6.146
		c-0.008,0.02-0.01,0.04-0.026,0.055C4.714,6.227,4.678,6.239,4.643,6.239c-0.025,0-0.046-0.018-0.068-0.03
		C4.093,6.366,3.636,6.577,3.213,6.806C4.038,7.061,4.996,7.21,6,7.21C7.005,7.21,7.962,7.061,8.788,6.806z"/>
	<path fill="#FFFFFF" d="M10.327,7.69c-0.132,0.778-0.526,1.455-1.184,1.972C8.343,10.29,7.226,10.637,6,10.637
		S3.658,10.29,2.857,9.662C2.199,9.146,1.805,8.469,1.673,7.691C0.819,8.15,0.3,8.208,0.3,6.885C0.3,9.827,2.852,11.7,6,11.7
		s5.7-1.873,5.7-4.815C11.7,8.208,11.181,8.15,10.327,7.69z"/>
	<path fill="#493547" d="M3.641,1.28L3.641,1.28c-0.71,0.331-1.355,0.802-1.899,1.374h0.03C2.325,2.07,2.962,1.604,3.641,1.28z"/>
	<path fill="#493547" d="M10.228,2.654h0.031c-0.544-0.572-1.189-1.043-1.9-1.374l0,0C9.038,1.604,9.675,2.07,10.228,2.654z"/>
	<path fill="#F8994D" d="M11.427,5.752c-0.124,0-0.246-0.043-0.344-0.121C9.853,4.639,8,4.069,6,4.069S2.147,4.639,0.917,5.631
		C0.82,5.709,0.698,5.752,0.573,5.752c-0.049,0-0.093-0.02-0.139-0.031C0.348,6.104,0.3,6.493,0.3,6.885
		c0,1.323,0.519,1.266,1.373,0.807c-0.032-0.187-0.062-0.373-0.062-0.57c0-0.163,0.014-0.336,0.044-0.544
		c0.014-0.098,0.076-0.182,0.164-0.226C1.861,6.331,1.906,6.32,1.952,6.32c0.05,0,0.1,0.013,0.145,0.038
		C2.421,6.537,2.806,6.68,3.213,6.806c0.423-0.229,0.88-0.439,1.361-0.597C4.56,6.201,4.543,6.203,4.531,6.19
		c-0.003-0.004-0.36-0.39-1.048-0.597c-0.696-0.209-1.12-0.082-1.124-0.08C2.284,5.538,2.197,5.496,2.172,5.416
		C2.147,5.337,2.189,5.253,2.268,5.228c0.021-0.007,0.508-0.16,1.302,0.079c0.773,0.232,1.168,0.664,1.184,0.683
		c0.041,0.046,0.038,0.104,0.015,0.156c0.118-0.033,0.238-0.059,0.359-0.084c-0.029-0.03-0.065-0.064-0.086-0.091
		C4.883,5.771,5.17,5.338,6,5.338s1.117,0.433,0.958,0.633C6.937,5.997,6.901,6.031,6.872,6.062C7.029,6.095,7.183,6.133,7.335,6.18
		C7.29,6.123,7.284,6.045,7.334,5.989c0.016-0.019,0.411-0.45,1.185-0.683C9.313,5.068,9.801,5.222,9.82,5.228
		c0.079,0.025,0.122,0.11,0.096,0.189C9.89,5.495,9.803,5.539,9.728,5.513C9.714,5.509,9.292,5.386,8.605,5.594
		C7.917,5.801,7.56,6.187,7.557,6.19c-0.021,0.023-0.051,0.028-0.08,0.035c0.463,0.155,0.903,0.359,1.311,0.58
		c0.408-0.126,0.793-0.27,1.117-0.448C9.95,6.332,10,6.319,10.05,6.319c0.045,0,0.091,0.01,0.133,0.031
		c0.088,0.043,0.149,0.127,0.164,0.224c0.028,0.188,0.042,0.372,0.042,0.547c0,0.197-0.03,0.384-0.062,0.569
		C11.181,8.15,11.7,8.208,11.7,6.885c0-0.392-0.048-0.781-0.134-1.164C11.521,5.732,11.476,5.752,11.427,5.752z"/>
	<path fill="#7DC0EA" d="M11.696,3.381c0.033-0.225-0.141-0.426-0.368-0.426h-0.527h-0.136h-0.568
		C9.458,2.254,8.67,1.687,7.774,1.36c0.357-0.201,0.569-0.472,0.507-0.702C8.22,0.43,7.91,0.3,7.507,0.3
		c-0.18,0-0.379,0.026-0.584,0.081C6.509,0.492,6.172,0.694,6,0.913C5.828,0.694,5.491,0.492,5.077,0.381
		C4.872,0.326,4.673,0.3,4.493,0.3C4.09,0.3,3.78,0.43,3.719,0.658c-0.062,0.23,0.15,0.501,0.507,0.702
		C3.33,1.687,2.542,2.254,1.903,2.955H1.335H0.672c-0.227,0-0.401,0.201-0.368,0.426l0.18,1.213C1.896,3.565,3.882,2.974,6,2.974
		c2.12,0,4.104,0.592,5.517,1.62L11.696,3.381z"/>
	<path fill="#C04040" d="M8.344,9.816c-0.037,0.019-0.08,0.029-0.117,0.047C8.264,9.846,8.307,9.835,8.344,9.816z"/>
	<path fill="#C04040" d="M8.424,9.766c0.189-0.103,0.372-0.212,0.534-0.339l0-0.001l0,0C8.796,9.554,8.613,9.663,8.424,9.766z"/>
	<path fill="#C04040" d="M3.033,9.418c0.003,0.003,0.005,0.006,0.009,0.009c0.312,0.244,0.686,0.432,1.089,0.58
		C3.728,9.857,3.354,9.671,3.042,9.426C3.039,9.424,3.036,9.421,3.033,9.418z"/>
	<path fill="#C04040" d="M3.021,9.406C3.029,9.4,3.035,9.395,3.042,9.388C3.791,8.801,4.84,8.479,6,8.479
		c1.159,0,2.21,0.322,2.958,0.909C8.966,9.394,8.972,9.4,8.979,9.406c0.724-0.58,1.109-1.368,1.109-2.285
		c0-0.166-0.014-0.334-0.039-0.502C9.064,7.165,7.616,7.511,6,7.511c-1.614,0-3.062-0.346-4.048-0.891
		C1.928,6.787,1.911,6.954,1.911,7.121C1.911,8.038,2.296,8.827,3.021,9.406z"/>
	<path fill="#493547" d="M2.857,9.662C3.658,10.29,4.774,10.637,6,10.637s2.343-0.347,3.143-0.975
		c0.658-0.517,1.052-1.193,1.184-1.972c0.032-0.186,0.062-0.372,0.062-0.569c0-0.175-0.014-0.358-0.042-0.547
		c-0.015-0.097-0.076-0.181-0.164-0.224c-0.042-0.021-0.088-0.031-0.133-0.031c-0.05,0-0.1,0.013-0.145,0.038
		C9.581,6.536,9.195,6.68,8.788,6.806C7.962,7.061,7.005,7.21,6,7.21c-1.004,0-1.962-0.149-2.787-0.404
		C2.806,6.68,2.421,6.537,2.097,6.358C2.052,6.333,2.002,6.32,1.952,6.32c-0.046,0-0.091,0.011-0.133,0.031
		c-0.088,0.044-0.15,0.128-0.164,0.226c-0.03,0.208-0.044,0.381-0.044,0.544c0,0.197,0.03,0.384,0.062,0.57
		C1.805,8.469,2.199,9.146,2.857,9.662z M1.911,7.121c0-0.167,0.017-0.334,0.041-0.501C2.938,7.165,4.386,7.511,6,7.511
		c1.616,0,3.064-0.346,4.05-0.892c0.025,0.168,0.039,0.336,0.039,0.502c0,0.917-0.385,1.705-1.109,2.285c0,0,0,0,0.001,0.001
		C8.972,9.413,8.966,9.42,8.958,9.426l0,0.001C8.795,9.554,8.613,9.663,8.424,9.766C8.396,9.78,8.373,9.802,8.344,9.816
		c-0.037,0.019-0.08,0.029-0.117,0.047C7.583,10.167,6.822,10.337,6,10.337c-0.677,0-1.306-0.122-1.87-0.33
		c-0.403-0.148-0.777-0.336-1.089-0.58C3.039,9.424,3.037,9.421,3.033,9.418C3.029,9.414,3.025,9.411,3.021,9.407
		c0,0,0-0.001,0.001-0.001C2.296,8.827,1.911,8.038,1.911,7.121z"/>
	<path fill="#E94747" d="M6,8.479c-1.16,0-2.21,0.322-2.958,0.909C3.035,9.395,3.029,9.4,3.021,9.406c0,0-0.001,0.001-0.001,0.001
		c0.004,0.004,0.009,0.007,0.013,0.011c0.003,0.003,0.006,0.006,0.009,0.008c0.312,0.245,0.686,0.432,1.088,0.581
		c0.563,0.208,1.193,0.33,1.87,0.33c0.821,0,1.583-0.17,2.226-0.474c0.037-0.018,0.081-0.028,0.117-0.047
		c0.029-0.015,0.052-0.036,0.08-0.051c0.189-0.103,0.372-0.212,0.535-0.34l0,0C8.966,9.42,8.972,9.413,8.98,9.407
		c0-0.001-0.001-0.001-0.001-0.001C8.972,9.4,8.966,9.394,8.958,9.388C8.21,8.801,7.159,8.479,6,8.479z"/>
	<path fill="#493547" d="M6,6.538c0.333,0,0.68-0.272,0.872-0.477c0.029-0.03,0.065-0.064,0.086-0.091
		C7.117,5.771,6.83,5.338,6,5.338S4.883,5.771,5.042,5.971c0.021,0.026,0.057,0.061,0.086,0.091C5.321,6.266,5.667,6.538,6,6.538z"
		/>
	<path fill="#493547" d="M7.445,6.239c0.012,0,0.02-0.011,0.031-0.014c0.029-0.007,0.059-0.012,0.08-0.035
		c0.003-0.004,0.36-0.39,1.048-0.597c0.687-0.208,1.109-0.085,1.123-0.081C9.803,5.539,9.89,5.495,9.916,5.417
		C9.942,5.338,9.898,5.253,9.82,5.228C9.801,5.222,9.313,5.068,8.519,5.307C7.745,5.539,7.35,5.971,7.334,5.989
		C7.284,6.045,7.29,6.123,7.335,6.18C7.34,6.186,7.338,6.195,7.345,6.2C7.374,6.227,7.41,6.239,7.445,6.239z"/>
	<path fill="#493547" d="M4.743,6.2c0.016-0.015,0.018-0.035,0.026-0.055c0.023-0.052,0.026-0.11-0.015-0.156
		C4.738,5.971,4.343,5.539,3.57,5.307C2.776,5.067,2.289,5.221,2.268,5.228C2.189,5.253,2.147,5.337,2.172,5.416
		c0.025,0.08,0.112,0.122,0.188,0.098c0.004-0.002,0.427-0.129,1.124,0.08C4.171,5.801,4.528,6.187,4.531,6.19
		C4.543,6.203,4.56,6.201,4.574,6.209c0.022,0.013,0.043,0.03,0.068,0.03C4.678,6.239,4.714,6.227,4.743,6.2z"/>
	<path fill="#F293BE" d="M0.38,5.359c0.049,0.062,0.121,0.092,0.193,0.092c0.055,0,0.11-0.018,0.155-0.055
		C2.012,4.362,3.933,3.77,6,3.77s3.988,0.593,5.271,1.627c0.046,0.038,0.101,0.055,0.156,0.055c0.072,0,0.144-0.03,0.193-0.092
		c0.086-0.105,0.069-0.262-0.037-0.348C10.213,3.906,8.178,3.273,6,3.273c-2.178,0-4.213,0.633-5.583,1.738
		C0.311,5.098,0.294,5.254,0.38,5.359z"/>
	<path fill="#493547" d="M11.841,5.559c0.003-0.005,0.01-0.007,0.013-0.011c0.091-0.113,0.133-0.256,0.118-0.402
		c-0.015-0.136-0.082-0.256-0.184-0.347l0.205-1.374c0.028-0.193-0.028-0.389-0.156-0.537c-0.128-0.148-0.313-0.233-0.509-0.233
		h-0.527h-0.136h-0.406h-0.031C9.675,2.07,9.038,1.604,8.359,1.28l0,0C8.556,1.06,8.634,0.815,8.57,0.581
		C8.473,0.217,8.076,0,7.507,0C7.293,0,7.071,0.03,6.846,0.091C6.516,0.179,6.222,0.32,6,0.496C5.778,0.32,5.484,0.179,5.154,0.091
		C4.929,0.03,4.707,0,4.493,0C3.925,0,3.527,0.217,3.429,0.581C3.367,0.815,3.444,1.06,3.641,1.28
		C2.962,1.604,2.325,2.07,1.772,2.654h-0.03H1.335H0.672c-0.196,0-0.381,0.085-0.509,0.233s-0.184,0.344-0.156,0.537l0.204,1.374
		C0.11,4.89,0.043,5.01,0.028,5.146C0.013,5.292,0.055,5.435,0.147,5.548C0.15,5.552,0.156,5.554,0.16,5.558
		C0.059,5.988,0,6.432,0,6.885C0,9.849,2.523,12,6,12s6-2.151,6-5.115C12,6.433,11.941,5.989,11.841,5.559z M0.417,5.012
		C1.787,3.906,3.822,3.273,6,3.273c2.178,0,4.213,0.633,5.583,1.738c0.106,0.086,0.123,0.242,0.037,0.348
		c-0.049,0.062-0.121,0.092-0.193,0.092c-0.055,0-0.11-0.017-0.156-0.055C9.988,4.362,8.067,3.77,6,3.77S2.012,4.362,0.728,5.396
		c-0.045,0.037-0.1,0.055-0.155,0.055c-0.072,0-0.144-0.03-0.193-0.092C0.294,5.254,0.311,5.098,0.417,5.012z M0.672,2.955h0.663
		h0.568C2.542,2.254,3.33,1.687,4.226,1.36C3.869,1.159,3.657,0.889,3.719,0.658C3.78,0.43,4.09,0.3,4.493,0.3
		c0.18,0,0.379,0.026,0.584,0.081C5.491,0.492,5.828,0.694,6,0.913c0.172-0.219,0.509-0.421,0.923-0.532
		C7.128,0.326,7.327,0.3,7.507,0.3c0.403,0,0.713,0.13,0.774,0.358c0.062,0.23-0.15,0.501-0.507,0.702
		c0.896,0.326,1.684,0.894,2.323,1.595h0.568h0.136h0.527c0.227,0,0.401,0.201,0.368,0.426l-0.18,1.213
		C10.104,3.565,8.12,2.974,6,2.974c-2.118,0-4.104,0.592-5.516,1.62l-0.18-1.213C0.271,3.156,0.445,2.955,0.672,2.955z M6,11.7
		c-3.148,0-5.7-1.873-5.7-4.815c0-0.392,0.048-0.781,0.134-1.164c0.046,0.012,0.09,0.031,0.139,0.031
		c0.125,0,0.247-0.043,0.344-0.121C2.147,4.639,4,4.069,6,4.069s3.853,0.569,5.083,1.562c0.098,0.078,0.22,0.121,0.344,0.121
		c0.049,0,0.093-0.02,0.139-0.031C11.652,6.104,11.7,6.493,11.7,6.885C11.7,9.827,9.148,11.7,6,11.7z"/>
</g>
</svg>
