<?xml version="1.0" encoding="utf-8"?>
<!-- Generator: Adobe Illustrator 16.0.0, SVG Export Plug-In . SVG Version: 6.00 Build 0)  -->
<!DOCTYPE svg PUBLIC "-//W3C//DTD SVG 1.1//EN" "http://www.w3.org/Graphics/SVG/1.1/DTD/svg11.dtd">
<svg version="1.1" id="Layer_1" xmlns="http://www.w3.org/2000/svg" xmlns:xlink="http://www.w3.org/1999/xlink" x="0px" y="0px"
	 width="12px" height="12px" viewBox="0 0 12 12" enable-background="new 0 0 12 12" xml:space="preserve">
<g>
	<path fill="#46ADE0" d="M9,0H3C1.351,0,0,1.35,0,3v3.988C0,8.441,1.018,9.93,2.429,9.93v1.76C2.429,11.891,2.5,12,2.609,12
		c0.068,0,0.152-0.045,0.243-0.135l2.416-1.877H9c1.65,0,3-1.35,3-3V3C12,1.35,10.65,0,9,0z M11,6.988c0,1.102-0.897,2-2,2H5.269
		H4.926L4.655,9.199L3.429,10.15V9.93v-1h-1C1.611,8.93,1,7.904,1,6.988V3c0-1.104,0.897-2,2-2h6c1.103,0,2,0.896,2,2V6.988z"/>
	<rect x="2.951" y="6" fill="#46ADE0" width="6" height="0.988"/>
	<rect x="2.951" y="3.045" fill="#46ADE0" width="6" height="0.988"/>
</g>
</svg>
