<?xml version="1.0" encoding="utf-8"?>
<!-- Generator: Adobe Illustrator 16.0.0, SVG Export Plug-In . SVG Version: 6.00 Build 0)  -->
<!DOCTYPE svg PUBLIC "-//W3C//DTD SVG 1.1//EN" "http://www.w3.org/Graphics/SVG/1.1/DTD/svg11.dtd">
<svg version="1.1" id="Layer_1" xmlns="http://www.w3.org/2000/svg" xmlns:xlink="http://www.w3.org/1999/xlink" x="0px" y="0px"
	 width="20px" height="20px" viewBox="0 0 20 20" enable-background="new 0 0 20 20" xml:space="preserve">
<g>
	<path fill="none" d="M6.898,1.112c0.187,0.038,0.372,0.08,0.552,0.14C7.271,1.193,7.085,1.15,6.898,1.112z"/>
	<path fill="none" d="M7.628,1.322c0.185,0.069,0.366,0.145,0.54,0.235C7.994,1.468,7.813,1.392,7.628,1.322z"/>
	<path fill="none" d="M8.279,1.623c0.194,0.108,0.383,0.226,0.559,0.358C8.66,1.85,8.475,1.73,8.279,1.623z"/>
	<path fill="none" d="M5.917,1c0.266,0.001,0.525,0.024,0.779,0.065C6.442,1.024,6.183,1.001,5.917,1z"/>
	<path fill="none" d="M3.058,1.96C3.12,1.914,3.179,1.862,3.244,1.819c-0.067,0.044-0.14,0.08-0.205,0.127
		C3.044,1.951,3.052,1.956,3.058,1.96z"/>
	<path fill="none" d="M10.397,3.997c0.015,0,0.025,0.001,0.04,0.001C10.101,3.204,9.552,2.525,8.873,2.01
		C9.542,2.523,10.063,3.211,10.397,3.997z"/>
	<path fill="none" d="M6.325,15.966c0.014-0.011,0.032-0.017,0.045-0.029l1.878-1.877l0,0L6.37,15.936
		C6.356,15.949,6.339,15.954,6.325,15.966z"/>
	<path fill="none" d="M5.663,15.936L3.786,14.06H3.785L5.663,15.936c0.014,0.014,0.031,0.02,0.047,0.03
		C5.694,15.954,5.677,15.949,5.663,15.936z"/>
	<path fill="none" d="M1.047,15.653c-0.011,0.055-0.01,0.113-0.018,0.169C1.036,15.767,1.036,15.708,1.047,15.653L1.047,15.653z"/>
	<path fill="none" d="M5.912,1C5.618,1,5.33,1.032,5.051,1.083C5.33,1.032,5.618,1,5.912,1L5.912,1z"/>
	<polygon fill="none" points="2.455,14.144 2.454,14.144 3.288,14.977 	"/>
	<path fill="none" d="M1.739,3.354c0.013-0.021,0.028-0.041,0.042-0.063C1.768,3.313,1.752,3.332,1.739,3.354z"/>
	<path fill="none" d="M1.33,4.176c0.014-0.035,0.028-0.071,0.043-0.106C1.358,4.105,1.344,4.141,1.33,4.176z"/>
	<path fill="none" d="M1.084,5.057c0.006-0.036,0.01-0.072,0.018-0.108C1.094,4.984,1.09,5.021,1.084,5.057z"/>
	<path fill="none" d="M3.465,1.683c0.161-0.096,0.33-0.179,0.502-0.256C3.795,1.503,3.626,1.587,3.465,1.683z"/>
	<path fill="none" d="M1.101,6.899c0.458,2.235,2.441,3.921,4.812,3.921l0,0C3.542,10.82,1.559,9.134,1.101,6.899z"/>
	<path fill="none" d="M4.234,1.313c0.18-0.067,0.367-0.118,0.557-0.164C4.602,1.194,4.415,1.245,4.234,1.313z"/>
	<path fill="none" d="M10.747,5.124c-0.008-0.042-0.006-0.087-0.014-0.129c-0.006,0-0.012,0-0.018,0
		C10.725,5.039,10.738,5.08,10.747,5.124z"/>
	<polygon fill="none" points="12.197,10.538 12.553,10.886 12.909,11.231 12.553,10.885 	"/>
	<path fill="none" d="M17.753,14.013c0.008-0.02,0.016-0.039,0.02-0.061c0.016-0.077,0.022-0.164,0.004-0.27v-0.001
		c0.019,0.105,0.012,0.192-0.004,0.27C17.769,13.974,17.761,13.993,17.753,14.013z"/>
	<path fill="none" d="M13.218,13.682L13.218,13.682c-0.018,0.106-0.012,0.194,0.005,0.271c0.005,0.021,0.012,0.04,0.019,0.059
		c-0.007-0.02-0.014-0.038-0.019-0.06C13.206,13.875,13.2,13.788,13.218,13.682z"/>
	<path fill="none" d="M17.638,14.173c-0.052,0.033-0.113,0.05-0.186,0.048c-0.088-0.002-0.189-0.027-0.301-0.086l-0.439-0.23
		l-1.214-0.639l-1.214,0.639l-0.439,0.23c-0.113,0.059-0.213,0.084-0.301,0.086c-0.072,0.002-0.135-0.015-0.186-0.048
		c-0.014-0.009-0.023-0.022-0.034-0.033c-0.036-0.032-0.063-0.075-0.083-0.128c0.02,0.054,0.047,0.097,0.084,0.13
		c0.011,0.01,0.02,0.023,0.032,0.031c0.052,0.033,0.114,0.051,0.187,0.049c0.088-0.002,0.188-0.027,0.301-0.086l0.439-0.23
		l1.214-0.639l1.214,0.639l0.439,0.23c0.111,0.059,0.211,0.084,0.3,0.086C17.524,14.224,17.586,14.206,17.638,14.173
		c0.014-0.008,0.022-0.021,0.033-0.032c0.036-0.032,0.063-0.075,0.082-0.128c-0.019,0.052-0.046,0.094-0.08,0.126
		C17.66,14.15,17.651,14.164,17.638,14.173z"/>
	<polygon fill="none" points="12.909,11.231 13.534,11.843 13.534,11.842 	"/>
	<path fill="none" d="M12.01,10.07c-0.044,0.133,0.016,0.3,0.188,0.468c0,0,0,0,0-0.001C12.025,10.369,11.967,10.203,12.01,10.07z"
		/>
	<polygon fill="none" points="18.086,11.231 18.443,10.886 18.799,10.538 18.443,10.885 	"/>
	<path fill="none" d="M10.095,14.406c0.035,0.022,0.063,0.053,0.096,0.077C10.157,14.459,10.13,14.429,10.095,14.406z"/>
	<path fill="none" d="M18.799,10.537C18.799,10.538,18.799,10.538,18.799,10.537L18.799,10.537c0.172-0.167,0.23-0.334,0.188-0.467
		C19.029,10.203,18.971,10.369,18.799,10.537z"/>
	<polygon fill="none" points="17.462,11.843 18.086,11.231 17.462,11.842 	"/>
	<path fill="none" d="M10.829,15.312c0.014,0.033,0.025,0.066,0.037,0.101C10.854,15.378,10.843,15.345,10.829,15.312z"/>
	<path fill="none" d="M15.498,7.537L15.498,7.537c0.025,0,0.049,0.022,0.074,0.029C15.547,7.56,15.523,7.537,15.498,7.537z"/>
	<path fill="none" d="M10.526,14.8c0.025,0.03,0.046,0.065,0.07,0.098C10.572,14.864,10.552,14.831,10.526,14.8z"/>
	<path fill="none" d="M15.111,7.861c0.041-0.084,0.09-0.137,0.139-0.188C15.2,7.721,15.152,7.777,15.111,7.861z"/>
	<path fill="#FFFFFF" d="M10.078,5.009c-4.452,0-6.763-1.444-7.792-2.381C2.1,2.833,1.932,3.057,1.781,3.291
		C1.768,3.313,1.752,3.332,1.739,3.354C1.598,3.581,1.477,3.82,1.373,4.069C1.358,4.104,1.344,4.141,1.33,4.176
		C1.234,4.425,1.156,4.682,1.102,4.948C1.094,4.984,1.09,5.021,1.084,5.057C1.033,5.334,1,5.618,1,5.911
		C1,6.25,1.035,6.58,1.101,6.899c0.458,2.234,2.441,3.921,4.812,3.921c2.709,0,4.914-2.202,4.914-4.909
		c0-0.27-0.036-0.53-0.079-0.787c-0.009-0.044-0.022-0.085-0.031-0.129C10.5,5.001,10.284,5.009,10.078,5.009z M8.164,7.382
		c0,1.24-1.009,2.248-2.251,2.248c-0.915,0-1.697-0.548-2.049-1.331c-0.127-0.28-0.201-0.59-0.201-0.918L8.164,7.382L8.164,7.382
		L8.164,7.382z"/>
	<path fill="#FFFFFF" d="M10.98,15.972c-0.008-0.196-0.053-0.382-0.114-0.56c-0.012-0.034-0.023-0.067-0.037-0.101
		c-0.061-0.148-0.141-0.286-0.232-0.414c-0.024-0.032-0.045-0.067-0.07-0.098c-0.098-0.12-0.214-0.223-0.336-0.316
		c-0.033-0.024-0.061-0.055-0.096-0.077c-0.16-0.107-0.336-0.195-0.525-0.253l-2.492,2.49c-0.281,0.282-0.658,0.438-1.061,0.438
		c-0.4,0-0.778-0.155-1.062-0.438l-1.667-1.667l-0.834-0.833c-0.708,0.203-1.257,0.783-1.407,1.51
		c-0.011,0.055-0.011,0.113-0.018,0.169C1.018,15.917,1.001,16.01,1,16.106V19h1.999h5.997h1.999v-2.889
		C10.995,16.063,10.984,16.019,10.98,15.972z"/>
	<path fill="#F9AC1E" d="M5.71,15.966c0.177,0.138,0.438,0.138,0.615,0c0.014-0.012,0.031-0.017,0.045-0.03l1.878-1.876H3.786
		l1.877,1.876C5.677,15.949,5.694,15.954,5.71,15.966z"/>
	<path fill="#F9AC1E" d="M10.397,3.997C10.063,3.211,9.542,2.523,8.873,2.01C8.861,2,8.85,1.991,8.838,1.981
		c-0.176-0.133-0.364-0.25-0.559-0.358C8.242,1.602,8.206,1.578,8.168,1.558c-0.174-0.091-0.355-0.166-0.54-0.235
		C7.568,1.3,7.511,1.272,7.45,1.252c-0.18-0.06-0.365-0.102-0.552-0.14C6.83,1.098,6.765,1.076,6.696,1.065
		C6.442,1.024,6.183,1.001,5.917,1C5.916,1,5.914,1,5.912,1C5.618,1,5.33,1.032,5.051,1.083C4.962,1.1,4.877,1.127,4.791,1.148
		C4.602,1.194,4.414,1.245,4.234,1.313C4.144,1.347,4.057,1.388,3.967,1.427c-0.172,0.077-0.341,0.16-0.502,0.256
		C3.39,1.726,3.316,1.771,3.244,1.819C3.179,1.862,3.12,1.914,3.058,1.96C4.007,2.775,6.193,4.063,10.397,3.997z"/>
	<path fill="#0079B8" d="M3.663,7.381c0,0.328,0.074,0.638,0.201,0.918C3.737,8.019,3.663,7.709,3.663,7.381l4.501,0.001V7.381
		H3.663z"/>
	<path fill="#F9AC1E" d="M18.986,10.07c-0.045-0.134-0.189-0.233-0.428-0.269l-0.49-0.07l-1.356-0.197l-0.608-1.229l-0.219-0.444
		c-0.088-0.177-0.199-0.264-0.313-0.295c-0.025-0.007-0.049-0.029-0.074-0.029c-0.053,0-0.105,0.03-0.156,0.062
		c-0.031,0.019-0.062,0.047-0.092,0.075c-0.049,0.051-0.098,0.104-0.139,0.188l-0.221,0.444l-0.606,1.229l-1.355,0.197l-0.493,0.07
		c-0.236,0.035-0.383,0.135-0.426,0.269c-0.043,0.133,0.016,0.299,0.188,0.467c0,0.001,0,0.001,0,0.001l0.355,0.347l0.356,0.347
		l0.625,0.61v0.001l0,0l-0.146,0.858l-0.086,0.49l-0.084,0.489v0.001c-0.018,0.106-0.012,0.193,0.005,0.271
		c0.005,0.021,0.012,0.04,0.019,0.06c0.02,0.053,0.047,0.096,0.083,0.128c0.011,0.011,0.021,0.024,0.034,0.033
		c0.051,0.033,0.113,0.05,0.186,0.048c0.088-0.002,0.188-0.027,0.301-0.086l0.439-0.23l1.214-0.639l1.214,0.639l0.439,0.23
		c0.111,0.059,0.213,0.084,0.301,0.086c0.072,0.002,0.134-0.015,0.186-0.048c0.014-0.009,0.022-0.022,0.035-0.034
		c0.034-0.032,0.062-0.074,0.08-0.126c0.008-0.02,0.016-0.039,0.02-0.062c0.016-0.077,0.022-0.164,0.004-0.27v-0.001l-0.084-0.489
		l-0.084-0.49l-0.146-0.858l0,0v-0.001l0.624-0.61l0.357-0.347l0.355-0.347c0,0,0,0,0-0.001
		C18.971,10.369,19.029,10.203,18.986,10.07z"/>
	<path fill="#455B65" d="M8.996,13.06H2.999c-1.649,0-3,1.349-3,2.997V19c0,0.55,0.452,1,1.001,1c0,0,0.35,0,1.999,0h5.997
		c1.648,0,1.999,0,1.999,0c0.55,0,1-0.45,1-1v-2.943C11.995,14.408,10.645,13.06,8.996,13.06z M3.785,14.06L3.785,14.06h4.463l0,0
		L6.37,15.937c-0.013,0.013-0.031,0.019-0.045,0.029c-0.178,0.138-0.438,0.138-0.615,0c-0.016-0.011-0.033-0.017-0.047-0.029
		L3.785,14.06z M8.996,19H2.999H1v-2.894c0.001-0.097,0.018-0.189,0.029-0.284c0.008-0.056,0.007-0.114,0.018-0.169l0,0
		c0.15-0.727,0.699-1.307,1.407-1.51h0.001l0.833,0.833l1.667,1.667c0.283,0.282,0.661,0.438,1.062,0.438
		c0.402,0,0.779-0.155,1.061-0.438l2.492-2.49c0.189,0.058,0.365,0.146,0.525,0.253c0.035,0.022,0.063,0.053,0.096,0.077
		c0.122,0.094,0.238,0.196,0.336,0.316c0.025,0.031,0.046,0.064,0.07,0.098c0.092,0.128,0.172,0.266,0.232,0.414
		c0.014,0.033,0.025,0.066,0.037,0.101c0.062,0.178,0.106,0.363,0.114,0.56c0.004,0.047,0.015,0.092,0.015,0.14V19H8.996z"/>
	<path fill="#455B65" d="M5.912,11.82c3.269,0,5.915-2.646,5.915-5.909C11.827,2.647,9.181,0,5.912,0
		c-1.669,0-3.174,0.694-4.25,1.808L1.594,1.851c0.002,0.003,0.01,0.014,0.013,0.02C0.613,2.927-0.001,4.347-0.001,5.911
		C-0.001,9.174,2.647,11.82,5.912,11.82z M10.747,5.124c0.043,0.257,0.079,0.518,0.079,0.787c0,2.707-2.205,4.909-4.914,4.909l0,0
		c-2.37,0-4.354-1.686-4.812-3.921C1.035,6.58,1,6.25,1,5.911c0-0.293,0.033-0.577,0.084-0.854c0.006-0.036,0.01-0.072,0.018-0.108
		C1.156,4.682,1.234,4.425,1.33,4.176c0.014-0.035,0.028-0.07,0.043-0.106C1.477,3.82,1.598,3.581,1.739,3.354
		c0.013-0.021,0.028-0.041,0.042-0.063C1.932,3.057,2.1,2.833,2.286,2.628c1.029,0.937,3.34,2.381,7.792,2.381
		c0.206,0,0.422-0.008,0.638-0.014c0.006,0,0.012,0,0.018,0C10.741,5.037,10.739,5.082,10.747,5.124z M3.465,1.683
		c0.161-0.096,0.33-0.18,0.502-0.256c0.09-0.039,0.177-0.08,0.268-0.114c0.181-0.067,0.367-0.118,0.557-0.164
		C4.877,1.127,4.962,1.1,5.051,1.083C5.33,1.032,5.618,1,5.912,1l0,0c0.002,0,0.004,0,0.005,0c0.266,0.001,0.525,0.024,0.779,0.065
		C6.765,1.076,6.83,1.098,6.898,1.112C7.085,1.15,7.271,1.193,7.45,1.252C7.511,1.272,7.568,1.3,7.628,1.322
		c0.185,0.069,0.366,0.146,0.54,0.235c0.038,0.021,0.074,0.044,0.111,0.065C8.475,1.73,8.66,1.85,8.838,1.981
		C8.85,1.991,8.861,2,8.873,2.01c0.679,0.516,1.228,1.194,1.564,1.988c-0.015,0-0.025-0.001-0.04-0.001
		C6.193,4.063,4.007,2.775,3.058,1.96C3.052,1.956,3.044,1.951,3.039,1.946c0.065-0.047,0.138-0.083,0.205-0.127
		C3.316,1.771,3.39,1.726,3.465,1.683z"/>
	<path fill="#229DD3" d="M3.864,8.299C4.216,9.082,4.998,9.63,5.913,9.63c1.242,0,2.251-1.008,2.251-2.248l0,0H3.663
		C3.663,7.709,3.737,8.019,3.864,8.299z"/>
	<path fill="#455B65" d="M19.938,9.762c-0.165-0.505-0.626-0.859-1.233-0.948l-0.494-0.072L17.376,8.62l-0.375-0.758l-0.219-0.444
		c-0.271-0.55-0.751-0.881-1.284-0.881c-0.531,0-1.012,0.33-1.286,0.882l-0.219,0.443L13.62,8.62l-0.836,0.121l-0.491,0.071
		c-0.611,0.09-1.07,0.444-1.234,0.95c-0.164,0.504,0,1.063,0.439,1.49l0.355,0.348l0.357,0.348l0.248,0.242L12.4,12.532
		l-0.084,0.488l-0.084,0.49c-0.002,0.013-0.004,0.025-0.006,0.038c-0.072,0.473,0.035,0.905,0.303,1.221
		c0.245,0.29,0.61,0.456,1.001,0.456c0.258,0,0.521-0.068,0.779-0.205l0.44-0.23l0.748-0.394l0.747,0.394l0.441,0.23
		c0.258,0.137,0.52,0.205,0.777,0.205c0.393,0,0.759-0.166,1.003-0.457c0.268-0.316,0.375-0.75,0.303-1.223
		c-0.002-0.012-0.004-0.023-0.006-0.035l-0.084-0.488l-0.086-0.492l-0.057-0.34l0.248-0.244l0.355-0.344l0.355-0.348
		c0.002-0.002,0.004-0.004,0.006-0.006C19.938,10.82,20.101,10.265,19.938,9.762z M18.799,10.538L18.799,10.538l-0.355,0.348
		l-0.357,0.346l-0.624,0.611l0,0l0.146,0.858l0.084,0.49l0.084,0.489v0.001v0.001c0.019,0.105,0.012,0.192-0.004,0.27
		c-0.004,0.021-0.012,0.041-0.02,0.061c-0.019,0.053-0.046,0.096-0.082,0.128c-0.011,0.011-0.02,0.024-0.033,0.033
		c-0.052,0.032-0.113,0.05-0.187,0.048c-0.089-0.002-0.188-0.027-0.3-0.086l-0.439-0.23l-1.214-0.639l-1.214,0.639l-0.439,0.23
		c-0.113,0.059-0.213,0.084-0.301,0.086c-0.072,0.002-0.135-0.016-0.187-0.049c-0.013-0.008-0.021-0.021-0.032-0.031
		c-0.037-0.033-0.064-0.076-0.084-0.13c-0.007-0.019-0.014-0.037-0.019-0.059c-0.017-0.077-0.022-0.165-0.005-0.271v-0.001v-0.001
		l0.084-0.489l0.086-0.49l0.146-0.858l0,0l-0.625-0.611l-0.356-0.346l-0.355-0.348c-0.172-0.168-0.231-0.335-0.188-0.468
		c0.043-0.134,0.189-0.233,0.426-0.269l0.493-0.07l1.355-0.197l0.606-1.229l0.221-0.444c0.041-0.084,0.089-0.141,0.139-0.188
		c0.03-0.028,0.061-0.057,0.092-0.075c0.051-0.031,0.104-0.062,0.156-0.062l0,0c0.025,0,0.049,0.022,0.074,0.029
		c0.113,0.031,0.225,0.118,0.313,0.295l0.219,0.444l0.608,1.229l1.356,0.197l0.49,0.07c0.238,0.035,0.383,0.135,0.428,0.269
		C19.029,10.203,18.971,10.37,18.799,10.538z"/>
</g>
</svg>
