<?xml version="1.0" encoding="utf-8"?>
<!-- Generator: Adobe Illustrator 15.0.0, SVG Export Plug-In . SVG Version: 6.00 Build 0)  -->
<!DOCTYPE svg PUBLIC "-//W3C//DTD SVG 1.1//EN" "http://www.w3.org/Graphics/SVG/1.1/DTD/svg11.dtd">
<svg version="1.1" id="Layer_1" xmlns="http://www.w3.org/2000/svg" xmlns:xlink="http://www.w3.org/1999/xlink" x="0px" y="0px"
	 width="20px" height="20px" viewBox="0 0 20 20" enable-background="new 0 0 20 20" xml:space="preserve">
<g fill="#DCF3FC">
	<circle cx="5.669" cy="8.567" r="1.144"/>
	<circle cx="4" cy="2.974" r="1"/>
	<rect x="6" y="2.474" width="8.902" height="1"/>
	<path d="M19.938,14.536c-0.164-0.505-0.625-0.859-1.232-0.949l-0.493-0.07L18,13.485V1.999C18,0.899,17.1,0,16,0H2
		C1.5,0,1.048,0.191,0.696,0.497H0.693v0.002C0.272,0.866,0,1.4,0,1.999v14c0,1.1,0.9,2,2,2h10.285l-0.049,0.286
		c-0.002,0.013-0.004,0.025-0.006,0.038c-0.071,0.473,0.035,0.905,0.303,1.221c0.245,0.29,0.61,0.456,1.001,0.456
		c0.258,0,0.521-0.07,0.779-0.206l0.438-0.229l0.748-0.395l0.747,0.393l0.44,0.232C16.945,19.93,17.208,20,17.466,20
		c0.392,0,0.757-0.167,1.002-0.457c0.268-0.316,0.374-0.75,0.302-1.224c-0.002-0.012-0.004-0.022-0.006-0.034l-0.084-0.489
		l-0.085-0.491l-0.058-0.339l0.249-0.244l0.354-0.346l0.356-0.348c0.002-0.002,0.004-0.003,0.006-0.005
		C19.938,15.595,20.101,15.039,19.938,14.536z M1,1.999c0-0.551,0.449-1,1-1h14c0.551,0,1,0.449,1,1v2.975H1V1.999z M12.458,16.999
		H2c-0.551,0-1-0.449-1-1V5.974h16v6.658l-0.217-0.439c-0.271-0.551-0.75-0.881-1.283-0.881c-0.321,0-0.617,0.133-0.867,0.351
		l-1.995-3.245c-0.442-0.719-1.187-0.732-1.651-0.025l-1.766,2.686c-0.463,0.707-1.382,0.859-2.039,0.338l-0.219-0.172
		c-0.658-0.52-1.605-0.389-2.105,0.293l-1.628,2.215c-0.501,0.682-0.228,1.238,0.603,1.238h7.178
		c0.018,0.367,0.183,0.735,0.493,1.039l0.354,0.346l0.358,0.35l0.248,0.242L12.458,16.999z M18.8,15.312
		c0,0.002,0,0.002-0.001,0.002l-0.355,0.346l-0.356,0.348l-0.624,0.609l0.146,0.859l0.085,0.49l0.015,0.085l0.069,0.403
		c0,0.002,0,0.002,0,0.002c0.019,0.106,0.012,0.193-0.004,0.271c-0.005,0.022-0.013,0.042-0.02,0.062
		c-0.019,0.051-0.046,0.094-0.082,0.127c-0.011,0.011-0.021,0.024-0.034,0.033c-0.051,0.033-0.113,0.05-0.186,0.048
		c-0.089-0.002-0.188-0.027-0.301-0.087l-0.439-0.23L15.5,18.041l-1.213,0.638l-0.439,0.23c-0.112,0.06-0.212,0.085-0.301,0.087
		c-0.072,0.002-0.135-0.015-0.186-0.048c-0.014-0.009-0.021-0.021-0.033-0.032c-0.036-0.033-0.064-0.077-0.084-0.13
		c-0.006-0.019-0.014-0.037-0.018-0.059c-0.017-0.077-0.022-0.164-0.005-0.271c0,0,0,0,0-0.002l0.084-0.488l0.085-0.49l0.147-0.859
		l-0.625-0.609l-0.356-0.348l-0.355-0.346c0,0,0,0,0-0.002c-0.344-0.335-0.235-0.665,0.239-0.734l0.491-0.071l1.355-0.197
		l0.606-1.229l0.22-0.444c0.066-0.134,0.146-0.212,0.23-0.263c0.052-0.031,0.104-0.062,0.156-0.062c0.141,0,0.28,0.108,0.387,0.324
		l0.22,0.444l0.606,1.229l1.356,0.197l0.49,0.071C19.034,14.646,19.143,14.977,18.8,15.312z"/>
	<path d="M17.466,18.192c0.067,0,0.124-0.021,0.173-0.053c-0.051,0.033-0.113,0.051-0.186,0.049
		C17.457,18.188,17.462,18.192,17.466,18.192z"/>
</g>
</svg>
