<?xml version="1.0" encoding="utf-8"?>
<!-- Generator: Adobe Illustrator 15.0.0, SVG Export Plug-In . SVG Version: 6.00 Build 0)  -->
<!DOCTYPE svg PUBLIC "-//W3C//DTD SVG 1.1//EN" "http://www.w3.org/Graphics/SVG/1.1/DTD/svg11.dtd">
<svg version="1.1" id="Layer_1" xmlns="http://www.w3.org/2000/svg" xmlns:xlink="http://www.w3.org/1999/xlink" x="0px" y="0px"
	 width="20px" height="20px" viewBox="0 0 20 20" enable-background="new 0 0 20 20" xml:space="preserve">
<path fill="#DCF3FC" d="M19.537,16.54c0,0-0.788-0.426-2.313-1.969c-0.323-0.33-0.715-0.878-1-1.299c1.033-1.489,1.629-3.087,1.635-4.66
	c0.236-0.072,0.449-0.203,0.609-0.392C18.736,7.904,18.843,7.472,18.77,7c-0.002-0.012-0.004-0.023-0.006-0.035l-0.085-0.487
	l-0.082-0.491l-0.059-0.338l0.249-0.244l0.354-0.344l0.357-0.347c0.002-0.002,0.004-0.004,0.006-0.006
	c0.434-0.427,0.597-0.982,0.432-1.483c-0.163-0.505-0.624-0.857-1.231-0.947l-0.492-0.071l-0.837-0.122l-0.372-0.755l-0.22-0.443
	c-0.27-0.55-0.75-0.88-1.283-0.88c-0.53,0-1.011,0.33-1.282,0.881L14,1.328l-0.375,0.756L13.59,2.09
	c-1.741-1.209-3.772-2.089-5.843-2.089c-1.821,0-3.668,0.674-5.357,2.388c-2.875,2.919-2.814,6.227-1.565,9.112
	c-0.236,0.389-0.421,0.805-0.556,1.24c-0.152,0.483-0.24,0.989-0.256,1.505L0,14.682l0.013,0.001
	c0.025,0.51,0.125,1.022,0.299,1.528c0.013,0.036,0.021,0.073,0.032,0.109c0.396,1.087,1.102,1.97,1.974,2.603l0.001,0.011
	c0.022,0.017,0.047,0.031,0.069,0.047c0.041,0.027,0.083,0.052,0.123,0.079c0.185,0.122,0.374,0.233,0.57,0.332
	c0.035,0.019,0.07,0.039,0.105,0.057c0.219,0.103,0.442,0.191,0.673,0.267l0.013,0.004l0.105,0.035l0.221,0.074l0.004-0.01
	c0.17,0.045,0.344,0.079,0.52,0.108c0.016,0.003,0.03,0.007,0.046,0.01c0.247,0.038,0.497,0.053,0.749,0.057
	c0.03,0,0.061,0.008,0.09,0.008c0.024,0,0.052-0.008,0.076-0.008c0.004,0,0.006,0,0.009,0c0.608-0.009,1.227-0.112,1.831-0.332
	c0.624-0.226,1.176-0.557,1.659-0.956c0.291-0.241,0.556-0.511,0.79-0.801c1.195-0.279,2.38-0.879,3.494-1.737
	c0.422,0.274,0.941,0.639,1.25,0.95c1.521,1.542,1.912,2.4,1.912,2.4c0.135,0.295,0.36,0.449,0.604,0.449
	c0.174,0,0.357-0.08,0.521-0.247l1.959-1.985C20.102,17.341,20.022,16.803,19.537,16.54z M12.447,3.265l0.49-0.071l1.354-0.197
	l0.607-1.226l0.219-0.442c0.066-0.136,0.146-0.213,0.231-0.264c0.052-0.03,0.103-0.061,0.156-0.061c0.141,0,0.28,0.107,0.386,0.324
	l0.221,0.442l0.605,1.226l1.356,0.197l0.49,0.071c0.475,0.069,0.582,0.398,0.24,0.733c0,0.001,0,0.001-0.002,0.001l-0.355,0.346
	l-0.355,0.347l-0.625,0.609l0.146,0.857l0.086,0.489l0.084,0.487c0,0.001,0,0.002,0,0.002c0.018,0.105,0.012,0.192-0.004,0.269
	c-0.005,0.022-0.013,0.042-0.02,0.061c-0.02,0.053-0.047,0.096-0.082,0.129c-0.012,0.01-0.021,0.023-0.035,0.032
	c-0.051,0.033-0.113,0.05-0.186,0.048c-0.088-0.003-0.188-0.027-0.301-0.086l-0.438-0.23l-1.213-0.637l-1.213,0.637l-0.438,0.23
	c-0.111,0.059-0.211,0.083-0.3,0.086c-0.073,0.002-0.136-0.015-0.187-0.048c-0.013-0.009-0.021-0.021-0.033-0.032
	c-0.035-0.033-0.064-0.076-0.083-0.129c-0.007-0.02-0.015-0.037-0.019-0.059c-0.016-0.078-0.022-0.164-0.004-0.271
	c0,0,0-0.001,0-0.002l0.084-0.487l0.084-0.489l0.148-0.857L12.92,4.691l-0.357-0.347l-0.355-0.346c0,0,0,0,0-0.001
	C11.863,3.663,11.972,3.334,12.447,3.265z M4.782,12.859l-0.966,1.433l-1.813-0.053l-0.811-1.068
	c0.293-1.036,0.945-1.952,1.866-2.569l1.016,0.317L4.782,12.859z M4.534,10.721l0.611-0.868c0.155-0.017,0.31-0.041,0.467-0.041
	c1.058,0,2.051,0.376,2.848,1.005l0.017,0.965l-1.563,1.386l-1.661-0.476L4.534,10.721z M4.338,17.838L3.12,18.255
	c-0.823-0.532-1.481-1.316-1.832-2.275c-0.026-0.071-0.032-0.146-0.056-0.218l0.723-1.023l1.892,0.054l1.053,1.359L4.338,17.838z
	 M7.184,18.724c-0.508,0.185-1.038,0.279-1.573,0.279c-0.055,0-0.106-0.011-0.16-0.013l-0.674-0.89l0.605-1.816l1.616-0.588
	l1.672,1.027l0.019,1.097C8.256,18.209,7.749,18.519,7.184,18.724z M9.987,15.771l-1.23,0.42l-1.476-0.905l-0.066-1.717l1.583-1.404
	l0.971,0.304c0.057,0.122,0.121,0.239,0.168,0.368C10.286,13.795,10.288,14.813,9.987,15.771z M10.754,16.611
	c0.126-0.292,0.229-0.592,0.304-0.902c0.209-0.863,0.215-1.785-0.02-2.691c-0.043-0.164-0.094-0.328-0.152-0.491
	c-0.004-0.01-0.006-0.021-0.01-0.031c-0.092-0.254-0.206-0.492-0.33-0.724c-0.027-0.053-0.056-0.104-0.085-0.155
	c-0.118-0.205-0.243-0.402-0.384-0.587l0.012-0.011l-0.332-0.373H9.756c-0.077-0.084-0.157-0.162-0.239-0.24
	c-0.037-0.037-0.074-0.075-0.113-0.111c-0.182-0.165-0.371-0.319-0.571-0.459C8.791,9.807,8.747,9.78,8.706,9.754
	c-0.037-0.024-0.073-0.05-0.11-0.073L8.588,9.685C7.703,9.129,6.675,8.813,5.612,8.813c-0.04,0-0.08,0.01-0.121,0.011L5.489,8.82
	C5.228,8.826,4.965,8.849,4.702,8.893C4.657,8.9,4.614,8.911,4.569,8.919C4.276,8.975,3.985,9.048,3.696,9.152
	C3.098,9.37,2.563,9.683,2.094,10.06c-0.203,0.165-0.393,0.342-0.569,0.529C0.672,8.316,0.627,5.604,3.107,3.088
	c1.367-1.386,2.93-2.09,4.645-2.09c1.369,0,2.88,0.481,4.355,1.332c-0.509,0.131-0.893,0.448-1.038,0.895
	c-0.164,0.504,0.002,1.061,0.44,1.488l0.354,0.346l0.359,0.347l0.248,0.243l-0.059,0.34l-0.086,0.487l-0.084,0.489
	c-0.002,0.014-0.004,0.025-0.006,0.039c-0.07,0.472,0.035,0.902,0.303,1.219c0.246,0.288,0.611,0.454,1.002,0.454
	c0.258,0,0.52-0.068,0.778-0.205l0.438-0.229l0.748-0.393l0.413,0.216l0.335,0.176l0.439,0.23c0.053,0.028,0.106,0.04,0.159,0.063
	c0.015,2.09-1.193,4.163-2.756,5.748C13.028,15.366,11.888,16.15,10.754,16.611z M17.332,18.719
	c-0.268-0.435-0.829-1.227-1.906-2.317c-0.304-0.309-0.747-0.635-1.155-0.91c0.182-0.166,0.362-0.33,0.537-0.508
	c0.279-0.283,0.535-0.574,0.781-0.87c0.285,0.407,0.624,0.861,0.934,1.175c1.106,1.122,1.866,1.7,2.255,1.965L17.332,18.719z"/>
</svg>
