<?xml version="1.0" encoding="utf-8"?>
<!-- Generator: Adobe Illustrator 15.0.0, SVG Export Plug-In . SVG Version: 6.00 Build 0)  -->
<!DOCTYPE svg PUBLIC "-//W3C//DTD SVG 1.1//EN" "http://www.w3.org/Graphics/SVG/1.1/DTD/svg11.dtd">
<svg version="1.1" id="Layer_1" xmlns="http://www.w3.org/2000/svg" xmlns:xlink="http://www.w3.org/1999/xlink" x="0px" y="0px"
	 width="20px" height="20px" viewBox="0 0 20 20" enable-background="new 0 0 20 20" xml:space="preserve">
	 <g fill="#DCF3FC">
<path d="M10.008,10.136c-0.017-0.077-0.023-0.164-0.005-0.271C9.983,9.972,9.991,10.059,10.008,10.136z"/>
<path d="M10.044,10.065c-0.038-0.033-0.067-0.078-0.088-0.131C9.977,9.989,10.005,10.032,10.044,10.065z"/>
<path d="M10.084,10.026c0.004,0,0.009-0.004,0.013-0.004c-0.075,0.002-0.141-0.016-0.193-0.049
	C9.954,10.005,10.013,10.026,10.084,10.026z"/>
<path d="M10.082,9.97c-0.056,0-0.109,0.029-0.164,0.061C9.973,9.999,10.026,9.97,10.082,9.97L10.082,9.97z"/>
<path d="M9.916,10.026c0.07,0,0.13-0.021,0.181-0.053c-0.053,0.033-0.118,0.051-0.193,0.049C9.907,10.022,9.912,10.026,9.916,10.026
	z"/>
<path d="M10.043,9.937c-0.02,0.051-0.048,0.094-0.086,0.127C9.995,10.03,10.023,9.988,10.043,9.937z"/>
<path d="M9.996,9.864c0.02,0.107,0.012,0.193-0.004,0.271C10.009,10.058,10.015,9.972,9.996,9.864z"/>
</g>
<g fill="#DCF3FC">
	<path d="M19.793,19.22l-2.878-3.434c-0.36-0.429-1.126-0.779-1.702-0.779h-2.544c1.563-1.927,3.335-4.527,3.908-6.994
		c0.04-0.154,0.075-0.311,0.103-0.469c0.012-0.069,0.024-0.14,0.034-0.21c0.041-0.287,0.069-0.575,0.069-0.874
		c0-3.567-3.047-6.46-6.805-6.46S3.176,2.893,3.176,6.46c0,0.299,0.027,0.589,0.069,0.874c0.009,0.07,0.021,0.141,0.033,0.208
		c0.028,0.16,0.063,0.316,0.103,0.473c0.574,2.467,2.345,5.065,3.907,6.992H4.745c-0.575,0-1.341,0.351-1.701,0.779L0.166,19.22
		C-0.193,19.648-0.017,20,0.559,20h8.374c0.575,0,1.518,0,2.093,0H19.4C19.976,20,20.153,19.648,19.793,19.22z M4.398,7.777
		c-0.035-0.132-0.063-0.264-0.088-0.4C4.3,7.32,4.291,7.265,4.281,7.195C4.241,6.923,4.223,6.683,4.223,6.46
		c0-3.012,2.581-5.461,5.756-5.461c3.176,0,5.758,2.449,5.758,5.461c0,0.219-0.018,0.452-0.058,0.735l-0.033,0.19
		c-0.022,0.132-0.054,0.264-0.09,0.41c-0.788,3.38-4.084,7.148-5.577,8.721C8.486,14.944,5.191,11.172,4.398,7.777z M11.025,19.001
		H8.933L1.689,19l2.173-2.591c0.162-0.193,0.623-0.403,0.883-0.403h3.381c1.051,1.204,1.853,1.97,1.853,1.97s0.803-0.766,1.853-1.97
		h3.382c0.26,0,0.722,0.21,0.884,0.403l2.173,2.592H11.025z"/>
	<path d="M10.762,10.37l0.461,0.232c0.269,0.135,0.545,0.204,0.814,0.204c0.41,0,0.792-0.167,1.049-0.456
		c0.28-0.316,0.392-0.749,0.316-1.223c-0.002-0.012-0.005-0.022-0.007-0.034l-0.088-0.488l-0.09-0.49l-0.06-0.339l0.261-0.244
		l0.372-0.345l0.372-0.348c0.003-0.002,0.005-0.003,0.007-0.005c0.456-0.428,0.625-0.982,0.455-1.484
		c-0.172-0.505-0.654-0.858-1.29-0.948l-0.518-0.07L11.943,4.21l-0.39-0.756L11.322,3.01c-0.283-0.55-0.784-0.88-1.344-0.88
		c-0.555,0-1.058,0.33-1.345,0.882L8.404,3.453L8.015,4.21L7.141,4.332l-0.514,0.07c-0.641,0.09-1.12,0.444-1.294,0.948
		C5.162,5.855,5.335,6.411,5.795,6.84l0.371,0.346L6.54,7.534l0.261,0.242L6.74,8.116L6.651,8.604L6.563,9.094
		C6.561,9.106,6.558,9.119,6.556,9.132c-0.074,0.473,0.036,0.904,0.317,1.22c0.258,0.289,0.639,0.455,1.048,0.455
		c0.27,0,0.546-0.069,0.815-0.206l0.459-0.229l0.783-0.394L10.762,10.37z M8.709,9.487L8.25,9.717
		c-0.119,0.06-0.223,0.085-0.316,0.087c-0.004,0-0.01,0.004-0.013,0.004c-0.071,0-0.13-0.021-0.181-0.052
		C7.726,9.747,7.719,9.734,7.705,9.724C7.667,9.69,7.639,9.647,7.618,9.595c-0.006-0.019-0.016-0.037-0.02-0.059
		C7.582,9.459,7.574,9.372,7.595,9.265c0,0,0,0,0-0.002l0.087-0.487l0.09-0.49l0.152-0.857L7.271,6.818L6.897,6.472L6.525,6.126
		c0,0,0,0,0-0.002C6.166,5.79,6.28,5.46,6.775,5.391l0.516-0.07l1.418-0.197l0.636-1.227l0.229-0.444
		C9.644,3.318,9.727,3.24,9.815,3.19c0.054-0.031,0.107-0.062,0.163-0.062l0,0c0.147,0,0.294,0.107,0.406,0.323l0.229,0.444
		l0.636,1.227l1.42,0.197l0.514,0.07c0.495,0.069,0.61,0.399,0.251,0.733c0,0.002,0,0.002-0.001,0.002l-0.372,0.346l-0.374,0.347
		l-0.652,0.609l0.152,0.857l0.09,0.49l0.087,0.487c0,0.002,0,0.002,0,0.002c0.02,0.106,0.015,0.193-0.004,0.271
		c-0.004,0.022-0.014,0.042-0.021,0.062c-0.02,0.051-0.048,0.093-0.085,0.126c-0.011,0.011-0.021,0.024-0.036,0.033
		c-0.051,0.031-0.11,0.052-0.181,0.052c-0.004,0-0.009-0.004-0.013-0.004c-0.094-0.002-0.197-0.027-0.316-0.087l-0.459-0.229
		L9.979,8.851L8.709,9.487z"/>
</g>
</svg>
