<?xml version="1.0" encoding="utf-8"?>
<!-- Generator: Adobe Illustrator 16.0.0, SVG Export Plug-In . SVG Version: 6.00 Build 0)  -->
<!DOCTYPE svg PUBLIC "-//W3C//DTD SVG 1.1//EN" "http://www.w3.org/Graphics/SVG/1.1/DTD/svg11.dtd">
<svg version="1.1" id="Layer_1" xmlns="http://www.w3.org/2000/svg" xmlns:xlink="http://www.w3.org/1999/xlink" x="0px" y="0px"
	 width="20px" height="20px" viewBox="0 0 20 20" enable-background="new 0 0 20 20" xml:space="preserve">
<g>
	<path fill="none" d="M15.593,1.04c-0.031-0.012-0.063-0.037-0.094-0.037c-0.047,0-0.094,0.03-0.14,0.056
		C15.437,1.017,15.515,1.013,15.593,1.04z"/>
	<path fill="none" d="M17.779,7.137c0.018,0.105,0.012,0.191-0.004,0.269C17.791,7.328,17.796,7.242,17.779,7.137z"/>
	<path fill="#FFFFFF" d="M14.265,15.49c0.408,0.276,0.852,0.603,1.156,0.91c1.076,1.092,1.639,1.885,1.906,2.318l1.445-1.467
		c-0.389-0.263-1.148-0.842-2.256-1.965c-0.31-0.313-0.648-0.768-0.934-1.174c-0.246,0.295-0.502,0.587-0.781,0.87
		C14.626,15.16,14.447,15.325,14.265,15.49z"/>
	<path fill="#FF4081" d="M13.535,7.68c0.004,0,0.01-0.004,0.014-0.004c-0.073,0.002-0.136-0.016-0.188-0.049
		C13.41,7.659,13.466,7.68,13.535,7.68z"/>
	<path fill="#FF4081" d="M13.328,7.595c-0.036-0.033-0.064-0.076-0.083-0.129C13.264,7.519,13.291,7.562,13.328,7.595z"/>
	<path fill="#229DD3" d="M4.559,8.92C4.605,8.911,4.65,8.9,4.695,8.893C4.958,8.849,5.22,8.826,5.481,8.82l0.003,0.004
		c0.039-0.001,0.08-0.011,0.119-0.011c1.064,0,2.092,0.316,2.977,0.871l0.008-0.003c0.037,0.023,0.074,0.048,0.11,0.071
		C8.74,9.78,8.783,9.807,8.826,9.835c0.199,0.141,0.39,0.294,0.57,0.46c0.039,0.035,0.075,0.073,0.113,0.109
		c0.081,0.079,0.162,0.158,0.239,0.242l0.001-0.001l0.332,0.372l-0.012,0.011c0.141,0.186,0.266,0.384,0.384,0.589
		c0.029,0.051,0.057,0.102,0.085,0.154c0.123,0.231,0.238,0.47,0.33,0.724c0.004,0.011,0.006,0.021,0.01,0.032
		c0.059,0.162,0.109,0.326,0.152,0.491l4.881-4.953L15.5,7.849l-0.748,0.395l-0.438,0.229c-0.26,0.137-0.521,0.206-0.779,0.206
		c-0.391,0-0.756-0.166-1.002-0.456c-0.268-0.314-0.373-0.747-0.303-1.219c0.002-0.012,0.004-0.025,0.006-0.037l0.084-0.489
		l0.086-0.488l0.059-0.34l-0.248-0.242l-0.359-0.348l-0.354-0.346c-0.439-0.428-0.605-0.984-0.441-1.488
		c0.145-0.445,0.53-0.764,1.038-0.895c-1.476-0.851-2.986-1.332-4.356-1.332c-1.716,0-3.278,0.703-4.646,2.09
		c-2.481,2.518-2.437,5.229-1.584,7.503c0.177-0.188,0.367-0.365,0.57-0.529C2.552,9.684,3.087,9.37,3.687,9.153
		C3.975,9.048,4.267,8.976,4.559,8.92z"/>
	<path fill="#FF4081" d="M13.226,7.407c-0.016-0.077-0.021-0.164-0.004-0.271C13.205,7.243,13.21,7.33,13.226,7.407z"/>
	<path fill="#FFFFFF" d="M16.248,8.242l-0.336-0.177l-4.881,4.953c0.233,0.906,0.229,1.826,0.02,2.69
		c-0.074,0.311-0.178,0.611-0.304,0.902c1.135-0.461,2.275-1.245,3.343-2.328c1.563-1.585,2.771-3.658,2.756-5.748
		C16.792,8.513,16.74,8.5,16.687,8.473L16.248,8.242z"/>
	<path fill="#F9AC1E" d="M12.931,3.194l-0.49,0.07c-0.475,0.07-0.584,0.399-0.24,0.733c0,0.001,0,0.001,0,0.001l0.355,0.347
		l0.357,0.346l0.625,0.609L13.39,6.157l-0.084,0.489l-0.084,0.488c0,0.001,0,0.002,0,0.002c-0.018,0.106-0.012,0.193,0.004,0.271
		c0.004,0.021,0.012,0.04,0.019,0.059c0.019,0.053,0.047,0.096,0.083,0.129c0.012,0.011,0.021,0.024,0.033,0.032
		c0.052,0.033,0.114,0.051,0.188,0.049c0.087-0.002,0.187-0.028,0.299-0.087l0.439-0.23L15.5,6.723l1.213,0.636l0.439,0.23
		c0.111,0.059,0.212,0.084,0.301,0.087c0.072,0.002,0.136-0.016,0.188-0.049c0.012-0.008,0.021-0.021,0.032-0.031
		c0.036-0.033,0.063-0.076,0.083-0.129c0.007-0.02,0.015-0.039,0.02-0.062c0.016-0.077,0.021-0.163,0.004-0.269c0,0,0-0.001,0-0.002
		l-0.084-0.488l-0.086-0.489l-0.146-0.856l0.625-0.609l0.355-0.346l0.355-0.347c0.002,0,0.002,0,0.002-0.001
		c0.342-0.334,0.234-0.663-0.24-0.733l-0.49-0.07l-1.357-0.197l-0.605-1.226l-0.221-0.444c-0.082-0.166-0.186-0.249-0.293-0.287
		c-0.078-0.027-0.156-0.023-0.233,0.019c-0.09,0.049-0.177,0.127-0.247,0.269l-0.219,0.444l-0.607,1.226L12.931,3.194z"/>
	<path fill="#FFFFFF" d="M6.989,15.696l-1.616,0.587l-0.604,1.818l0.673,0.889c0.055,0.002,0.106,0.013,0.161,0.013
		c0.535,0,1.065-0.094,1.575-0.279c0.564-0.204,1.07-0.515,1.504-0.903l-0.02-1.097L6.989,15.696z"/>
	<path fill="#FFFFFF" d="M6.907,13.167l1.561-1.385l-0.017-0.966c-0.796-0.629-1.789-1.005-2.847-1.005
		c-0.157,0-0.312,0.025-0.468,0.041l-0.61,0.868l0.719,1.97L6.907,13.167z"/>
	<path fill="#FFFFFF" d="M9.929,12.836c-0.047-0.129-0.111-0.246-0.168-0.368l-0.971-0.305l-1.585,1.405l0.067,1.717l1.477,0.906
		l1.229-0.421C10.281,14.813,10.279,13.794,9.929,12.836z"/>
	<path fill="#FFFFFF" d="M4.89,16.151l-1.053-1.359l-1.894-0.054l-0.722,1.024c0.022,0.072,0.029,0.146,0.055,0.217
		c0.35,0.959,1.009,1.743,1.833,2.275l1.219-0.416L4.89,16.151z"/>
	<path fill="#FFFFFF" d="M3.806,14.292l0.967-1.433l-0.707-1.94l-1.017-0.317c-0.921,0.617-1.573,1.534-1.866,2.57l0.811,1.068
		L3.806,14.292z"/>
	<path fill="#455B65" d="M19.537,16.541c0,0-0.789-0.428-2.313-1.97c-0.323-0.329-0.715-0.878-1.001-1.3
		c1.034-1.488,1.628-3.085,1.636-4.659c0.235-0.072,0.449-0.202,0.609-0.391C18.736,7.905,18.841,7.473,18.769,7
		c-0.002-0.012-0.004-0.022-0.006-0.034l-0.084-0.488l-0.084-0.49l-0.059-0.339l0.25-0.244l0.354-0.344l0.357-0.347
		c0.002-0.002,0.004-0.003,0.006-0.005c0.436-0.429,0.598-0.982,0.434-1.485s-0.625-0.857-1.232-0.946l-0.492-0.071l-0.836-0.121
		l-0.373-0.756l-0.221-0.444c-0.27-0.549-0.75-0.88-1.283-0.88c-0.531,0-1.012,0.33-1.283,0.882l-0.219,0.442l-0.375,0.756
		L13.587,2.09C11.846,0.881,9.814,0,7.743,0C5.921,0,4.074,0.675,2.384,2.389c-2.878,2.919-2.817,6.229-1.565,9.113
		c-0.235,0.388-0.421,0.804-0.558,1.237c-0.15,0.479-0.238,0.978-0.256,1.486c-0.005,0.152-0.007,0.305,0,0.457
		c0.025,0.51,0.126,1.022,0.299,1.527c0.012,0.037,0.02,0.074,0.033,0.11c0.396,1.088,1.102,1.97,1.974,2.603v0.011
		c0.022,0.017,0.047,0.029,0.069,0.046c0.042,0.028,0.085,0.054,0.127,0.082c0.182,0.12,0.369,0.229,0.563,0.328
		c0.038,0.02,0.074,0.041,0.112,0.059c0.219,0.104,0.446,0.193,0.678,0.269c0.001,0.001,0.002,0.001,0.003,0.001
		c0.11,0.036,0.221,0.071,0.333,0.101c0.17,0.044,0.34,0.08,0.514,0.107c0.018,0.003,0.035,0.008,0.053,0.011
		c0.246,0.037,0.494,0.053,0.746,0.058c0.057,0.001,0.114,0.001,0.172,0c0.002,0,0.004,0,0.006,0v-0.001
		c0.609-0.009,1.228-0.111,1.832-0.332c0.623-0.226,1.176-0.556,1.658-0.955c0.293-0.242,0.557-0.511,0.791-0.802
		c1.195-0.278,2.381-0.878,3.494-1.737c0.422,0.274,0.943,0.639,1.252,0.95c1.521,1.544,1.912,2.399,1.912,2.399
		c0.135,0.295,0.361,0.45,0.605,0.45c0.174,0,0.357-0.08,0.521-0.245l1.959-1.988C20.101,17.34,20.023,16.803,19.537,16.541z
		 M12.441,3.265l0.49-0.07l1.355-0.197l0.607-1.226l0.219-0.444c0.07-0.142,0.157-0.22,0.247-0.269
		c0.046-0.025,0.093-0.056,0.14-0.056c0.031,0,0.063,0.025,0.094,0.037c0.107,0.038,0.211,0.121,0.293,0.287l0.221,0.444
		l0.605,1.226l1.357,0.197l0.49,0.07c0.475,0.07,0.582,0.399,0.24,0.733c0,0.001,0,0.001-0.002,0.001l-0.355,0.347l-0.355,0.346
		l-0.625,0.609l0.146,0.856l0.086,0.489l0.084,0.488c0,0.001,0,0.002,0,0.002c0.018,0.105,0.012,0.191-0.004,0.269
		c-0.005,0.022-0.013,0.042-0.02,0.062c-0.02,0.053-0.047,0.096-0.083,0.129c-0.011,0.01-0.021,0.023-0.032,0.031
		c-0.049,0.032-0.105,0.053-0.174,0.053c-0.004,0-0.01-0.004-0.014-0.004c-0.089-0.003-0.189-0.028-0.301-0.087l-0.439-0.23
		L15.5,6.723l-1.213,0.636l-0.439,0.23c-0.112,0.059-0.212,0.085-0.299,0.087c-0.004,0-0.01,0.004-0.014,0.004
		c-0.068,0-0.125-0.021-0.174-0.053c-0.013-0.008-0.021-0.021-0.033-0.032c-0.037-0.033-0.063-0.076-0.083-0.129
		c-0.007-0.019-0.015-0.037-0.019-0.059c-0.016-0.077-0.021-0.164-0.004-0.271c0,0,0-0.001,0-0.002l0.084-0.488l0.084-0.489
		l0.148-0.856l-0.625-0.609l-0.357-0.346l-0.355-0.347c0,0,0,0,0-0.001C11.857,3.664,11.966,3.335,12.441,3.265z M4.773,12.859
		l-0.967,1.433L1.994,14.24l-0.811-1.068c0.293-1.036,0.945-1.953,1.866-2.57l1.017,0.317L4.773,12.859z M4.526,10.721l0.61-0.868
		c0.156-0.016,0.311-0.041,0.468-0.041c1.058,0,2.051,0.376,2.847,1.005l0.017,0.966l-1.561,1.385L5.245,12.69L4.526,10.721z
		 M4.329,17.839L3.11,18.255c-0.824-0.532-1.483-1.316-1.833-2.275c-0.025-0.071-0.032-0.145-0.055-0.217l0.722-1.024l1.894,0.054
		l1.053,1.359L4.329,17.839z M7.177,18.724c-0.51,0.186-1.04,0.279-1.575,0.279c-0.055,0-0.106-0.011-0.161-0.013l-0.673-0.889
		l0.604-1.818l1.616-0.587l1.673,1.027l0.02,1.097C8.248,18.209,7.742,18.52,7.177,18.724z M8.75,16.191l-1.477-0.906l-0.067-1.717
		l1.585-1.405l0.971,0.305c0.057,0.122,0.121,0.239,0.168,0.368c0.35,0.958,0.352,1.978,0.05,2.935L8.75,16.191z M10.747,16.611
		c0.126-0.291,0.229-0.592,0.304-0.902c0.209-0.864,0.214-1.784-0.02-2.69c-0.043-0.165-0.094-0.329-0.152-0.491
		c-0.004-0.011-0.006-0.021-0.01-0.032c-0.092-0.254-0.207-0.492-0.33-0.724c-0.028-0.053-0.056-0.104-0.085-0.154
		c-0.118-0.205-0.243-0.403-0.384-0.589c-0.102-0.134-0.209-0.26-0.321-0.382c-0.077-0.084-0.158-0.163-0.239-0.242
		c-0.038-0.036-0.074-0.074-0.113-0.109c-0.181-0.166-0.371-0.319-0.57-0.46C8.784,9.807,8.74,9.78,8.698,9.753
		c-0.036-0.023-0.073-0.048-0.11-0.071L8.58,9.685C7.695,9.13,6.667,8.813,5.603,8.813c-0.039,0-0.08,0.01-0.119,0.011L5.481,8.82
		C5.22,8.826,4.958,8.849,4.695,8.893C4.65,8.9,4.604,8.911,4.559,8.92C4.267,8.976,3.975,9.048,3.687,9.153
		c-0.6,0.217-1.135,0.53-1.604,0.908c-0.203,0.164-0.394,0.341-0.57,0.529C0.661,8.317,0.616,5.605,3.097,3.088
		c1.368-1.387,2.931-2.09,4.646-2.09c1.37,0,2.881,0.481,4.356,1.332c-0.508,0.131-0.894,0.449-1.038,0.895
		c-0.164,0.504,0.002,1.061,0.441,1.488l0.354,0.346l0.359,0.348l0.248,0.242l-0.059,0.34L12.32,6.477l-0.084,0.489
		c-0.002,0.012-0.004,0.025-0.006,0.037c-0.07,0.472,0.035,0.904,0.303,1.219c0.246,0.29,0.611,0.456,1.002,0.456
		c0.258,0,0.52-0.069,0.779-0.206l0.438-0.229L15.5,7.849l0.412,0.217l0.336,0.177l0.439,0.23c0.053,0.027,0.105,0.04,0.158,0.063
		c0.016,2.09-1.192,4.163-2.756,5.748C13.022,15.366,11.881,16.15,10.747,16.611z M17.328,18.719
		c-0.268-0.434-0.83-1.227-1.906-2.318c-0.305-0.308-0.748-0.634-1.156-0.91c0.182-0.165,0.361-0.33,0.537-0.507
		c0.279-0.283,0.535-0.575,0.781-0.87c0.285,0.406,0.624,0.86,0.934,1.174c1.107,1.123,1.867,1.702,2.256,1.965L17.328,18.719z"/>
	<path fill="#0079B8" d="M17.466,7.68c0.068,0,0.125-0.021,0.174-0.053c-0.052,0.033-0.115,0.051-0.188,0.049
		C17.457,7.676,17.462,7.68,17.466,7.68z"/>
	<path fill="#0079B8" d="M5.602,20c0.026,0,0.053-0.006,0.079-0.006c-0.058,0.001-0.115,0.001-0.172,0
		C5.541,19.994,5.571,20,5.602,20z"/>
	<polygon fill="#0079B8" points="5.679,14.255 5.449,14.339 5.58,14.343 	"/>
	<path fill="#0079B8" d="M4.194,19.828l0.003-0.01c-0.112-0.029-0.223-0.064-0.333-0.101c-0.001,0-0.002,0-0.003-0.001
		c0.038,0.013,0.075,0.026,0.113,0.038L4.194,19.828z"/>
	<path fill="#0079B8" d="M9.749,10.646c0.112,0.122,0.22,0.248,0.321,0.382l0.012-0.011L9.749,10.646L9.749,10.646z"/>
	<path fill="#0079B8" d="M10.177,17.653l0.219-0.356c-0.071,0.12-0.148,0.237-0.229,0.351L10.177,17.653z"/>
</g>
</svg>
