<?xml version="1.0" encoding="utf-8"?>
<!-- Generator: Adobe Illustrator 16.0.0, SVG Export Plug-In . SVG Version: 6.00 Build 0)  -->
<!DOCTYPE svg PUBLIC "-//W3C//DTD SVG 1.1//EN" "http://www.w3.org/Graphics/SVG/1.1/DTD/svg11.dtd">
<svg version="1.1" id="Layer_1" xmlns="http://www.w3.org/2000/svg" xmlns:xlink="http://www.w3.org/1999/xlink" x="0px" y="0px"
	 width="20px" height="20px" viewBox="0 0 20 20" enable-background="new 0 0 20 20" xml:space="preserve">
<g>
	<path fill="none" d="M13.534,19c0.003,0,0.009-0.004,0.013-0.004c-0.072,0.002-0.134-0.015-0.186-0.048
		C13.41,18.979,13.466,19,13.534,19z"/>
	<path fill="none" d="M17.466,19c0.068,0,0.124-0.021,0.173-0.052c-0.051,0.033-0.113,0.05-0.186,0.048
		C17.457,18.996,17.462,19,17.466,19z"/>
	<path fill="#FFFFFF" d="M1,5.973v10.025c0,0.552,0.449,1,1,1h10.458l0.006-0.033l-0.248-0.242l-0.358-0.348l-0.354-0.348
		c-0.311-0.303-0.476-0.671-0.493-1.039H3.832c-0.831,0-1.103-0.557-0.603-1.237l1.628-2.215c0.5-0.682,1.447-0.813,2.105-0.292
		l0.218,0.171c0.658,0.521,1.577,0.369,2.04-0.338l1.766-2.685c0.464-0.707,1.208-0.695,1.651,0.025l1.996,3.244
		c0.249-0.218,0.545-0.351,0.867-0.351c0.533,0,1.013,0.331,1.283,0.881L17,12.631V5.973H1z M5.669,9.711
		c-0.632,0-1.144-0.513-1.144-1.145c0-0.633,0.512-1.144,1.144-1.144c0.631,0,1.144,0.511,1.144,1.144
		C6.813,9.198,6.3,9.711,5.669,9.711z"/>
	<polygon fill="#FFD740" points="0.693,0.497 0.693,0.5 0.697,0.497 	"/>
	<path fill="#F9AC1E" d="M17,2c0-0.552-0.449-1-1-1H2C1.449,1,1,1.448,1,2v2.973h16V2z M4,3.973c-0.552,0-1-0.447-1-1
		c0-0.552,0.448-1,1-1s1,0.448,1,1C5,3.525,4.552,3.973,4,3.973z M14.902,3.473H6v-1h8.902V3.473z"/>
	<path fill="#229DD3" d="M10.987,8.393l-1.766,2.685c-0.463,0.707-1.382,0.858-2.04,0.338l-0.218-0.171
		c-0.659-0.521-1.606-0.39-2.105,0.292l-1.628,2.215c-0.5,0.681-0.228,1.237,0.603,1.237h7.178
		c-0.007-0.152,0.005-0.304,0.053-0.451c0.164-0.506,0.624-0.86,1.235-0.95l0.49-0.071l0.835-0.121l0.374-0.758l0.219-0.443
		c0.107-0.218,0.254-0.39,0.417-0.531l-1.996-3.244C12.195,7.697,11.451,7.686,10.987,8.393z"/>
	<circle fill="#229DD3" cx="5.669" cy="8.567" r="1.144"/>
	<circle fill="#455B65" cx="4" cy="2.973" r="1"/>
	<rect x="6" y="2.473" fill="#455B65" width="8.902" height="1"/>
	<path fill="#F9AC1E" d="M18.56,14.576l-0.49-0.07l-1.356-0.197l-0.606-1.229l-0.22-0.444c-0.106-0.216-0.246-0.324-0.387-0.324
		c-0.14,0-0.28,0.108-0.387,0.324l-0.22,0.444l-0.606,1.229l-1.355,0.197l-0.491,0.07c-0.475,0.07-0.583,0.4-0.239,0.736
		l0.355,0.348l0.356,0.346l0.625,0.611l-0.147,0.858l-0.085,0.49l-0.084,0.489v0.002c-0.018,0.106-0.012,0.193,0.004,0.271
		c0.004,0.021,0.012,0.04,0.019,0.06c0.02,0.053,0.047,0.096,0.083,0.128c0.011,0.011,0.021,0.024,0.034,0.033
		c0.051,0.033,0.113,0.05,0.186,0.048c0.088-0.002,0.188-0.027,0.301-0.086l0.439-0.23l1.213-0.639l1.213,0.639l0.439,0.23
		c0.112,0.059,0.212,0.084,0.301,0.086c0.072,0.002,0.134-0.015,0.186-0.048c0.014-0.009,0.023-0.022,0.035-0.034
		c0.035-0.032,0.063-0.074,0.082-0.126c0.007-0.02,0.015-0.039,0.02-0.062c0.016-0.077,0.022-0.164,0.004-0.27v-0.002l-0.084-0.489
		l-0.085-0.49l-0.146-0.858l0.624-0.611l0.356-0.346l0.355-0.348c0.001,0,0.001,0,0.001,0C19.143,14.977,19.034,14.646,18.56,14.576
		z"/>
	<path fill="#455B65" d="M19.938,14.536c-0.164-0.505-0.625-0.859-1.232-0.948l-0.493-0.072L18,13.484V2c0-1.1-0.9-2-2-2H2
		C1.501,0,1.048,0.191,0.697,0.497C0.696,0.498,0.695,0.499,0.693,0.5C0.272,0.867,0,1.401,0,2v13.998c0,1.1,0.9,2,2,2h10.286
		l-0.049,0.287c-0.002,0.013-0.004,0.025-0.006,0.038c-0.071,0.473,0.035,0.905,0.303,1.221c0.245,0.29,0.61,0.456,1.001,0.456
		c0.258,0,0.521-0.068,0.779-0.205l0.438-0.23l0.748-0.394l0.747,0.394l0.44,0.23C16.945,19.932,17.208,20,17.466,20
		c0.392,0,0.757-0.166,1.002-0.457c0.268-0.316,0.374-0.75,0.302-1.223c-0.002-0.012-0.004-0.023-0.006-0.035l-0.084-0.488
		l-0.085-0.492l-0.058-0.34l0.249-0.244l0.354-0.344l0.356-0.348c0.002-0.002,0.004-0.004,0.006-0.006
		C19.938,15.595,20.101,15.039,19.938,14.536z M1,2c0-0.552,0.449-1,1-1h14c0.551,0,1,0.448,1,1v2.973H1V2z M12.458,16.998H2
		c-0.551,0-1-0.448-1-1V5.973h16v6.658l-0.217-0.438c-0.271-0.55-0.75-0.881-1.283-0.881c-0.321,0-0.618,0.133-0.867,0.351
		c-0.163,0.142-0.31,0.313-0.417,0.531l-0.219,0.443l-0.374,0.758l-0.835,0.121l-0.49,0.071c-0.611,0.09-1.071,0.444-1.235,0.95
		c-0.048,0.147-0.06,0.299-0.053,0.451c0.017,0.368,0.182,0.736,0.493,1.039l0.354,0.348l0.358,0.348l0.248,0.242L12.458,16.998z
		 M18.8,15.313C18.8,15.313,18.8,15.313,18.8,15.313l-0.356,0.348l-0.356,0.346l-0.624,0.611l0.146,0.858l0.085,0.49l0.084,0.489
		v0.002c0.018,0.105,0.012,0.192-0.004,0.27c-0.004,0.022-0.012,0.042-0.02,0.062c-0.019,0.052-0.046,0.094-0.082,0.126
		c-0.012,0.012-0.021,0.025-0.035,0.034C17.59,18.979,17.534,19,17.466,19c-0.003,0-0.009-0.004-0.013-0.004
		c-0.088-0.002-0.188-0.027-0.301-0.086l-0.439-0.23L15.5,18.041l-1.213,0.639l-0.439,0.23c-0.112,0.059-0.212,0.084-0.301,0.086
		c-0.004,0-0.009,0.004-0.013,0.004c-0.068,0-0.124-0.021-0.173-0.052c-0.013-0.009-0.022-0.022-0.034-0.033
		c-0.036-0.032-0.063-0.075-0.083-0.128c-0.007-0.02-0.014-0.038-0.019-0.06c-0.016-0.077-0.022-0.164-0.004-0.271v-0.002
		l0.084-0.489l0.085-0.49l0.147-0.858l-0.625-0.611l-0.356-0.346l-0.355-0.348c-0.344-0.336-0.235-0.666,0.239-0.736l0.491-0.07
		l1.355-0.197l0.606-1.229l0.22-0.444c0.106-0.216,0.247-0.324,0.387-0.324c0.141,0,0.28,0.108,0.387,0.324l0.22,0.444l0.606,1.229
		l1.356,0.197l0.49,0.07C19.034,14.646,19.143,14.977,18.8,15.313z"/>
</g>
</svg>
