<?xml version="1.0" encoding="utf-8"?>
<!-- Generator: Adobe Illustrator 16.0.0, SVG Export Plug-In . SVG Version: 6.00 Build 0)  -->
<!DOCTYPE svg PUBLIC "-//W3C//DTD SVG 1.1//EN" "http://www.w3.org/Graphics/SVG/1.1/DTD/svg11.dtd">
<svg version="1.1" id="Layer_1" xmlns="http://www.w3.org/2000/svg" xmlns:xlink="http://www.w3.org/1999/xlink" x="0px" y="0px"
	 width="20px" height="20px" viewBox="0 0 20 20" enable-background="new 0 0 20 20" xml:space="preserve">
<g>
	<g>
		<path fill="#229DD3" d="M8.24,16.005H5.028c-0.246,0-0.685,0.212-0.839,0.405l-2.064,2.591h6.881h1.988h6.881l-2.063-2.59
			c-0.154-0.194-0.593-0.406-0.84-0.406H11.76c-0.998,1.206-1.76,1.97-1.76,1.97S9.238,17.211,8.24,16.005z"/>
		<path fill="#FFFFFF" d="M7.841,9.725C7.805,9.692,7.776,9.648,7.758,9.594C7.776,9.649,7.805,9.692,7.841,9.725z"/>
		<path fill="#FFFFFF" d="M12.266,9.266c0.018,0.105,0.012,0.193-0.004,0.27C12.277,9.459,12.283,9.372,12.266,9.266z"/>
		<path fill="#FFFFFF" d="M11.955,9.809c0.067,0,0.124-0.021,0.173-0.053c-0.052,0.033-0.114,0.051-0.187,0.049
			C11.945,9.805,11.951,9.809,11.955,9.809z"/>
		<path fill="#FFFFFF" d="M8.045,9.809c0.004,0,0.01-0.004,0.014-0.004C7.986,9.807,7.924,9.79,7.872,9.756
			C7.921,9.789,7.978,9.809,8.045,9.809z"/>
		<path fill="#FFFFFF" d="M10.125,3.178c-0.04-0.021-0.082-0.05-0.125-0.05c-0.057,0-0.111,0.03-0.166,0.066
			C9.929,3.132,10.028,3.131,10.125,3.178z"/>
		<path fill="#FFFFFF" d="M12.242,9.596c-0.02,0.053-0.047,0.096-0.081,0.128C12.195,9.691,12.223,9.649,12.242,9.596z"/>
		<path fill="#FFFFFF" d="M7.738,9.537C7.723,9.46,7.717,9.372,7.734,9.266C7.717,9.372,7.723,9.46,7.738,9.537z"/>
		<path fill="#FFFFFF" d="M10,16.518c1.418-1.572,4.549-5.34,5.297-8.722c0.034-0.146,0.064-0.277,0.086-0.41l0.03-0.191
			c0.039-0.282,0.057-0.517,0.057-0.734c0-3.012-2.454-5.462-5.47-5.462S4.53,3.449,4.53,6.461c0,0.222,0.019,0.463,0.057,0.735
			c0.009,0.068,0.019,0.125,0.028,0.18c0.022,0.138,0.051,0.27,0.082,0.402C5.45,11.173,8.582,14.944,10,16.518z M7.05,10.351
			c-0.267-0.314-0.372-0.747-0.301-1.219C6.751,9.12,6.753,9.107,6.755,9.095l0.083-0.49l0.085-0.489l0.058-0.34L6.734,7.535
			L6.378,7.187L6.025,6.84C5.588,6.412,5.424,5.855,5.587,5.351s0.621-0.859,1.229-0.949l0.487-0.07l0.831-0.121l0.372-0.757
			l0.217-0.442C8.994,2.459,9.472,2.13,10,2.13c0.53,0,1.007,0.331,1.276,0.88l0.218,0.444l0.372,0.757l0.831,0.121l0.49,0.071
			c0.604,0.088,1.063,0.443,1.226,0.947c0.162,0.503,0.001,1.057-0.433,1.486c-0.002,0.002-0.004,0.003-0.006,0.005L13.62,7.188
			l-0.353,0.344l-0.247,0.244l0.057,0.339l0.085,0.491l0.083,0.489c0.002,0.012,0.004,0.022,0.006,0.034
			c0.072,0.473-0.033,0.906-0.3,1.222c-0.244,0.29-0.606,0.457-0.996,0.457c-0.257,0-0.518-0.069-0.774-0.205l-0.438-0.231L10,9.979
			l-0.744,0.394L8.82,10.602c-0.258,0.137-0.519,0.206-0.775,0.206C7.656,10.808,7.294,10.642,7.05,10.351z"/>
		<path fill="#F9AC1E" d="M11.206,9.488l0.438,0.23c0.111,0.059,0.21,0.085,0.298,0.087c0.072,0.002,0.135-0.016,0.187-0.049
			c0.013-0.008,0.021-0.021,0.033-0.032c0.034-0.032,0.062-0.075,0.081-0.128c0.008-0.02,0.015-0.039,0.02-0.061
			c0.016-0.077,0.021-0.165,0.004-0.27c0,0,0-0.001,0-0.002l-0.084-0.489l-0.084-0.489l-0.146-0.857l0.62-0.609l0.354-0.346
			l0.354-0.346c0.001,0,0.001,0,0.001-0.001c0.341-0.334,0.233-0.664-0.238-0.734l-0.488-0.07l-1.349-0.197l-0.603-1.227
			l-0.219-0.445c-0.073-0.149-0.164-0.228-0.26-0.274c-0.097-0.047-0.196-0.046-0.291,0.017c-0.08,0.052-0.155,0.13-0.219,0.257
			L9.396,3.897L8.794,5.124L7.446,5.321l-0.489,0.07c-0.472,0.07-0.579,0.4-0.237,0.734c0,0.001,0,0.001,0,0.001l0.354,0.346
			l0.354,0.346l0.621,0.609L7.902,8.286L7.818,8.775L7.734,9.264c0,0.001,0,0.002,0,0.002C7.717,9.372,7.723,9.46,7.738,9.537
			c0.005,0.021,0.012,0.039,0.02,0.058c0.019,0.054,0.047,0.098,0.083,0.131c0.01,0.011,0.02,0.023,0.031,0.031
			C7.924,9.79,7.986,9.807,8.059,9.805c0.088-0.003,0.187-0.028,0.298-0.087l0.438-0.23L10,8.851L11.206,9.488z"/>
		<g>
			<path fill="#455B65" d="M19.322,19.22l-2.734-3.433c-0.342-0.429-1.069-0.78-1.616-0.78h-2.417
				c1.485-1.927,3.167-4.526,3.713-6.994c0.037-0.154,0.072-0.311,0.097-0.468c0.012-0.07,0.023-0.141,0.033-0.21
				c0.039-0.287,0.066-0.576,0.066-0.874C16.464,2.893,13.568,0,10,0C6.431,0,3.536,2.893,3.536,6.461
				c0,0.297,0.026,0.588,0.066,0.874c0.009,0.069,0.021,0.14,0.032,0.209C3.66,7.702,3.693,7.858,3.731,8.015
				c0.548,2.467,2.228,5.065,3.713,6.992H5.028c-0.547,0-1.274,0.351-1.615,0.78L0.677,19.22C0.336,19.649,0.504,20,1.05,20h7.956
				c0.547,0,1.441,0,1.988,0h7.956C19.496,20,19.664,19.649,19.322,19.22z M4.697,7.778c-0.031-0.132-0.06-0.264-0.082-0.402
				c-0.01-0.055-0.02-0.112-0.028-0.18C4.549,6.924,4.53,6.683,4.53,6.461c0-3.012,2.454-5.462,5.47-5.462s5.47,2.451,5.47,5.462
				c0,0.217-0.018,0.453-0.057,0.734l-0.03,0.191c-0.021,0.133-0.052,0.264-0.086,0.41c-0.748,3.381-3.879,7.149-5.297,8.722
				C8.582,14.944,5.45,11.173,4.697,7.778z M10.994,19.001H9.006H2.125l2.064-2.591c0.154-0.193,0.593-0.405,0.839-0.405H8.24
				c0.998,1.206,1.76,1.97,1.76,1.97s0.762-0.765,1.76-1.97h3.212c0.247,0,0.686,0.212,0.84,0.406l2.063,2.59H10.994z"/>
			<path fill="#455B65" d="M10.743,10.372l0.438,0.231c0.257,0.136,0.518,0.205,0.774,0.205c0.39,0,0.752-0.167,0.996-0.457
				c0.267-0.316,0.372-0.749,0.3-1.222c-0.002-0.012-0.004-0.022-0.006-0.034l-0.083-0.489l-0.085-0.491l-0.057-0.339l0.247-0.244
				l0.353-0.344l0.354-0.347c0.002-0.002,0.004-0.003,0.006-0.005c0.434-0.429,0.595-0.983,0.433-1.486
				c-0.163-0.503-0.622-0.858-1.226-0.947l-0.49-0.071l-0.831-0.121l-0.372-0.757L11.276,3.01C11.007,2.46,10.53,2.13,10,2.13
				c-0.528,0-1.006,0.33-1.277,0.882L8.506,3.454L8.134,4.211L7.303,4.332l-0.487,0.07C6.208,4.492,5.75,4.847,5.587,5.351
				S5.588,6.412,6.025,6.84l0.353,0.346l0.356,0.348L6.98,7.776l-0.058,0.34L6.838,8.605l-0.083,0.49
				C6.753,9.107,6.751,9.12,6.749,9.132c-0.071,0.472,0.034,0.905,0.301,1.219c0.244,0.291,0.606,0.457,0.995,0.457
				c0.257,0,0.518-0.069,0.775-0.206l0.436-0.229L10,9.979L10.743,10.372z M8.794,9.488l-0.438,0.23
				c-0.111,0.059-0.21,0.084-0.298,0.087c-0.004,0-0.01,0.004-0.014,0.004c-0.067,0-0.124-0.021-0.173-0.053
				C7.86,9.749,7.851,9.736,7.841,9.725C7.805,9.692,7.776,9.649,7.758,9.594C7.75,9.576,7.743,9.558,7.738,9.537
				C7.723,9.46,7.717,9.372,7.734,9.266c0,0,0-0.001,0-0.002l0.084-0.489l0.084-0.489l0.146-0.857L7.428,6.819L7.073,6.473
				L6.72,6.126c0,0,0,0,0-0.001C6.378,5.791,6.485,5.461,6.957,5.391l0.489-0.07l1.348-0.197l0.603-1.227l0.219-0.445
				c0.063-0.127,0.139-0.206,0.219-0.257C9.889,3.159,9.943,3.128,10,3.128c0.043,0,0.085,0.029,0.125,0.05
				c0.096,0.046,0.187,0.125,0.26,0.274l0.219,0.445l0.603,1.227l1.349,0.197l0.488,0.07c0.472,0.07,0.579,0.4,0.238,0.734
				c0,0.001,0,0.001-0.001,0.001l-0.354,0.346l-0.354,0.346l-0.62,0.609l0.146,0.857l0.084,0.489l0.084,0.489
				c0,0.001,0,0.002,0,0.002c0.018,0.106,0.012,0.193-0.004,0.27c-0.005,0.021-0.012,0.041-0.02,0.061
				c-0.02,0.053-0.047,0.095-0.081,0.128c-0.012,0.011-0.021,0.024-0.033,0.032c-0.049,0.032-0.105,0.053-0.173,0.053
				c-0.004,0-0.01-0.004-0.014-0.004c-0.088-0.002-0.187-0.028-0.298-0.087l-0.438-0.23L10,8.851L8.794,9.488z"/>
		</g>
	</g>
	<rect fill="none" width="20" height="20"/>
</g>
</svg>
