<?xml version="1.0" encoding="utf-8"?>
<!-- Generator: Adobe Illustrator 15.0.0, SVG Export Plug-In . SVG Version: 6.00 Build 0)  -->
<!DOCTYPE svg PUBLIC "-//W3C//DTD SVG 1.1//EN" "http://www.w3.org/Graphics/SVG/1.1/DTD/svg11.dtd">
<svg version="1.1" id="Layer_1" xmlns="http://www.w3.org/2000/svg" xmlns:xlink="http://www.w3.org/1999/xlink" x="0px" y="0px"
	 width="20px" height="20px" viewBox="0 0 20 20" enable-background="new 0 0 20 20" xml:space="preserve">
<g fill="#DCF3FC">
	<path d="M9.007,13.06H3.01c-1.649,0-2.998,1.349-2.998,2.997V19c0,0.55,0.451,1,1.001,1c0,0,0.348,0,1.997,0h5.997
		c1.649,0,2.001,0,2.001,0c0.549,0,1-0.45,1-1v-2.943C12.008,14.408,10.656,13.06,9.007,13.06z M8.26,14.06l-1.877,1.877
		c-0.187,0.187-0.52,0.187-0.707,0l-1.88-1.877H8.26z M1.06,15.655c-0.028,0.131-0.047,0.264-0.047,0.401
		C1.013,15.919,1.031,15.786,1.06,15.655z M9.007,19H3.01H1.013v-2.894c0.001-0.154,0.019-0.306,0.047-0.453
		c0.15-0.727,0.698-1.307,1.408-1.51l2.5,2.5c0.283,0.282,0.659,0.438,1.062,0.438c0.401,0,0.778-0.155,1.062-0.438l2.491-2.49
		c0.794,0.24,1.373,0.957,1.411,1.818c0.003,0.047,0.015,0.092,0.015,0.14V19H9.007z"/>
	<path d="M5.925,11.82c3.268,0,5.914-2.646,5.914-5.909C11.839,2.647,9.192,0,5.925,0c-1.669,0-3.174,0.694-4.25,1.808L1.605,1.851
		c0.002,0.003,0.01,0.014,0.013,0.02C0.625,2.927,0.012,4.347,0.012,5.911C0.012,9.174,2.66,11.82,5.925,11.82z M5.925,1
		c2.029,0,3.777,1.237,4.524,2.998C6.195,4.073,3.995,2.764,3.051,1.946C3.861,1.357,4.848,1,5.925,1z M2.298,2.628
		c1.029,0.937,3.34,2.381,7.793,2.381c0.211,0,0.433-0.008,0.653-0.014c0.057,0.297,0.094,0.603,0.094,0.916
		c0,2.707-2.204,4.909-4.913,4.909c-2.71,0-4.912-2.202-4.912-4.909C1.013,4.645,1.507,3.499,2.298,2.628z"/>
	<path d="M5.925,9.63c1.242,0,2.251-1.008,2.251-2.248h-4.5C3.676,8.622,4.683,9.63,5.925,9.63z"/>
	<path d="M19.949,9.762c-0.164-0.505-0.625-0.859-1.232-0.948l-0.494-0.072L17.387,8.62l-0.373-0.758l-0.221-0.444
		c-0.271-0.55-0.75-0.881-1.283-0.881c-0.532,0-1.012,0.33-1.285,0.882l-0.219,0.443L13.632,8.62l-0.835,0.121l-0.492,0.071
		c-0.611,0.09-1.07,0.444-1.234,0.95c-0.164,0.504,0.001,1.063,0.439,1.49l0.355,0.348l0.358,0.348l0.247,0.242l-0.058,0.342
		l-0.086,0.488l-0.083,0.49c-0.002,0.013-0.004,0.025-0.007,0.038c-0.071,0.473,0.035,0.905,0.304,1.221
		c0.246,0.29,0.611,0.456,1.002,0.456c0.257,0,0.521-0.068,0.779-0.205l0.438-0.23l0.749-0.394l0.747,0.394l0.441,0.23
		c0.258,0.137,0.521,0.205,0.778,0.205c0.392,0,0.758-0.166,1.003-0.457c0.267-0.316,0.373-0.75,0.301-1.223
		c-0.002-0.012-0.003-0.023-0.006-0.035l-0.083-0.488l-0.085-0.492l-0.058-0.34l0.248-0.244l0.354-0.344l0.357-0.348
		c0.002-0.002,0.004-0.004,0.006-0.006C19.95,10.82,20.113,10.265,19.949,9.762z M18.811,10.538
		C18.811,10.538,18.811,10.538,18.811,10.538l-0.355,0.348l-0.357,0.346l-0.624,0.611l0.146,0.858l0.084,0.49l0.085,0.489v0.002
		c0.019,0.105,0.012,0.192-0.004,0.27c-0.005,0.021-0.013,0.041-0.02,0.061c-0.019,0.053-0.046,0.096-0.083,0.128
		c-0.01,0.011-0.02,0.024-0.034,0.033c-0.05,0.032-0.113,0.05-0.186,0.048c-0.089-0.002-0.188-0.027-0.3-0.086l-0.44-0.23
		l-1.213-0.639l-1.214,0.639l-0.44,0.23c-0.111,0.059-0.211,0.084-0.3,0.086c-0.072,0.002-0.135-0.016-0.186-0.049
		c-0.014-0.008-0.021-0.021-0.033-0.031c-0.036-0.033-0.065-0.076-0.085-0.13c-0.005-0.019-0.013-0.037-0.018-0.059
		c-0.017-0.077-0.022-0.165-0.005-0.271v-0.002l0.085-0.489l0.084-0.49l0.147-0.858l-0.625-0.611l-0.357-0.346l-0.354-0.348l0,0
		c-0.344-0.336-0.235-0.666,0.239-0.736l0.491-0.07l1.356-0.197l0.606-1.229l0.22-0.444c0.067-0.134,0.147-0.212,0.231-0.263
		c0.052-0.031,0.103-0.062,0.156-0.062c0.14,0,0.28,0.108,0.387,0.324l0.22,0.444l0.606,1.229l1.357,0.197l0.491,0.07
		C19.045,9.872,19.153,10.202,18.811,10.538z"/>
</g>
</svg>
