<?xml version="1.0" standalone="no"?>
<!DOCTYPE svg PUBLIC "-//W3C//DTD SVG 1.1//EN" "http://www.w3.org/Graphics/SVG/1.1/DTD/svg11.dtd">
<svg xmlns="http://www.w3.org/2000/svg">
<metadata>COPYRIGHT 2016. CIAYO</metadata>
<defs>
<font id="ciayofonts" horiz-adv-x="1000" >
<font-face font-family="ciayofonts" font-weight="400" font-stretch="normal" units-per-em="1000" ascent="850" descent="-150" />
<missing-glyph horiz-adv-x="1000" />
<glyph glyph-name="accept" unicode="&#xe800;" d="M950-50c0-28-22-50-50-50l-800 0c-28 0-50 22-50 50l0 800c0 28 22 50 50 50l800 0c28 0 50-22 50-50l0-800z m-50 900l-800 0c-55 0-100-45-100-100l0-800c0-55 45-100 100-100l800 0c55 0 100 45 100 100l0 800c0 55-45 100-100 100l0 0z m-173-314l-288-288-165 165c-15 15-39 15-54 0-14-14-14-38 0-53l193-192c7-7 17-11 26-11 10 0 19 4 27 11l314 315c15 14 15 38 0 53-15 14-38 14-53 0" horiz-adv-x="1000" />

<glyph glyph-name="accesories" unicode="&#xe801;" d="M647 550c33 20 73 32 115 33l-523 0c42-1 81-13 115-33l293 0z m-190-134c3-11 6-22 7-33l72 0c2 11 4 22 7 33l-86 0z m-229 167c0 0 0 0 0 0 0 0 0 0 0 0l0 0z m5-433c-110 0-200 90-200 200 0 110 90 200 200 200 111 0 200-90 200-200 0-110-89-200-200-200m121 400c-34 20-73 32-115 33-2 0-4 0-6 0-1 0-3 0-5 0l0 0c-126-3-228-106-228-233 0-129 105-233 233-233 129 0 234 104 234 233 0 11-1 22-3 33-1 11-4 22-7 33-17 57-54 104-103 134m-48-112c-7 5-17 4-23-3l-106-127c-6-7-5-18 2-24 3-2 7-4 11-4 5 0 10 2 13 6l106 128c5 7 4 18-3 24m-3-105l-40-47c-5-7-4-18 3-23 3-3 7-4 10-4 5 0 10 2 13 6l39 47c6 7 5 18-2 23-7 6-18 5-23-2m-102 103c-7 5-17 5-23-3l-39-47c-6-7-5-17 2-23 3-3 7-4 10-4 5 0 10 2 13 6l39 47c6 7 5 18-2 24m566-286c-111 0-200 90-200 200 0 110 89 200 200 200 110 0 200-90 200-200 0-110-90-200-200-200m0 433c-2 0-4 0-5 0-42-1-82-13-115-33-50-30-87-77-104-134-3-11-5-22-7-33-2-11-3-22-3-33 0-129 105-233 234-233 129 0 233 104 233 233 0 129-104 233-233 233m73-145c-7 5-18 4-24-3l-105-127c-6-7-5-18 2-24 3-2 7-4 10-4 5 0 10 2 13 6l106 128c6 7 5 18-2 24m-4-105l-39-47c-6-7-5-18 2-23 3-3 7-4 11-4 4 0 9 2 12 6l40 47c5 7 4 18-3 23-7 6-17 5-23-2m-102 103c-7 5-17 5-23-3l-39-47c-6-7-5-17 2-23 3-3 7-4 11-4 5 0 9 2 13 6l39 47c6 7 5 18-3 24" horiz-adv-x="1000" />

<glyph glyph-name="add-item" unicode="&#xe802;" d="M938 413h-375v375c0 34-29 62-63 62s-62-28-62-62v-375h-375c-35 0-63-29-63-63s28-62 63-62h375v-376c0-34 28-62 62-62s63 28 63 62v376h375c34 0 62 28 62 62s-28 63-62 63z" horiz-adv-x="1000" />

<glyph glyph-name="add-place" unicode="&#xe803;" d="M323 850c-178 0-322-146-322-326 0-15 1-29 3-44 1-3 1-7 2-10 1-8 3-16 5-24 26-121 106-249 179-345h-9c-28 0-61-20-73-44l-84-163c-13-24-1-44 27-44h224c28 0 73 0 100 0h225c27 0 39 20 27 44l-84 163c-13 24-46 44-73 44h-14c73 96 153 224 180 345 2 8 3 16 5 24 0 3 1 7 1 10 2 15 3 29 3 44 1 180-144 326-322 326z m147-799c9 0 24-9 28-17l70-134h-193-100-192l69 134c4 8 20 17 29 17h48c53-65 94-107 94-107s41 42 94 107h53z m123 436c-1-3-1-6-2-10-1-6-2-13-4-20-28-126-119-261-194-356-14-18-28-35-41-50-10-12-20-24-29-33-8 9-18 21-29 33-12 15-26 32-41 50-74 95-166 231-194 357-1 6-3 13-4 21-1 2-1 4-1 8-2 14-3 26-3 37 0 152 122 276 272 276 150 0 273-124 273-276 0-11-1-22-3-37z m-270 188c-83 0-151-68-151-151 0-83 68-151 151-151 84 0 151 68 151 151 0 83-67 151-151 151z" horiz-adv-x="1000" />

<glyph glyph-name="add-with-people" unicode="&#xe804;" d="M1000 351h-104v104h-83v-104h-105v-83h105v-105h83v105h104m-550-71h-300c-82 0-150-67-150-150v-155c0-23 19-42 42-42h516c23 0 41 19 41 42v155c0 83-67 150-149 150z m-23-42l-112-111c-7-7-21-7-29 0l-111 111h252z m131-263h-516v155c0 51 34 93 81 105l-2-2 136-135c12-12 28-18 44-18 16 0 32 6 44 18l135 135-1 1c45-13 79-55 79-104v-155z m-263 367c164 0 296 132 296 295 0 164-132 296-296 296-163 0-295-132-295-296 0-163 132-295 295-295z m-169 484c46-45 165-126 413-118 7-22 10-46 10-71 0-140-113-253-253-253-140 0-254 114-254 253 0 75 32 142 84 189z m170-374c62 0 112 50 112 112h-225c0-62 50-112 113-112z" horiz-adv-x="1000" />

<glyph glyph-name="ascending" unicode="&#xe805;" d="M375 101h-61v749h-125v-749h-64c-28 0-39-19-25-42l123-192c15-23 39-23 54 0l123 192c15 23 4 42-25 42m264 548c17 46 31 94 46 142h3c15-47 29-96 45-142l18-52h-130l18 52z m-39-112h172l39-116h95l-165 429h-106l-166-429h92l39 116z m288-330v72h-402v-75h290l-290-300v-54h404v75h-269" horiz-adv-x="1000" />

<glyph glyph-name="background" unicode="&#xe806;" d="M244 566c4 0 8 2 12 5l13 13c6 7 6 18 0 24-7 7-17 7-24 0l-13-13c-7-7-7-17 0-24 3-3 7-5 12-5m-48-8l-74-73c-6-6-6-17 0-24 4-3 8-4 12-4 4 0 9 1 12 4l73 74c7 6 7 17 0 23-6 7-17 7-23 0m771-574c0-55-45-100-100-100l0 0 0 71c0 44-38 81-84 81l-38 0c65 19 113 79 113 151 0 87-71 158-159 158-87 0-159-71-159-158 0-72 48-132 114-151l-39 0c-46 0-84-37-84-81l0-71-229 0c-56 0-100 45-100 100l0 264 1-1c10-11 24-16 37-16 2 0 3 0 5 0 14 0 25 9 32 16 72 70 248 248 248 248 7 6 11 14 13 22 37-55 21-132 82-142 38-6 79 61 37 126-35 54-108 81-157 93l-56 56 423 0c55 0 100-45 100-100l0-566z m-928 474c-7 7-7 19 0 27l248 248c5 5 11 6 14 6 3 0 8-1 13-6l6-6 0-90c0-9 7-17 17-17 9 0 16 8 16 17l0 57 149-149c5-4 5-10 5-13 0-5-2-10-5-13-2-2-178-179-249-249-5-5-8-6-8-6-1 0-1 0-1 0-1 1-3 1-4 1-5 0-10 2-13 5l-188 188z m209 323c0 20 16 36 37 36 19 0 35-16 35-35l0-14c-6 3-13 4-19 4-14 0-27-5-37-15l-16-16 0 40z m619-98l-456 0-58 58 0 41c0 37-31 68-70 68-38 0-68-31-68-69l0-73-200-200c-20-20-20-53 0-74l153-153 0-297c0-73 60-133 134-133l253 0c3-1 6-2 10-2l50 0 168 0 50 0c4 0 7 1 10 2l24 0c73 0 133 60 133 133l0 566c0 73-60 133-133 133l0 0z" horiz-adv-x="1000" />

<glyph glyph-name="birthday" unicode="&#xe807;" d="M781 603c43 0 78 37 78 83 0 46-35 164-78 164-43 0-78-118-78-164 0-46 35-83 78-83m-280 0c43 0 78 37 78 83 0 46-35 164-78 164-43 0-79-118-79-164 0-46 36-83 79-83m-282 0c43 0 78 37 78 83 0 46-35 164-78 164-43 0-78-118-78-164 0-46 35-83 78-83m719-690l-224 0-428 0-223 0 0 88 875 0 0-88z m-875 161l0 55 0 111c0 26 28 49 62 49l161 0 428 0 161 0c34 0 63-23 63-49l0-111 0-55 0-11-875 0 0 11z m812 277l-62 0 0 155-63 0 0-155-36 0-182 0 0 155-63 0 0-155-183 0-36 0 0 155-62 0 0-155-63 0c-69 0-125-50-125-111l0-111 0-55 0-161 0-62 286 0 428 0 286 0 0 62 0 161 0 55 0 111c0 61-56 111-125 111l0 0z" horiz-adv-x="1000" />

<glyph glyph-name="box-caption" unicode="&#xe808;" d="M958 17c0-23-18-42-41-42l-834 0c-23 0-41 19-41 42l0 666c0 23 18 42 41 42l834 0c23 0 41-19 41-42l0-666z m-41 750l-834 0c-45 0-83-38-83-84l0-666c0-46 38-84 83-84l834 0c46 0 83 38 83 84l0 666c0 46-37 84-83 84l0 0z m-349-508c-25 0-45-20-45-45 0-25 20-46 45-46 25 0 46 21 46 46 0 25-21 45-46 45m161 0c-25 0-46-20-46-45 0-25 21-46 46-46 25 0 45 21 45 46 0 25-20 45-45 45m-328-39c-42 0-56 26-56 72l0 149 99 0 0 51-99 0 0 103-53 0-8-103-57-4 0-47 54 0 0-149c0-73 27-123 106-123 23 0 48 7 68 14l-12 47c-12-4-29-10-42-10" horiz-adv-x="1000" />

<glyph glyph-name="bubble-caption" unicode="&#xe809;" d="M958 258c0-103-83-187-185-187l-375 0c-11 0-22-4-30-12l-109-111 0 82c0 23-17 41-40 42-99 4-177 86-177 186l0 321c0 104 83 188 185 188l546 0c102 0 185-84 185-188l0-321z m-185 550l-546 0c-125 0-227-103-227-229l0-321c0-122 97-222 217-228l0-91c0-31 11-47 28-47 10 0 23 6 37 20l116 117 375 0c125 0 227 103 227 229l0 321c0 126-102 229-227 229l0 0z m-186-500c-25 0-45-20-45-45 0-25 20-46 45-46 25 0 46 21 46 46 0 25-21 45-46 45m167 0c-25 0-46-20-46-45 0-25 21-46 46-46 25 0 45 21 45 46 0 25-20 45-45 45m-329-41c-43 0-57 26-57 71l0 150 99 0 0 50-99 0 0 104-53 0-7-104-58-3 0-47 55 0 0-149c0-73 26-123 105-123 23 0 48 7 69 14l-12 47c-13-5-29-10-42-10" horiz-adv-x="1000" />

<glyph glyph-name="buy" unicode="&#xe80a;" d="M465 464l-112 135h150v251h150v-251h150l-113-135-84-100c-15-19-41-19-57 0 0 0 0 0 0 0l-84 100z m-74-414c-55 0-100-45-100-100 0-55 45-100 100-100s100 45 100 100c0 55-44 100-100 100z m373 0c-55 0-100-45-100-100 0-55 45-100 100-100s100 45 100 100c0 55-45 100-100 100z m133 549l-84-339c-8-31-44-59-76-59h-106-46-164c-32 0-68 28-75 59l-29 115-47 191c0 0 0 0 0 0l-12 48c-13 49-60 86-111 86h-60-87v-99h87 60c5 0 12-7 14-11l12-49 28-115 48-191c0 0 0 0 0 0 18-75 94-134 172-134h164 9 143c78 0 154 59 173 134l90 364h-103z" horiz-adv-x="1000" />

<glyph glyph-name="c-button" unicode="&#xe80b;" d="M889 343c0-1 0-3 0-5 0-2 0-4 0-5-1-2-1-4-1-6 0-1 0-2 0-2 0-2 0-3 0-4 0 0 0-1 0-2 0-3-1-5-1-8 0 0 0-1 0-1 0-3-1-6-1-9 0 0 0-1 0-1-1-3-1-6-2-9 0 0 0 0 0 0 0-3-1-7-1-10l0 0c-1-3-1-6-2-9 0 0 0 0 0 0-1-3-1-6-2-9 0 0 0-1 0-1-1-2-1-5-2-7-37-149-160-264-313-289-1 0-2 0-2 0-2 0-4-1-6-1-2 0-3 0-4-1-2 0-3 0-5 0-2 0-3-1-5-1-1 0-3 0-4 0-2 0-4-1-6-1-1 0-2 0-4 0-2 0-4 0-6 0-1 0-2 0-3-1-1 0-2 0-2 0-1 0-2 0-3 0-2 0-5 0-8 0-1 0-2 0-4 0l-2 0c-2 0-5 0-7 0l-2 0c-4 0-8 0-12 1-1 0-2 0-3 0-3 0-6 0-9 0-1 0-2 1-3 1-3 0-6 0-9 1-1 0-2 0-3 0-4 0-8 1-11 2-1 0-1 0-1 0-3 0-7 1-11 1-1 1-2 1-3 1-3 1-5 1-8 2-1 0-2 0-3 0-3 1-6 2-9 3-1 0-2 0-2 0-4 1-8 2-11 3-1 0-2 0-2 1-3 1-6 1-9 2-1 1-2 1-3 1-3 1-6 2-8 3-1 0-2 1-3 1-7 3-14 5-21 8-1 1-1 1-2 1-3 1-6 3-8 4-1 0-2 1-3 1-3 2-5 3-8 4-1 1-1 1-2 1 0 0 0 0 0 0-28 15-36 51-17 75 2 2 3 4 5 5l12 13c15 15 38 18 58 9 35-17 76-27 118-27 92 0 178 46 228 124 17 26 9 61-18 78-25 15-59 6-75-18-30-46-80-73-135-73-44 0-84 18-114 47 0 0 0 0 0 0 0 0 0 0 0 0-31 31-49 74-47 122 4 73 58 136 130 150 65 13 129-15 165-68 17-26 53-32 79-13 24 18 28 53 11 78-51 73-134 117-224 117-150 0-272-122-272-272 0-42 10-83 27-118 9-20 6-43-9-58l-13-12c-1-2-3-3-5-5-24-19-60-11-75 17 0 0 0 0 0 0 0 1 0 1-1 2-1 3-2 5-4 8 0 1-1 2-1 3-1 2-2 5-4 8 0 0 0 1-1 2-3 7-5 14-8 21 0 1 0 2-1 3-1 2-2 5-2 8-1 1-1 2-2 3 0 3-1 6-2 9 0 0-1 1-1 2-1 3-2 7-3 11 0 0 0 1 0 2-1 3-2 6-2 9-1 1-1 2-1 3-1 3-1 5-2 8 0 1 0 2 0 3-1 4-2 8-2 11 0 0 0 1 0 1-1 3-1 7-2 11 0 1 0 2 0 3-1 3-1 6-1 9 0 1 0 2 0 3-1 3-1 6-1 9 0 1 0 2 0 3 0 4-1 8-1 12 0 0 0 1 0 2 0 2 0 5 0 7l0 2c0 2 0 3 0 4 0 3 0 6 0 8l0 3c1 0 1 1 1 2 0 1 0 2 0 3 0 2 0 4 0 6 0 2 0 3 0 4 1 2 1 4 1 6 0 1 0 3 0 4 1 1 1 3 1 5 0 2 0 3 1 5 0 1 0 2 0 4 0 2 1 4 1 6 0 0 0 1 0 2 26 153 140 276 289 313 2 1 5 1 7 2 0 0 1 0 1 0 3 1 6 1 9 2 0 0 0 0 0 0 3 1 6 1 9 2l0 0c3 0 7 1 10 1 0 0 0 0 0 1 3 0 6 0 9 1 0 0 1 0 1 0 3 0 6 1 9 1 0 0 1 0 1 0 3 0 5 0 8 1 1 0 2 0 2 0 1 0 2 0 4 0 0 0 1 0 3 0 1 0 3 0 5 0 1 1 3 1 5 1 2 0 4 0 5 0 2 0 4 0 5 0l2 0 4 0c2 0 3 0 5 0 2 0 4 0 6 0 1 0 3-1 4-1 2 0 4 0 6 0 2 0 3 0 4 0 3 0 5-1 8-1 1 0 2 0 3 0 3 0 6-1 10-1 1 0 1 0 2-1 3 0 5 0 8-1 1 0 2 0 3 0 3-1 5-1 7-1 1-1 3-1 4-1 2 0 4-1 6-1 1-1 3-1 4-1 2-1 4-1 6-1 1-1 2-1 4-1 2-1 4-1 5-2 2 0 3-1 5-1 1-1 3-1 5-2 1 0 3 0 4-1 2 0 4-1 6-1 1-1 2-1 4-2 2 0 3-1 5-2 1 0 3-1 4-1 2-1 4-1 6-2 1-1 2-1 3-2 2 0 4-1 6-2 1 0 2-1 4-1 1-1 3-2 5-3 1 0 3-1 4-1 2-1 4-2 7-4 0 0 1 0 2 0 3-2 5-3 8-5 1 0 2-1 3-1 2-1 4-2 6-3 1-1 2-2 3-2 2-1 4-2 5-3 2-1 3-1 4-2 2-1 3-2 5-3 1-1 2-2 4-2 1-1 3-2 4-3 1-1 3-2 4-3 1-1 3-2 4-3 2-1 3-1 4-2 1-1 3-2 4-3 1-1 3-2 4-3 1-1 3-2 4-3 1-1 2-2 4-3 1-1 3-2 4-3 1-1 2-2 3-3 2-1 3-2 5-3 1-1 2-2 3-3 1-2 3-3 4-4 1-1 2-2 3-3 2-1 3-2 5-4 1-1 1-1 2-2 2-2 5-5 7-7 2-2 5-5 7-7 1-1 1-1 2-2 2-2 3-3 4-5 1-1 2-2 3-3 1-1 3-3 4-4 1-1 2-3 3-4 1-1 2-2 3-4 1-1 2-2 3-3 1-2 2-3 3-4 1-2 2-3 3-4 1-1 2-3 3-4 1-1 2-2 3-4 1-1 2-3 3-4 1-1 1-3 2-4 1-1 2-3 3-4 1-1 2-3 3-4 1-1 2-3 3-5 0-1 1-2 2-3 1-2 2-3 3-5 1-1 1-2 2-4 1-1 2-3 3-5 0-1 1-2 2-3 1-2 2-4 3-6 0-1 1-2 1-3 2-3 3-6 5-9 0 0 0-1 0-1 2-3 3-5 4-7 0-2 1-3 1-4 1-2 2-4 3-5 0-2 1-3 1-4 1-2 2-4 2-6 1-1 1-2 2-4 1-1 1-3 2-5 0-1 1-3 1-4 1-2 2-3 2-5 1-2 1-3 2-4 0-2 1-4 1-6 1-1 1-3 1-4 1-2 1-4 2-5 0-2 1-3 1-5 1-2 1-3 2-5 0-2 0-3 1-4 0-2 0-4 1-6 0-1 0-3 1-4 0-2 0-4 1-6 0-2 0-3 1-4 0-2 0-4 1-7 0-1 0-2 0-3 1-3 1-5 1-8 1-1 1-1 1-2 0-4 1-7 1-11 0 0 0-1 0-2 0-3 1-5 1-8 0-1 0-2 0-4 0-2 0-4 0-6 1-1 1-3 1-4 0-2 0-4 0-6 0-2 0-3 0-5 0-1 0-3 0-4 0-1 0-1 0-2 0-1 0-3 0-5m-389 507c-276 0-500-224-500-500 0-276 224-500 500-500 276 0 500 224 500 500 0 276-224 500-500 500" horiz-adv-x="1000" />

<glyph glyph-name="calendar" unicode="&#xe80c;" d="M938-25c0-34-29-63-63-63l-750 0c-35 0-62 29-62 63l0 625c0 34 27 63 62 63l64 0 0-63c0-34 28-62 62-62l63 0c34 0 62 28 62 62l0 63 249 0 0-63c0-34 28-62 63-62l62 0c34 0 63 28 63 62l0 63 62 0c34 0 63-29 63-63l0-625z m-687 625l63 0 0 188-63 0 0-188z m437 0l62 0 0 188-62 0 0-188z m187 125l-62 0 0 63c0 34-29 62-63 62l-62 0c-35 0-63-28-63-62l0-63-249 0 0 63c0 34-28 62-62 62l-63 0c-34 0-62-28-62-62l0-63-64 0c-69 0-125-56-125-125l0-625c0-69 56-125 125-125l750 0c69 0 125 56 125 125l0 625c0 69-56 125-125 125l0 0z m-229-461l167 0 0 149-167 0 0-149z m0-226l167 0 0 163-167 0 0-163z m-230 226l168 0 0 149-168 0 0-149z m0-226l168 0 0 163-168 0 0-163z m-228 0l166 0 0 163-166 0 0-163z m0 226l166 0 0 149-166 0 0-149z m625 211l-625 0c-35 0-63-28-63-62l0-375c0-35 28-63 63-63l625 0c34 0 62 28 62 63l0 375c0 34-28 62-62 62l0 0z" horiz-adv-x="1000" />

<glyph glyph-name="check-1" unicode="&#xe80d;" d="M414 158l-327 321-87-89 372-366c12-11 28-18 44-18l2 0c16 1 32 8 44 20l538 583-92 85-494-536z" horiz-adv-x="1000" />

<glyph glyph-name="check-2" unicode="&#xe80e;" d="M497 139c-11-12-27-20-44-20l-2 0c-16 0-32 6-43 18l-216 211 87 90 170-167 268 290 92-85-312-337z m3 711c-276 0-500-224-500-500 0-276 224-500 500-500 276 0 500 224 500 500 0 276-224 500-500 500l0 0z" horiz-adv-x="1000" />

<glyph glyph-name="cimotion" unicode="&#xe80f;" d="M565-145c-10-2-19-3-27-3 9 0 18 1 27 3z m-103-3c-8 0-16 1-25 2 8-1 17-2 25-2z m392 852c-95 94-220 146-354 146-134 0-259-52-354-146-94-95-146-220-146-354s52-259 146-354c79-78 180-127 289-141 0 0 0 0 0 0 1 0 1 0 2-1 9-1 17-1 25-2 13-1 26-2 38-2 0 0 0 0 0 0s0 0 0 0c12 0 25 1 38 2 8 1 17 1 27 3 0 0 0 0 1 0 0 0 0 0 0 0 108 14 209 63 288 141 94 95 146 221 146 354s-52 259-146 354z m-295-560v-240c-19-2-39-4-59-4-20 0-39 2-58 4v246c-58 26-99 84-99 152v18c4-1 9-1 13-1 29 0 55 12 73 32 18-19 43-31 71-31 2 0 3 0 4 0 0-2 0-3 0-5 0-49 40-89 89-89 14 0 25 11 25 25 0 10-6 18-14 22-3 2-7 3-11 3-22 0-39 18-39 39s17 39 39 39h55 13c1 0 1 1 2 1h22 10c18-12 30-31 30-53 0-36-28-65-64-65-18-44-56-78-102-93z m-156 259c-7-19-25-34-47-34-27 0-49 22-49 49v49c0 27 22 50 49 50 20 0 37-12 45-30v-68c0-5 1-10 2-16z m282 2h-87c1 4 2 9 2 14v78c9 11 22 20 38 20 27 0 49-22 49-50v-49c0-5-1-9-2-13z m-135 14c0-27-22-49-50-49-27 0-49 22-49 49v96c0 27 22 50 49 50 28 0 50-23 50-50v-96z m268-387c-56-57-129-98-209-118v197c35 18 65 47 85 81 47 15 81 58 81 110 0 35-16 67-42 88l0 1c3 10 4 18 4 27v49c0 55-44 100-99 100-17 0-33-5-47-13-15 36-50 60-91 60-42 0-77-26-92-63-15 10-33 16-52 16-54 0-99-45-99-100v-49c0-30 14-57 36-76v-40c0-74 38-142 99-182v-206c-81 20-153 61-210 118-88 88-132 203-132 318 0 115 44 230 132 318 81 82 194 132 318 132 124 0 237-50 318-132 88-88 132-203 132-318 0-115-44-230-132-318z" horiz-adv-x="1000" />

<glyph glyph-name="close" unicode="&#xe810;" d="M750 188l-88-88-162 162-162-162-88 88 162 162-162 162 88 88 162-162 162 162 88-88-162-162 162-162z m-250 662c-276 0-500-224-500-500 0-276 224-500 500-500 276 0 500 224 500 500 0 276-224 500-500 500l0 0z" horiz-adv-x="1000" />

<glyph glyph-name="comment" unicode="&#xe811;" d="M950 300c0-110-90-200-200-200h-331l-14-13-153-144v153l-40 8c-94 18-162 101-162 196v300c0 110 90 200 200 200h500c110 0 200-90 200-200v-300z m-200 550h-500c-137 0-250-112-250-250v-300c0-121 88-223 202-245v-179c0-17 6-26 15-26 6 0 13 4 21 11l201 189h311c138 0 250 113 250 250v300c0 138-112 250-250 250z m-504-250h500v50h-500m0-225h500v50h-500m0-225h500v50h-500" horiz-adv-x="1000" />

<glyph glyph-name="currency-cans" unicode="&#xe812;" d="M500 815c-257 0-465-208-465-465s208-465 465-465c257 0 465 208 465 465s-208 465-465 465z m216-776c0-1 0-1-1-1 0 0 0 0 0-1-15-9-30-18-45-26-3-1-6-3-9-4-15-7-31-14-47-19-1 0-1 0-1 0-16-5-32-9-48-12-5 0-9-1-14-2-16-2-33-3-49-3-1 0-1 0-1 0 0 0 0 0 0 0 0 0-1-1-1-1-209 0-379 171-379 380s170 379 379 379c0 0 1 0 1 0 0 0 0 0 0 0 0 0 0 0 1 0 16 0 33-1 49-3 5-1 9-2 14-3 15-2 31-6 46-10 1-1 3-1 4-2 15-4 30-10 44-17 4-2 8-4 12-6 15-7 29-15 42-25 1 0 2 0 2 0 1-1 2-2 3-3 60-43 108-103 135-172 46-29 76-80 76-138 0-58-30-108-76-137-27-71-75-131-137-174z m-216 811c-276 0-500-224-500-500s224-500 500-500c276 0 500 224 500 500s-224 500-500 500z m0-965c-257 0-465 208-465 465s208 465 465 465c257 0 465-208 465-465s-208-465-465-465z m239 282c10-14 15-31 16-48 20 22 37 47 51 74-13-4-26-6-40-6-7 0-14 0-21 1l-34 5c11-7 20-15 28-26z m-238 377c-107 0-194-87-194-194s87-193 194-193c39 0 76 11 108 34 8 5 16 9 25 11l-97 13c-68 8-119 67-119 135 0 69 51 127 119 136l96 12c-8 3-16 6-23 12-33 22-70 34-109 34z m238-11c-7-10-17-19-28-25l34 4c7 1 14 1 21 1 14 0 27-2 40-5-14 27-31 51-51 73-1-17-6-33-16-48z m-174 191c15-3 31-7 46-11-15 4-31 8-46 11z m-444-374c0-209 170-379 379-379 0 0 1 0 1 0-210 0-380 170-380 379z m380 379c0 0-1 0-1 0-209 0-379-170-379-379 0 209 170 379 380 379z m170-41c15-7 29-15 42-25-13 10-27 18-42 25z m-56 23c15-4 30-10 44-17-14 7-29 13-44 17z m-2-723c-16-5-32-9-48-12 16 3 32 7 48 12z m102 50c-15-10-30-19-45-27 15 8 30 17 45 27z m-54-31c-16-8-31-14-47-19 16 5 31 12 47 19z m-159 722c16 0 33-1 49-3-16 2-33 3-49 3z m49-755c-16-2-33-3-49-3 16 0 33 1 49 3z m-50 721c-190 0-345-155-345-345 0-190 155-344 345-344 70 0 137 21 194 61 27 18 33 54 15 80-11 17-29 25-48 25-11 0-23-3-33-10-38-26-82-40-128-40-126 0-229 102-229 228s103 228 229 228c46 0 90-13 128-40 10-7 22-10 33-10 19 0 37 9 48 25 18 26 12 63-15 81-57 40-125 61-194 61z m-48-345c0-51 38-94 89-101l208-26c5-1 11-1 16-1 70 0 128 56 128 128 0 72-58 129-128 129-5 0-11-1-16-1l-208-27c-51-6-89-50-89-101z m308 82c45 0 82-37 82-82 0-45-37-82-82-82-45 0-82 37-82 82 0 45 37 82 82 82z m-215-41c0 10 8 17 17 17s18-7 18-17v-80c0-10-8-18-18-18s-17 8-17 18v80z m307 97c-27 70-74 129-135 172-1 1-2 2-3 3 0 0-1 0-2 0-13 10-28 18-42 25-4 2-8 4-12 6-14 7-29 13-44 17-1 1-3 1-4 2-15 4-31 8-46 11-5 0-9 1-14 2-16 2-33 3-49 3-1 0-1 0-1 0 0 0 0 0 0 0-210 0-380-170-380-379s170-379 380-379c0 0 0 0 0 0 0 0 0 0 1 0 16 0 33 1 49 3 5 1 9 2 14 2 16 3 32 7 48 12 0 0 0 0 1 0 16 5 31 12 47 19 3 1 6 3 9 4 15 8 30 17 45 27 0 0 0 0 0 0 1 0 1 0 1 1 62 43 110 103 137 174 46 29 76 80 76 137 0 58-30 109-76 138z m-47 20c-13 3-26 5-40 5-7 0-14 0-21-1l-34-4c11 6 21 15 28 25 10 15 15 31 16 48 20-22 37-46 51-73z m-269-293l97-13c-9-2-17-6-25-11-32-23-69-34-108-34-107 0-194 86-194 193s87 194 194 194c39 0 76-12 109-34 7-5 15-9 23-12l-96-12c-68-9-119-67-119-136 0-68 51-127 119-135z m158-148c-57-40-124-61-194-61-190 0-345 154-345 344 0 190 155 345 345 345 69 0 137-21 194-61 27-18 33-55 15-81-11-16-29-25-48-25-11 0-23 3-33 10-38 27-82 41-128 41-126 0-229-103-229-229s103-228 229-228c46 0 90 14 128 40 10 7 22 10 33 10 19 0 37-8 48-25 18-26 12-62-15-80z m60 52c-1 17-6 34-16 48-8 11-17 19-28 26l34-5c7-1 14-1 21-1 14 0 27 2 40 6-14-27-31-52-51-74z m11 103c-5 0-11 0-16 1l-208 26c-51 7-89 50-89 101s38 95 89 101l208 27c5 0 11 1 16 1 70 0 128-57 128-129 0-72-58-128-128-128z m-5 46c45 0 82 37 82 82 0 45-37 82-82 82-45 0-82-37-82-82 0-45 37-82 82-82z m0 129c26 0 47-21 47-47s-21-47-47-47c-26 0-47 21-47 47s21 47 47 47z m-198-104c10 0 18 8 18 18v80c0 10-8 18-18 18s-17-8-17-18v-80c0-10 8-18 17-18z" horiz-adv-x="1000" />

<glyph glyph-name="currency-caps" unicode="&#xe813;" d="M754 33c8 6 19 5 25-2l27-34c7 11 13 23 14 37 2 15 7 29 17 41 1 1 2 2 2 3 9 11 21 19 35 24 18 7 33 20 42 36 0 0 0 0 0 0l-42 20c-9 4-13 14-9 23 5 9 15 13 24 9l38-18c0 2 1 5 1 8 0 8-2 17-5 27-3 9-5 18-5 27 0 4 0 7 1 11 2 17 10 34 23 47 16 16 23 36 23 57v1c0 21-7 42-23 58-12 12-20 28-23 45v0c0 5-1 8-1 13 0 9 2 18 5 27 3 10 5 19 5 27 0 8-2 15-4 22l-38-19c-3-1-5-1-8-1-6 0-12 3-15 9-5 9-1 19 8 24l37 18c-10 11-21 20-34 25-15 5-28 14-38 27-9 12-14 26-16 41-2 16-8 31-18 42l-27-35c-4-4-9-6-14-6-4 0-8 1-11 3-7 6-9 17-3 25l28 35c-11 6-23 9-36 9-2 0-5 0-8 0s-6-1-10-1c-7 0-14 1-21 4-19 4-36 17-46 35-8 14-20 23-34 29l-10-46c-2-8-9-13-17-13-2 0-3 0-4 0-10 2-15 12-13 21l11 47c-1 0-1 0-1 0-15 0-30-4-43-13-10-6-21-10-33-12-3 0-7 0-10 0-15 0-30 4-43 12-13 9-28 13-43 13-1 0-3 0-4 0l11-48c2-9-4-18-13-21-1 0-3 0-4 0-8 0-15 5-17 13l-11 46c-11-7-22-16-30-28-6-12-15-20-26-27-12-7-27-12-41-12-4 0-7 0-10 1-3 0-6 0-8 0-15 0-29-5-41-13l28-35c6-7 5-18-2-24-3-3-7-4-11-4-5 0-10 2-14 6l-27 34c-7-11-12-23-13-37-1-10-4-20-9-28-9-19-25-33-45-40-16-6-29-18-39-31l39-18c8-4 12-15 8-24-3-6-9-9-16-9-2 0-5 0-7 1l-37 17c-1-4-2-9-2-14 0-8 2-18 5-27 3-9 5-18 5-27v-2c-1-20-9-41-24-56-7-7-11-13-15-21-3-6-5-12-6-18l41 0c9 0 17-8 18-17s-8-18-18-18l-42 0c3-15 10-30 22-42 6-6 11-13 15-21 5-11 9-24 9-37 0-9-2-18-5-27-3-10-5-19-5-27 0-6 2-11 3-16l39 19c8 5 19 1 23-8 4-8 1-19-8-23l-41-20c9-13 22-24 38-30 10-3 19-8 27-15 15-13 25-32 27-53 1-15 7-27 15-38l30 37c6 8 17 9 24 3s9-17 3-24l-31-41c11-6 24-10 38-10 3 0 6 0 9 1 3 0 6 0 10 0 11 0 22-3 33-7 14-7 26-17 35-31 8-14 21-25 34-31l10 52c1 10 10 16 20 15 9-2 16-11 14-21l-10-54c15 0 29 4 42 13 13 8 28 12 43 12h1c14 0 29-4 42-12 13-9 28-13 43-13 2 0 4 1 6 1l-13 55c-2 9 4 19 13 21 9 2 19-4 21-13l12-52c11 7 22 15 29 27 8 13 19 23 32 30 1 0 2 0 2 1 11 4 22 7 34 7 3 0 6 0 9 0s7-1 10-1c14 0 28 4 40 11l-29 37c-6 7-5 18 2 24z m-32 13c-1-1-2-1-3-2-37-27-79-46-124-58-1 0-1 0-1 0-30-8-61-13-94-13-190 0-347 141-375 323-2 19-4 38-4 57 0 23 2 45 6 67 32 177 187 312 373 312 97 0 186-37 253-97 1-1 2-2 3-3 11-10 21-20 31-31 0-1 0-1 0-1 58-66 93-153 93-247 0-76-23-146-61-205 0 0-1-1-1-2 0 0-1-1-1-1-8-13-18-25-27-37-1 0-1-1-1-1-10-11-20-21-30-31-2-1-4-3-5-5-10-9-21-17-32-25z m102 424c-8-17-19-31-35-42-16-10-34-16-54-16-32 0-62 16-80 43-35 52-93 83-154 83-103 0-187-83-187-185 0-102 84-185 187-185 62 0 120 31 155 84 18 28 48 44 81 44 19 0 37-6 53-16 16-10 27-24 35-41 12 36 20 74 20 114 0 41-8 80-21 117z m-68 162c11-10 21-20 31-31-10 11-20 21-31 31z m61-487c-8-13-18-25-28-37 10 12 20 24 28 37z m-316 587c94 0 183-35 252-97-67 60-156 97-253 97-186 0-341-135-373-312 32 177 187 312 374 312z m221-686c11 8 22 16 32 25-10-9-21-17-32-25z m67 61c-10-11-20-21-30-31 10 10 20 20 30 31z m-664 189c28-182 185-323 375-323 32 0 64 5 94 13-30-8-62-12-93-12-190 0-348 140-376 322z m594-252c-37-27-79-47-124-58 45 12 87 31 124 58z m68 499c-64 96-171 154-286 154-191 0-345-154-345-344 0-190 154-344 345-344 116 0 224 58 288 156 19 29 11 67-18 86-11 7-22 10-34 10-20 0-40-10-52-28-41-63-110-100-184-100-122 0-221 98-221 220 0 121 99 220 221 220 73 0 141-37 183-98 12-18 31-28 51-28 12 0 24 3 35 10 28 19 36 58 17 86z m167-302c1 10 6 19 13 27 22 22 33 50 33 81 0 32-12 61-33 83-7 7-11 16-13 25 0 0 0 0 0 1-1 3-1 5-1 8 0 5 1 10 3 16 4 13 6 26 6 38 0 24-7 46-20 66-14 21-33 36-57 45-8 3-15 8-21 15-5 7-8 15-9 24-4 35-24 67-53 85-18 13-40 19-63 19-4 0-9 0-14-1 0 0-1 0-1 0-1 0-2 0-3 0-4 0-7 1-11 2-12 3-21 10-26 20-14 23-35 40-62 49-12 4-24 6-36 6-22 0-44-6-62-19-5-3-11-5-19-6-1 0-2 0-3 0-1 0-1 0-2 0-8 0-17 2-25 7-17 12-39 18-61 18-7 0-14-1-22-3-30-5-58-24-75-52-4-6-9-11-15-15-7-5-15-7-23-7-1 0-2 0-2 0-1 0-2 0-2 0-5 1-10 1-14 1-27 0-51-9-72-26-24-17-40-46-43-78-1-6-2-11-4-15-6-12-16-21-27-25-25-9-47-27-60-50-11-17-17-38-17-60 0-12 2-25 7-38 2-6 3-11 3-16-1-13-6-25-14-34-9-9-16-19-21-29-6-10-9-21-11-32-1-7-2-14-2-21 0-31 12-60 34-82 3-4 6-8 8-12 4-8 6-15 6-22 0-5-1-10-3-16-5-13-7-26-7-38 0-12 2-24 6-37 12-35 39-63 72-74 5-1 10-4 15-9 8-7 14-18 15-30 3-28 15-53 35-71 19-20 48-33 79-33 5 0 10 0 15 1 1 0 1 0 2 0 0 0 1 0 2 0 6 0 12-1 17-4 10-4 16-10 21-17 18-29 46-49 78-55 7 0 14-1 19-1 22 0 44 6 62 19 7 4 16 6 24 6 9 0 17-2 25-7 18-12 39-18 61-18 11 0 21 2 32 5 0 0 0 0 1 0 1 1 2 1 4 2 26 9 47 26 61 49 4 6 10 12 18 16 0 1 1 1 2 2 6 2 12 3 18 3 0 0 1 0 2 0 0 0 1 0 1 0 5-1 11-1 16-1 27 0 53 10 74 28 2 2 5 4 7 7 18 17 30 42 33 69 1 10 4 17 9 23 0 0 0 1 1 1 0 1 1 2 2 3 5 6 11 10 18 12 32 12 57 36 70 69 1 2 1 4 2 6 3 12 5 24 5 36 0 12-2 25-6 38-2 6-3 11-3 16l0 3c0 2 1 2 1 4z m-12 51c-13-13-21-30-23-47-1-4-1-7-1-11 0-9 2-18 5-27 3-10 5-19 5-27 0-3-1-6-1-8l-38 18c-9 4-20 0-24-9-4-9 0-19 9-23l42-20c0 0 0 0 0 0-9-16-24-29-42-36-14-5-26-13-35-24 0-1-2-2-2-3-10-12-15-26-17-41-2-14-7-26-15-37l-26 34c-6 7-17 8-25 2-7-6-8-17-2-24l28-37c-11-7-25-11-39-11-4 0-7 0-10 1s-6 0-10 0c-11 0-22-3-33-7 0-1-2-1-2-1-13-7-24-17-32-30-7-12-18-20-29-27l-12 52c-2 9-12 15-21 13-10-2-15-12-13-21l13-55c-2 0-4-1-6-1-15 0-30 4-43 13-13 8-28 12-43 12h0c-15 0-30-4-43-12-13-9-27-13-42-13l10 54c1 10-5 19-14 21-10 1-19-5-21-15l-9-52c-14 6-26 17-35 31-8 14-20 24-35 31-10 4-21 7-32 7-4 0-7 0-10 0-3-1-6-1-9-1-14 0-27 4-39 10l32 41c6 7 5 18-3 24s-18 5-24-3l-30-37c-8 11-14 23-15 38-2 21-13 40-27 53-8 7-17 12-27 15-16 6-29 16-38 30l41 20c8 4 12 15 8 23-4 9-15 13-24 8l-38-19c-1 5-3 10-3 16 0 8 2 17 5 27 3 9 5 18 5 27 0 13-4 26-10 37-3 8-8 15-14 21-12 12-19 27-22 42l42 0c10 0 17 8 17 18s-8 17-17 17l-41 0c1 6 3 12 6 18 4 8 8 14 15 21 14 15 23 35 23 56v2c0 9-1 18-4 27-3 9-5 19-5 27 0 5 1 10 2 14l37-17c2-1 5-1 7-1 7 0 13 3 16 9 4 9 0 20-8 24l-39 18c10 13 23 25 39 31 20 7 36 21 45 40 5 8 8 18 9 28 1 14 6 26 13 37l27-34c4-4 9-6 14-6 4 0 8 1 11 4 7 6 8 17 2 24l-28 35c12 8 26 13 41 13 2 0 5 0 8 0 3-1 6-1 10-1 14 0 29 5 41 12 11 7 20 15 26 27 8 12 19 21 30 28l11-46c2-8 9-13 17-13 1 0 3 0 4 0 9 3 15 12 13 21l-11 48c1 0 3 0 4 0 15 0 30-4 43-13 13-8 28-12 43-12 3 0 7 0 10 0 12 2 23 6 33 12 13 9 28 13 43 13 0 0 0 0 1 0l-11-47c-2-9 3-19 13-21 1 0 2 0 4 0 8 0 15 5 17 13l10 46c14-6 26-15 34-29 10-18 27-31 46-36 7-2 14-3 21-3 4 0 7 0 10 1s6 0 8 0c13 0 25-3 36-9l-28-35c-6-8-4-19 3-25 3-2 7-3 11-3 5 0 10 2 14 6l27 35c10-11 16-26 18-42 2-15 7-29 16-41 10-13 23-22 38-27 13-5 25-14 34-25l-37-18c-9-5-13-15-8-24 3-6 9-9 15-9 3 0 5 0 8 1l38 19c2-7 4-14 4-22 0-8-2-17-5-27-3-9-5-18-5-27 0-5 1-8 1-13v0c3-17 11-33 23-45 16-16 23-37 23-58v-1c0-21-7-41-23-57z m-126 271c-1 1-3 3-4 4-8 12-16 23-25 33 0 0 0 0 0 1-10 11-20 21-31 31-1 1-2 2-3 3-69 62-158 97-252 97-187 0-342-135-374-312-4-22-6-44-6-67 0-19 2-38 4-57 28-182 186-322 376-322 31 0 63 4 93 12 0 0 0 0 1 0 44 11 87 31 124 58 1 1 2 1 3 2 11 8 21 17 31 25 2 2 4 4 6 5 10 10 20 20 29 31 1 0 1 1 1 1 10 12 19 24 28 37 0 0 1 1 1 1 0 1 1 2 1 2 38 59 60 130 60 205 0 76-22 146-61 205-1 2-1 3-2 5z m-27-398c-64-98-172-156-288-156-191 0-345 154-345 344 0 190 154 344 345 344 115 0 222-58 286-154 19-28 11-67-17-86-11-7-23-10-34-10-21 0-40 10-52 28-42 61-110 98-183 98-122 0-221-99-221-220 0-122 99-220 221-220 74 0 143 37 184 100 12 18 32 28 52 28 12 0 23-3 34-10 29-19 37-57 18-86z m36 74c-8 17-19 31-35 41-16 10-34 16-53 16-33 0-63-16-81-44-35-53-93-84-155-84-103 0-187 83-187 185 0 102 84 185 187 185 61 0 119-31 154-83 18-27 48-43 80-43 20 0 38 6 54 16 16 11 27 25 35 42 13-37 21-76 21-117 0-40-8-78-20-114z" horiz-adv-x="1000" />

<glyph glyph-name="delete-2" unicode="&#xe814;" d="M859 850l-359-359-359 359-141-141 359-359-359-359 141-141 359 359 359-359 141 141-359 359 359 359" horiz-adv-x="1000" />

<glyph glyph-name="delete" unicode="&#xe815;" d="M950-50c0-28-22-50-50-50l-800 0c-28 0-50 22-50 50l0 800c0 28 22 50 50 50l800 0c28 0 50-22 50-50l0-800z m-50 900l-800 0c-55 0-100-45-100-100l0-800c0-55 45-100 100-100l800 0c55 0 100 45 100 100l0 800c0 55-45 100-100 100l0 0z m-173-273c-14 15-38 15-53 0l-174-174-174 174c-14 15-38 15-53 0-14-15-14-39 0-53l174-174-174-174c-14-15-14-39 0-53 8-8 17-11 27-11 9 0 19 3 26 11l174 174 174-174c8-8 17-11 27-11 9 0 19 3 26 11 15 14 15 38 0 53l-174 174 174 174c15 14 15 38 0 53" horiz-adv-x="1000" />

<glyph glyph-name="descending" unicode="&#xe816;" d="M375 101h-61v749h-125v-749h-64c-28 0-39-19-25-42l123-192c15-23 39-23 54 0l123 192c15 23 4 42-25 42m246-75l18 52c17 45 31 94 45 142h4c14-47 29-97 45-142l18-52h-130z m120 253h-106l-166-429h92l39 116h172l39-116h95l-165 429z m149 217h-269l267 283v71h-402v-75h290l-290-300v-54h404" horiz-adv-x="1000" />

<glyph glyph-name="dislike" unicode="&#xe817;" d="M708 725h-444c0 0-139 0-139-143 0-119 0-88 0-220 0-137 139-137 139-137s66 0 109 0c0-47 0-49 0-92 0-95 70-158 137-158 42 0 198 0 198 0v250h167v500h-167z m-84-495v-172h-114c-22 0-54 27-54 76v91 84h-83-107c-58 1-58 39-58 53v220c0 16 0 58 56 60h360v-412z" horiz-adv-x="1000" />

<glyph glyph-name="down-loginpage" unicode="&#xe818;" d="M500 38c-16 0-32 6-44 18l-456 455 89 89 411-411 412 411 88-89-456-455c-12-12-28-18-44-18" horiz-adv-x="1000" />

<glyph glyph-name="download" unicode="&#xe819;" d="M850 247h-100v-150h-499v150h-101c-82 0-150 0-150 0v-247c0-83 68-150 150-150h700c83 0 150 67 150 150v247c0 0-67 0-150 0z m88-247c0-48-40-88-88-88h-700c-48 0-87 40-87 88v184h87 38v-87c0-35 28-63 63-63h499c35 0 63 28 63 63v87h37 88v-184z m-475 236c10-9 23-14 36-14s25 5 35 14l279 280c20 19 13 35-14 35h-149v157 42 50c0 28-22 50-50 50h-200c-27 0-50-22-50-50v-50-199h-151c-28 0-34-16-15-36l279-279z m-113 252h63v63 199 38h175v-38-42-157-63h62 48l-199-199-200 199h51l0 0z" horiz-adv-x="1000" />

<glyph glyph-name="dropdown" unicode="&#xe81a;" d="M500 50c-25 0-51 10-70 29l-430 429 140 142 360-359 360 359 140-142-430-429c-19-19-45-29-70-29" horiz-adv-x="1000" />

<glyph glyph-name="edit" unicode="&#xe81b;" d="M964 718l-96 96c-25 24-57 36-89 36s-64-12-88-36l-569-568 1-1-121-318c-11-52 23-86 76-75l317 122 0 0c0 0 0 0 0 0l569 568c48 48 48 127 0 176z m-790-763l-70 66 68 176 182-174-180-68z m221 107l-44 44-96 96-45 44 321 320 184-184-320-320z m364 364l-184 184 54 53 184-184-54-53z m161 160l-63-62-184 184 62 62c12 11 28 18 44 18 17 0 33-7 44-18l97-96c24-25 24-64 0-88z" horiz-adv-x="1000" />

<glyph glyph-name="email" unicode="&#xe81c;" d="M875 6l-750 0c-18 0-33 8-45 19l271 256 77-62c20-16 46-24 72-24 26 0 52 8 73 24l76 62 271-255c-12-12-27-20-45-20l0 0z m-812 506l239-192-239-225 0 417z m0 119c0 35 28 63 62 63l750 0c35 0 63-28 63-63l0-39-405-324c-17-14-49-14-66 0l-404 324 0 39z m875-536l-239 225 239 192 0-417z m-63 661l-750 0c-69 0-125-56-125-125l0-562c0-69 56-125 125-125l750 0c69 0 125 56 125 125l0 562c0 69-56 125-125 125l0 0z" horiz-adv-x="1000" />

<glyph glyph-name="etc-fill" unicode="&#xe81d;" d="M250 350c0-71-56-127-125-127s-125 56-125 127 56 128 125 128 125-58 125-128z m-125 245c69 0 125 57 125 127s-56 128-125 128-125-57-125-127 56-128 125-128z m0-490c-69 0-125-57-125-128s56-127 125-127 125 57 125 127-56 128-125 128z" horiz-adv-x="250" />

<glyph glyph-name="etc-outline" unicode="&#xe81e;" d="M500 600c-55 0-100 45-100 100 0 55 45 100 100 100 55 0 100-45 100-100 0-55-45-100-100-100m0 250c-83 0-150-67-150-150 0-83 67-150 150-150 83 0 150 67 150 150 0 83-67 150-150 150m0-950c-55 0-100 45-100 100 0 55 45 100 100 100 55 0 100-45 100-100 0-55-45-100-100-100m0 250c-83 0-150-67-150-150 0-83 67-150 150-150 83 0 150 67 150 150 0 83-67 150-150 150m0 100c-55 0-100 45-100 100 0 55 45 100 100 100 55 0 100-45 100-100 0-55-45-100-100-100m0 250c-83 0-150-67-150-150 0-83 67-150 150-150 83 0 150 67 150 150 0 83-67 150-150 150" horiz-adv-x="1000" />

<glyph glyph-name="eye" unicode="&#xe81f;" d="M426 359c-32 0-58 26-58 58 0 32 26 58 58 58 32 0 58-26 58-58 0-32-26-58-58-58m74 204c-111 0-200-89-200-200 0-110 89-200 200-200 110 0 199 90 199 200 0 111-89 200-199 200m0-468c-270 0-423 209-461 269 38 60 191 269 461 269 269 0 422-210 460-269-38-60-190-269-460-269m0 572c-338 0-500-303-500-303 0 0 162-302 500-302 337 0 499 302 499 302 0 0-162 303-499 303" horiz-adv-x="1000" />

<glyph glyph-name="eyebrow" unicode="&#xe820;" d="M391 236c-56 29-212 114-282 78-69-36-94-88-107-54-13 35 35 207 138 207 104 0 246-88 277-128 30-41 11-122-26-103m218 0c56 29 213 114 282 78 69-36 94-88 107-54 13 35-34 207-138 207-104 0-246-88-276-128-31-41-12-122 25-103" horiz-adv-x="1000" />

<glyph glyph-name="face" unicode="&#xe821;" d="M849 226c-3 0-5 1-7 1 0 8 0 15 0 23l0 210c3 0 5 1 7 1 64 0 116-53 116-118 0-64-52-117-116-117l0 0z m-40 24c0-82-14-140-98-244-60-76-109-103-194-106l0 453 292 0 0-103z m-520-244c-83 104-98 162-98 244l0 103 292 0 0-453c-84 3-134 30-194 106l0 0z m-98 499c0 270 228 306 292 311l0-430-292 0 0 119z m618 0l0-119-292 0 0 430c65-5 292-41 292-311l0 0z m-659-279c-64 0-117 53-117 117 0 65 53 118 117 118 3 0 5-1 8-1l0-210c0-8 0-15 0-23-2 0-5-1-8-1l0 0z m699 268c-2 0-4 0-7-1l0 12c0 272-215 345-342 345-127 0-342-73-342-345l0-12c-3 0-5 1-8 1-83 0-150-67-150-151 0-83 67-150 150-150 4 0 7 1 11 1 9-72 38-129 102-209 71-89 131-119 237-119 106 0 166 30 237 119 64 80 93 137 102 209 3-1 6-1 10-1 82 0 150 67 150 150 0 84-68 151-150 151l0 0z" horiz-adv-x="1000" />

<glyph glyph-name="facebook" unicode="&#xe822;" d="M833 850h-666c-92 0-167-75-167-167v-666c0-92 75-167 167-167h666c92 0 167 75 167 167v666c0 92-75 167-167 167z m-178-287h-49c-25 0-57-13-57-55v-71h96v-100h-96v-291h-108v291h-96v100h96v108c0 66 59 109 107 109h107v-91z" horiz-adv-x="1000" />

<glyph glyph-name="facialhair" unicode="&#xe823;" d="M972 585c-19 22-44 34-72 34-21 0-38-7-50-21-21-23-21-34-21-38 0-7 4-13 10-16 6-2 12-1 17 3 0 0 24 17 40 8 10-6 15-24 12-40-2-10-9-27-36-29-24 0-56 32-90 65-34 34-71 71-113 88-18 7-37 11-57 11-50 0-93-24-112-36-19 12-62 36-112 36-20 0-39-4-57-11-42-17-79-54-113-88-34-33-66-65-92-65l0 0c-25 2-32 19-34 29-3 16 2 34 12 40 16 9 40-8 40-8 5-5 12-6 17-3 6 3 10 9 10 16 0 4 0 15-21 38-12 14-29 21-50 21-28 0-53-12-72-34-23-29-32-48-26-95 9-81 84-175 264-175 132 0 205 92 234 141 29-49 102-141 234-141 179 0 255 94 264 175 6 47-3 66-26 95m-386-388c-34 11-56 40-86 40-31 0-52-29-86-40-52-17-198 98-163 27 47-96 183-174 249-174 62 0 201 78 248 174 35 71-111-44-162-27" horiz-adv-x="1000" />

<glyph glyph-name="female" unicode="&#xe824;" d="M650 850c-193 0-350-157-350-350 0-79 27-150 71-209l-115-115-169 169-71-71 169-168-185-185 71-71 185 185 169-169 70 70-169 170 116 115c58-44 130-71 208-71 194 0 350 156 350 350 0 193-156 350-350 350z m177-527c-47-47-110-73-177-73-137 0-250 112-250 250 0 138 112 250 250 250 138 0 250-112 250-250 0-67-26-130-73-177z" horiz-adv-x="1000" />

<glyph glyph-name="femalehair" unicode="&#xe825;" d="M938 487c-43 181-133 309-247 350-66 24-133 15-191-24-57 39-125 48-191 24-114-41-204-169-247-350-46-148-102-431-21-553 55-83 124-87 160-83 52 7 94 38 103 63 1 4 1 9-1 13-2 4-6 7-10 8-2 1-171 57-75 430 0 3 1 5 2 8 93 27 180 72 238 122 46-67 130-115 250-142 8-2 16 2 19 9 4 7 2 15-4 20-1 1-48 39-87 93 35-10 78-21 130-32 4-24 10-50 16-78 89-372-73-430-75-430-4-1-8-4-10-8-2-4-2-9-1-13 9-25 51-57 103-63 5-1 12-1 19-1 38 0 94 14 141 84 81 122 25 405-21 553" horiz-adv-x="1000" />

<glyph glyph-name="follower" unicode="&#xe826;" d="M938-5l0-14-33 0-110 0 0 14 0 52c0 33-11 63-28 88l138 0c18 0 33-16 33-33l0-107z m-205-83l-88 0-299 0-88 0 0 135c0 48 40 88 88 88l299 0c49 0 88-40 88-88l0-135z m-537 135l0-52 0-14-101 0-32 0 0 14 0 107c0 18 14 33 32 33l130 0c-18-25-29-55-29-88l0 0z m-101 150c-52 0-95-43-95-95l0-2 0-105 0-14c0-35 19-63 43-63l52 0 101 0 0-6c0-34 28-62 62-62l88 0 299 0 88 0c34 0 62 28 62 62l0 6 110 0 52 0c24 0 43 28 43 63l0 14 0 105 0 2c0 52-43 95-95 95l-810 0z m93 403c4 0 8-1 12-1-2-15-4-29-4-45 0-69 25-131 64-182-20-14-45-23-72-23-69 0-125 57-125 126 0 69 56 125 125 125m131 110c41-42 149-126 380-126 7 0 15 1 22 1 2-10 3-20 3-31 0-128-104-232-233-232-128 0-233 104-233 232 0 61 24 115 61 156m172 78c96 0 178-58 214-141-208-1-304 71-338 104 36 23 79 37 124 37m296-234c0 15-2 29-4 42 9 3 19 4 29 4 69 0 126-56 126-125 0-69-57-126-126-126-32 0-60 12-83 32 36 49 58 108 58 173m-599-267c44 0 84 15 116 41 51-43 116-69 187-69 76 0 144 29 196 76 34-30 77-48 125-48 92 0 168 66 185 153 2 11 3 23 3 35 0 104-84 188-188 188-16 0-30-3-44-6-42 112-150 193-277 193-126 0-232-79-275-190-9 1-18 3-28 3-92 0-168-66-184-153-3-12-4-23-4-35 0-12 1-24 4-35 16-87 92-153 184-153" horiz-adv-x="1000" />

<glyph glyph-name="friends" unicode="&#xe827;" d="M906-88l-5 0-63 0-207 0 0 135c0 16-3 30-8 44l215 0c37 0 68-31 68-68l0-111z m-394 0l-5 0-26 0-300 0-87 0 0 135c0 48 39 88 87 88l300 0c48 0 87-40 87-88l0-135-56 0z m326 242l-252 0c-27 26-64 43-105 43l-300 0c-82 0-150-67-150-150l0-135c0-34 28-62 63-62l87 0 300 0 22 0 65 0 8 0 262 0 72 0c19 0 36 11 46 26 8 11 13 23 13 36l0 108 0 3c0 72-59 131-131 131l0 0z m-679 556c40-42 149-126 380-126 7 0 15 1 22 1 1-10 3-20 3-31 0-128-105-232-233-232-129 0-233 104-233 232 0 61 23 115 61 156m172 78c95 0 178-58 214-141-208-1-305 71-338 104 36 23 78 37 124 37m283-152c28 16 61 27 96 27 108 0 196-88 196-197 0-108-88-196-196-196-67 0-126 34-162 86 48 52 78 122 78 198 0 29-5 56-12 82m-283-377c64 0 123 21 171 55 47-64 122-106 208-106 127 0 231 91 254 210 3 16 5 32 5 48 0 143-116 259-259 259-44 0-84-12-120-31-50 93-147 156-259 156-163 0-296-132-296-296 0-163 133-295 296-295" horiz-adv-x="1000" />

<glyph glyph-name="fullname" unicode="&#xe828;" d="M648 197h-296c-82 0-149-67-149-150v-135c0-34 28-62 63-62 0 0 4 0 86 0h296c82 0 86 0 86 0 35 0 63 28 63 62v135c0 83-67 150-149 150z m-58-62l-67-68c-12-12-32-12-44 0l-67 68h178z m144-223h-86-296-86v135c0 40 26 73 62 84l107-108c17-18 41-28 66-28s49 10 66 28l107 107c35-11 60-44 60-83v-135z m-238 347c162 0 293 132 293 295 0 164-131 296-293 296-162 0-293-132-293-296 0-163 131-295 293-295z m206 397c-199 0-296 56-336 90 37 26 82 42 130 42 91 0 169-54 206-132z m-382 47c48-43 158-110 378-110 8 0 16 1 24 1 2-13 4-26 4-40 0-128-103-233-230-233-127 0-230 105-230 233 0 57 21 108 54 149z m176-334c61 0 111 50 111 112h-223c0-62 50-112 112-112z" horiz-adv-x="1000" />

<glyph glyph-name="hi-lo" unicode="&#xe829;" d="M313 101h-61v749h-125v-749h-64c-29 0-40-19-25-42l122-192c15-23 40-23 55 0l122 192c15 23 4 42-25 42m157 321h375v142h-375m0-428h250v143h-250m0-429h125v143h-125m0 714h500v143h-500" horiz-adv-x="1000" />

<glyph glyph-name="hide-password" unicode="&#xe82a;" d="M806 136c79 53 146 126 194 214-103 187-288 313-500 313-67 0-131-15-191-38l-115 113c-24 24-64 24-88 0s-25-63 0-87l362-356c0 0 0-1 0-1l338-332c24-24 64-24 88 0s25 63 0 87l-88 87z m-304 464c138 0 250-112 250-250 0-46-13-89-35-126l-70 69c7 17 11 37 11 57 0 86-70 156-156 156 0 0-29 0-60-12l-70 69c38 23 82 37 130 37z m0-500c-138 0-250 112-250 250 0 18 2 35 5 51l-120 120c-54-48-101-105-137-171 103-187 288-312 500-312 37 0 73 5 108 12l-55 55c-17-3-34-5-51-5z" horiz-adv-x="1000" />

<glyph glyph-name="instagram" unicode="&#xe82b;" d="M734 527c-6 14-12 24-23 34-10 11-20 17-34 23-11 4-27 9-56 10-31 2-41 2-121 2-80 0-89 0-121-2-29-1-45-6-56-10-14-6-24-12-34-23-11-10-17-20-23-34-4-11-9-27-10-56-2-31-2-41-2-121s0-90 2-121c1-29 6-45 10-56 6-14 12-24 23-34 10-11 20-17 34-23 11-4 27-9 56-10 32-2 41-2 121-2 80 0 90 0 121 2 29 1 45 6 56 10 14 6 24 12 34 23 11 10 17 20 23 34 4 11 9 27 10 56 2 31 2 41 2 121s0 90-2 121c-1 29-6 45-10 56z m-234-331c-85 0-154 69-154 154 0 85 69 154 154 154 85 0 154-69 154-154 0-85-69-154-154-154z m160 278c-20 0-36 16-36 36 0 20 16 36 36 36 20 0 36-16 36-36 0-20-16-36-36-36z m173 376h-666c-92 0-167-75-167-167v-666c0-92 75-167 167-167h666c92 0 167 75 167 167v666c0 92-75 167-167 167z m-35-624c-1-32-6-53-14-72-7-20-18-37-34-54s-34-26-53-34c-20-8-41-13-73-14-32-2-42-2-124-2-81 0-92 0-124 2-32 1-53 6-72 14-20 8-37 18-54 34-16 17-26 34-34 54-8 19-13 40-14 72-1 32-2 43-2 124s1 92 2 124c1 32 6 53 14 73 8 19 18 36 34 53 17 16 34 27 54 34 19 8 40 13 72 14 32 2 43 2 124 2 82 0 92 0 124-2 32-1 53-6 73-14 19-7 36-18 53-34s27-34 34-53c8-20 13-41 14-73s2-42 2-124 0-92-2-124z" horiz-adv-x="1000" />

<glyph glyph-name="kebab" unicode="&#xe82c;" d="M500 850c-86 0-156-70-156-156s70-156 156-156c86 0 156 70 156 156s-70 156-156 156z m0-250c-52 0-94 42-94 94 0 52 42 94 94 94 52 0 94-42 94-94 0-52-42-94-94-94z m0-437c-86 0-156-70-156-157 0-86 70-156 156-156 86 0 156 70 156 156 0 87-70 157-156 157z m0-251c-52 0-94 43-94 94 0 52 42 94 94 94 52 0 94-42 94-94 0-51-42-94-94-94z m0 594c-86 0-156-70-156-156 0-86 70-156 156-156 86 0 156 70 156 156 0 86-70 156-156 156z m0-250c-52 0-94 42-94 94 0 52 42 94 94 94 52 0 94-42 94-94 0-52-42-94-94-94z" horiz-adv-x="1000" />

<glyph glyph-name="like" unicode="&#xe82d;" d="M736 475c0 0-66 0-109 0 0 47 0 48 0 91 0 96-70 159-137 159-42 0-198 0-198 0v-250h-167v-500h167 444c0 0 139 0 139 143 0 119 0 88 0 220 0 137-139 137-139 137z m56-357c0-16 0-58-56-60h-360v412 172h114c22 0 53-27 53-76v-91-83h84 109c25 0 56-10 56-54v-220z" horiz-adv-x="1000" />

<glyph glyph-name="lips" unicode="&#xe82e;" d="M501 133c-219 0-354 78-447 258 111-16 374-35 448-35 73 0 334 19 445 35-93-180-228-258-446-258m-140 450c19-7 93-33 139-33 0 0 0 0 1 0 0 0 0 0 0 0 46 0 120 26 139 33 25-5 164-35 300-159-108-15-368-35-438-35-71 0-333 20-441 35 135 123 275 154 300 159m631-169c0 2 0 4-1 5 0 1 0 1 0 2-1 1-2 2-3 4 0 0 0 0 0 0-165 164-340 190-347 192-3 0-6 0-8-1-1-1-86-33-132-33l0 0-1 0c-46 0-131 32-132 33-2 1-5 1-8 1-7-2-182-28-347-192 0 0 0 0 0 0-1-1-1-2-2-3 0 0 0-1 0-1-1-1-1-1-1-2-1-1-1-2-1-3 0 0 0-1 0-1 0-1-1-1-1-2 0-1 1-2 1-3 0 0 0-1 0-1 0-1 1-2 1-2 0-1 0-1 0-1 98-212 249-306 491-306 241 0 392 94 490 306 0 0 0 1 0 1 0 0 1 1 1 1 0 0 0 1 0 1 0 1 1 3 1 4 0 1-1 1-1 1" horiz-adv-x="1000" />

<glyph glyph-name="lo-hi" unicode="&#xe82f;" d="M313 101h-61v749h-125v-749h-64c-29 0-40-19-25-42l122-192c15-23 40-23 55 0l122 192c15 23 4 42-24 42m156 35h375v143h-375m0 143h250v142h-250m0 143h125v143h-125m0-1000h500v143h-500" horiz-adv-x="1000" />

<glyph glyph-name="login-page-down-arrow-16" unicode="&#xe830;" d="M500 69c-16 0-32 6-44 18l-456 456 89 88 411-411 412 411 88-88-456-456c-12-12-28-18-44-18z" horiz-adv-x="1000" />

<glyph glyph-name="male" unicode="&#xe831;" d="M950 850h-545v-100h424l-270-271c-58 44-131 72-210 72-193 0-349-157-349-350 0-194 156-351 349-351 193 0 349 157 350 350-1 78-27 150-70 208l271 271 0-425h100l0 546c0 13-5 26-15 35s-22 15-35 15z m-601-900c-137 0-249 113-249 251 0 138 112 250 249 250 138 0 250-113 250-251 0-137-112-250-250-250z" horiz-adv-x="1000" />

<glyph glyph-name="malehair" unicode="&#xe832;" d="M1000 297c0 46-71 289-198 289-14 0-28-3-42-8-16 40-68 122-204 122-18 0-38-2-59-5-163-29-246-105-307-169-34-36-58-61-83-61l0 0c-21 0-44 16-73 53-5 6-10 7-14 7-6 0-14-4-17-16-8-37-11-265 147-334 21-81 68-138 70-139 6-4 13-3 18 1 2 2 35 69 61 174 60 5 342 3 443 121l52-87c1-19 7-96 37-200 1-6 5-10 10-11 1-1 3-1 4-1 4 0 8 2 11 6 3 5 95 102 87 232 0 0 24-15 39-9 18 7 18 20 18 35" horiz-adv-x="1000" />

<glyph glyph-name="meatball" unicode="&#xe833;" d="M844 506c-86 0-156-70-156-156 0-86 70-156 156-156 86 0 156 70 156 156 0 86-70 156-156 156z m0-250c-52 0-94 42-94 94 0 52 42 94 94 94 51 0 94-42 94-94 0-52-43-94-94-94z m-688 250c-86 0-156-70-156-156 0-86 70-156 156-156 87 0 157 70 157 156 0 86-70 156-157 156z m0-250c-51 0-93 42-93 94 0 52 42 94 93 94s94-42 94-94c0-52-42-94-94-94z m344 250c-86 0-156-70-156-156 0-86 70-156 156-156 86 0 156 70 156 156 0 86-70 156-156 156z m0-250c-52 0-94 42-94 94 0 52 42 94 94 94s94-42 94-94c0-52-42-94-94-94z" horiz-adv-x="1000" />

<glyph glyph-name="mobile-achievement-default-36" unicode="&#xe834;" d="M850 850h-14-86-250-250-85-15-150c0 0 0-232 0-290 0-98 37-197 171-224 39-124 128-176 242-192v-36c0-104-58-110-126-126-36-8-54-42-54-69 0-32 0-63 0-63h172 87 7 3 76 180 9c0 0 0 27 0 59 0 32-18 65-54 73-68 16-126 22-126 126v36c114 16 203 68 242 192 134 27 171 126 171 224 0 58 0 290 0 290h-150z m-808-290v248h108c0-69 0-210 0-314 0-42 4-79 10-112-80 22-118 80-118 178z m649-616l13-2c21-5 21-30 21-33v-17h-223-3-224v21c0 8 5 25 22 29l12 2c62 14 146 33 146 164v32c15-1 30-1 45-1s30 0 45 1v-32c0-131 84-150 146-164z m117 550c0-223-89-314-308-314s-308 91-308 314v314h16 292 292 16v-314z m150 66c0-98-38-156-118-178 6 33 10 70 10 112 0 104 0 245 0 314h108v-248z m-313 30l-13 2-70 10-25 50-6 13-6 12v0c-14 28-36 28-50 0l0 0-6-12-6-13-25-50-69-10-14-2c-31-5-38-26-16-48v0l11-9 10-10 40-39-10-56-2-13-3-14c-5-31 13-44 41-29l12 6 12 7 50 26 50-26 12-7 12-6c28-15 46-2 41 29l-3 14-12 69 40 39 11 10 10 9c0 0 0 0 0 0 22 22 15 43-16 48z" horiz-adv-x="1000" />

<glyph glyph-name="mobile-setting-default-36" unicode="&#xe835;" d="M820 334c0 5 1 11 1 16 0 5-1 11-1 16l132 119c17 16 22 45 10 65l-58 101c-2 3-5 6-8 9 0 1-1 1-2 2-2 3-6 5-9 7-1 0-1 0-2 1-3 1-7 3-10 4-1 0-2 0-2 0-4 1-8 2-12 2-1 0-1 0-1 0-1 0-1 0-1 0-5 0-9-1-14-2l-169-55c-9 6-18 11-28 16l-37 174c-5 23-28 41-51 41h-116c-23 0-46-18-51-41l-37-174c-10-5-19-10-28-16l-169 55c-4 1-9 2-13 2-1 0-1 0-2 0 0 0 0 0-1 0-4 0-8-1-11-2-1 0-2 0-3 0-3-1-7-3-10-4-1-1-1-1-2-1-3-2-6-4-9-7-1-1-2-1-2-2-3-3-6-6-8-9l-58-102c-12-19-7-48 10-64l132-119c0-5-1-11-1-16 0-5 1-11 1-16l-132-119c-17-16-22-45-10-65l58-101c2-3 5-6 8-9 0-1 1-1 2-2 3-3 6-5 9-7 1 0 1 0 2-1 3-1 7-3 10-4 1 0 2 0 3 0 3-1 7-2 11-2 1 0 1 0 1 0 1 0 1 0 2 0 4 0 9 1 13 2l169 55c9-6 18-11 28-16l37-174c5-23 28-41 51-41h116c23 0 46 18 51 41l37 174c10 5 19 10 28 16l169-55c5-1 9-2 14-2 0 0 0 0 1 0 0 0 0 0 1 0 4 0 8 1 12 2 0 0 1 0 2 0 3 1 7 3 10 4 1 1 1 1 2 1 3 2 7 5 10 7 0 1 1 1 1 2 3 3 6 6 8 10l58 101c12 19 7 48-10 64l-132 119z m36 300c0 0 1 0 2 0 4 0 9-2 10-4l58-101c2-3 1-10-2-13l-110-99c-14 67-50 127-100 171l142 46z m-424 167c1 3 6 7 10 7h116c4 0 9-4 10-7l31-146c-31 10-64 16-99 16-35 0-68-6-99-16l31 146z m-356-285c-3 3-4 10-2 13l58 101c1 2 6 4 10 4 1 0 2 0 2 0l142-46c-50-44-85-104-100-171l-110 99z m68-450c0 0-1 0-2 0-4 0-9 3-10 4l-58 101c-2 3-1 10 2 13l110 99c15-67 50-127 100-171l-142-46z m424-167c-1-3-6-7-10-7h-116c-4 0-9 4-10 7l-31 146c31-10 64-16 99-16 35 0 68 6 99 16l-31-146z m-68 172c-154 0-279 125-279 279 0 154 125 279 279 279 154 0 279-125 279-279 0-154-125-279-279-279z m426 100l-58-101c-1-2-6-4-10-4-1 0-2 0-2 0l-142 46c50 44 85 104 100 171l110-99c3-3 4-10 2-13z m-426 341c-89 0-162-73-162-162 0-89 73-162 162-162s162 73 162 162c0 89-73 162-162 162z m0-282c-66 0-120 54-120 120 0 66 54 121 120 121 67 0 121-55 121-121 0-66-54-120-121-120z" horiz-adv-x="1000" />

<glyph glyph-name="mobile-store-default-36" unicode="&#xe836;" d="M900 675v100c0 41-34 75-75 75h-650c-41 0-75-34-75-75v-100l-100-187c0 0 0-32 0-71v-47c0-38 34-70 75-70h25v-422c0-16 13-28 28-28h744c16 0 28 12 28 28v422h25c41 0 75 32 75 70v47c0 39 0 71 0 71l-100 187z m-649-48h138v-285h-138v285z m180 0h138v-285h-69-69v285z m180 0h138v-285h-138v285z m-469 148c0 18 15 33 33 33h650c18 0 33-15 33-33v-100h-358-358v100z m-67-433c-18 0-33 13-33 28v47 60l79 150c14 0 33 0 54 0h34v-285h-134z m404-450l-187 0v265h187v-265z m42 0v265h187v-265l-187 0z m337 0h-108v279c0 15-12 28-28 28h-444c-15 0-28-13-28-28v-279h-108v408h716v-408z m100 525v-47c0-15-15-28-33-28h-134v285h34c21 0 40 0 54 0l79-150v-60z" horiz-adv-x="1000" />

<glyph glyph-name="mobile-trend-default-36" unicode="&#xe837;" d="M945 850h-889c-31 0-56-25-56-56v-83c0-30 25-55 56-55h0v-530c0-46 37-83 83-83h111l-27-27c-39-39-40-101-3-139 19-18 43-27 67-27 26 0 52 10 72 30l140 140 141-140c20-20 46-30 71-30 25 0 49 9 67 27 38 38 37 100-2 139l-27 27h112c46 0 83 37 83 83v530h1c30 0 55 25 55 55v83c0 31-25 56-55 56z m-615-941c-12-11-27-17-43-17-14 0-27 5-37 15-21 21-20 57 2 79l57 57h154l-133-134z m416 77c11-11 18-25 18-41 0-15-5-28-15-38-10-10-23-15-38-15-15 0-30 6-42 17l-133 134h154l56-57z m157 140c0-23-19-42-42-42h-722c-23 0-42 19-42 42v530h806v-530z m55 585c0-7-6-14-13-14h-889c-8 0-14 7-14 14v83c0 8 6 14 14 14h889c7 0 13-6 13-14v-83z m-306-147h126v-389h-126z m-215-121h126v-268h-126z m-215-122h126v-146h-126z" horiz-adv-x="1000" />

<glyph glyph-name="mood-happy" unicode="&#xe838;" d="M500-88c-241 0-437 197-437 438 0 138 64 261 163 341 62-62 255-211 692-214 13-40 20-83 20-127 0-241-197-438-438-438m0 876c173 0 322-101 393-247-378 8-554 131-613 186 64 38 139 61 220 61m-500-438c0-276 224-500 500-500 276 0 500 224 500 500 0 276-224 500-500 500-276 0-500-224-500-500z m698 63c-69 0-124-56-124-124l62 0c0 34 28 61 62 61 33 0 61-27 61-61l62 0c0 68-55 124-123 124m-375-63c33 0 61-27 61-61l62 0c0 68-55 124-123 124-69 0-124-56-124-124l62 0c0 34 28 61 62 61m187-253c-158 0-186 123-187 128l-62-13c13-61 81-177 249-178l0 0c0 0 0 0 0 0l0 0c168 1 236 117 249 178l-62 13c-1-5-29-128-187-128" horiz-adv-x="1000" />

<glyph glyph-name="mood-normal" unicode="&#xe839;" d="M500-88c-241 0-437 197-437 438 0 138 64 261 163 341 62-62 255-211 692-214 13-40 20-83 20-127 0-241-197-438-438-438m0 876c173 0 322-101 393-247-378 8-554 131-613 186 64 38 139 61 220 61m0 62c-276 0-500-224-500-500 0-276 224-500 500-500 276 0 500 224 500 500 0 276-224 500-500 500m-187-562c34 0 62 27 62 62 0 34-28 63-62 63-35 0-63-29-63-63 0-35 28-62 63-62m375 0c34 0 62 27 62 62 0 34-28 63-62 63-35 0-63-29-63-63 0-35 28-62 63-62m-185-101c-115 0-233 38-234 38l-19-60c5-1 128-40 253-40 125 0 248 39 253 40l-19 60c-1 0-119-38-234-38" horiz-adv-x="1000" />

<glyph glyph-name="mood-sad" unicode="&#xe83a;" d="M500-88c-241 0-437 197-437 438 0 138 64 261 163 341 62-62 255-211 692-214 13-40 20-83 20-127 0-241-197-438-438-438m0 876c173 0 322-101 393-247-378 8-554 132-613 186 64 38 140 61 220 61m0 62c-276 0-500-224-500-500 0-276 224-500 500-500 276 0 500 224 500 500 0 276-224 500-500 500m-1-625h-1c-167 0-235-116-248-178l61-13c1 6 30 128 188 128 157 0 186-122 187-128l61 13c-12 62-80 178-248 178m-311 63h184v62h-184m437-62h185v62h-185" horiz-adv-x="1000" />

<glyph glyph-name="nationality" unicode="&#xe83b;" d="M906 245c-51-16-97-24-141-24-61 0-113 16-167 32-62 19-127 38-210 38-60 0-124-11-192-32l0 109c179 70 274 43 372 14 55-17 111-34 181-34 45 0 97 8 157 27l0-130z m-710 441c71 26 134 39 192 39 65 0 118-16 174-33 61-18 124-37 203-37 45 0 92 7 141 19l0-233c-146-51-231-26-320 1-100 30-205 60-390-7l0 251z m569 32c-142 0-230 70-377 70-54 0-117-10-192-36l0 67c0 17-14 31-32 31l-16 0c-17 0-31-14-31-31l0-907-86 0 0-62 117 0 16 0 118 0 0 62-86 0 0 281c75 26 138 35 192 35 147 0 235-69 377-69 57 0 122 11 204 42l0 559c-82-31-147-42-204-42l0 0z" horiz-adv-x="1000" />

<glyph glyph-name="next-2" unicode="&#xe83c;" d="M500-150c276 0 500 224 500 500 0 276-224 500-500 500-276 0-500-224-500-500 0-276 224-500 500-500z m-84 207l306 260c9 8 14 20 14 32 0 12-5 23-14 31l-306 260-55-63 270-228-270-229 55-63z" horiz-adv-x="1000" />

<glyph glyph-name="next" unicode="&#xe83d;" d="M300-88l-81 95 403 343-403 343 81 95 459-391c14-11 22-29 22-47 0-18-8-35-22-47l-459-391z" horiz-adv-x="1000" />

<glyph glyph-name="nose" unicode="&#xe83e;" d="M881 49c-31-34-84-54-144-54l-48 0c7 21 12 43 12 66 0 9-7 16-17 16-9 0-16-7-16-16 0-90-80-162-177-162-98 0-178 72-178 162 0 9-7 16-16 16-9 0-17-7-17-16 0-23 5-45 13-66l-49 0c-60 0-113 20-144 54-26 29-37 67-32 113 11 117 115 169 212 169 2 0 4 1 6 1 1 1 1 1 2 2 1 0 2 1 3 2 1 0 1 1 1 2 1 1 2 2 3 3 0 0 0 1 0 2 1 1 1 1 1 2l54 318c13 105 58 154 141 154 82 0 127-49 140-154l54-318c0-1 1-1 1-2 0-1 0-2 1-2 0-1 1-2 2-3 0-1 1-2 1-2 1-1 2-2 3-2 1-1 2-1 2-2 2 0 4-1 6-1 98 0 201-52 213-169 4-46-7-84-33-113m66 116c-14 132-124 194-231 199l-52 304c-15 121-73 182-173 182l0 0 0 0c0 0 0 0 0 0-100 0-159-61-174-182l-51-304c-108-5-218-67-231-199-6-55 8-102 40-138 38-42 98-65 169-65l65 0c37-58 104-96 182-96 77 0 144 38 181 96l65 0c71 0 131 23 169 65 32 36 46 83 41 138" horiz-adv-x="1000" />

<glyph glyph-name="notif-comment" unicode="&#xe83f;" d="M733 850h-500c-138 0-233-111-233-249v-333c0-121 83-245 167-245v-147c0-17 15-26 24-26 5 0 17 2 25 10l206 155h311c137 0 267 115 267 253v333c0 138-130 249-267 249z m184-582c0-92-93-169-184-169h-340l-32-16-111-79v95h-65c-68 0-102 93-102 169v333c0 92 58 166 150 166h500c91 0 184-74 184-166v-333z m-667 81h500v-83h-500z m0 251h500v-84h-500z" horiz-adv-x="1000" />

<glyph glyph-name="notif-dislike" unicode="&#xe840;" d="M664 350l0-417-83 0c-34 0-81 37-81 107l0 141 0 83-83 0-249 0c-39 1-85 16-85 81l0 333c0 71 46 88 84 89l497 0 0-417z m83 500l-580 0c0 0-167 0-167-172l0-333c0-164 167-164 167-164l250 0 0-141c0-114 83-190 164-190l166 0 0 331 253 0 0 669-253 0 0 0z" horiz-adv-x="1000" />

<glyph glyph-name="notif-like" unicode="&#xe841;" d="M833 519c0 0-198 0-250 0 0 57 0 89 0 141 0 114-83 190-164 190-49 0-166 0-166 0v-331h-253v-669h253 80 500c0 0 167 0 167 172 0 143 0 175 0 333 0 164-167 164-167 164z m84-497c0-71-46-88-84-89h-497v417 417h83c34 0 81-37 81-107v-141c0-46 37-83 83-83h249c39-1 85-16 85-81v-333z" horiz-adv-x="1000" />

<glyph glyph-name="notif-star" unicode="&#xe842;" d="M726 106l-81-59-146 179-148-177-82 60 119 194-200 84 31 95 211-53 20 224 102-1 17-222 213 48 31-95-201-81 114-196z m-222 744c-277 2-502-220-504-496-2-276 220-502 496-504 277-2 502 220 504 496 2 277-220 502-496 504l0 0z" horiz-adv-x="1000" />

<glyph glyph-name="only-me" unicode="&#xe843;" d="M750-88l0 0-94 0-312 0-94 0 0 0 0 135c0 7 1 13 3 20 9 38 46 68 91 68l312 0c45 0 82-30 92-68 1-7 2-13 2-20l0-135z m-94 285l-312 0c-86 0-156-67-156-150l0-135c0-34 28-62 62-62l94 0 312 0 94 0c34 0 63 28 63 62l0 135c0 83-71 150-157 150l0 0z m-328 513c40-42 149-126 380-126 7 0 15 1 22 1 1-10 3-20 3-31 0-128-105-232-233-232-129 0-233 104-233 232 0 61 23 115 61 156m172 78c95 0 178-58 214-141-208-1-305 71-338 104 36 23 78 37 124 37m0-529c163 0 296 132 296 295 0 164-133 296-296 296-163 0-296-132-296-296 0-163 133-295 296-295" horiz-adv-x="1000" />

<glyph glyph-name="phone" unicode="&#xe844;" d="M834 686c-106 106-246 164-396 164l0-62c133 0 258-52 352-146 94-94 146-219 146-352l62 0c0 150-58 290-164 396m-57-396l63 0c0 222-180 402-402 402l0-63c187 0 339-152 339-339m-83-361c-4-4-24-14-67-14-43 0-198 14-374 189l-1 0-1 1c-220 222-196 418-175 442l132 131 0 0 0 0 132-131-86-86c-60-60-31-151 86-268 78-78 142-116 195-116 29 0 54 10 74 30l85 85 132-131-132-132z m44 307c-12 13-28 19-44 19-16 0-32-6-44-19l-86-85c-8-8-18-12-29-12-43 0-105 52-151 98-57 58-125 141-86 180l86 86c24 24 24 64 0 88l-132 132c-12 12-28 18-44 18-16 0-32-6-44-18l-132-132c-57-58-59-295 175-530 0 0 0 0 0 0 0 0 0-1 1-1 0 0 0 0 1-1l0 0c156-155 313-207 418-207 53 0 92 13 111 33l132 131c24 25 24 65 0 89l-132 131z" horiz-adv-x="1000" />

<glyph glyph-name="pinterest" unicode="&#xe845;" d="M833 850h-666c-92 0-167-75-167-167v-666c0-92 75-167 167-167h666c92 0 167 75 167 167v666c0 92-75 167-167 167z m-93-438c-10-128-74-174-87-186-13-11-129-77-193 8l-33-119c0 0-16-41-30-53 0 0-40 11-41 16 0 0-3 56 4 75l48 199c0 0-21 56-6 94 0 0 24 66 75 55 0 0 46-11 36-71l-27-94c0 0-12-44 8-62 0 0 35-44 95-3 0 0 43 17 60 130 0 0 14 100-40 142 0 0-63 60-175 23 0 0-85-29-102-120 0 0-16-53 20-108 0 0 9-3 5-20l-11-35c0 0-7-7-17-1 0 0-85 30-67 171 0 0 16 120 135 165 119 45 220 1 233-6 12-6 120-71 110-200z" horiz-adv-x="1000" />

<glyph glyph-name="place-activ" unicode="&#xe846;" d="M412 50h-161c-12 0-34-11-42-20l-103-130h344 100 344l-103 130c-8 9-30 20-42 20h-161c-50-61-88-99-88-99s-38 38-88 99z m554-161l-137 172c-17 21-53 39-80 39h-121c-14-18-27-35-40-50h161c12 0 34-11 42-20l103-130h-344-100-344l103 130c8 9 30 20 42 20h161c-13 15-26 32-40 50h-121c-27 0-63-18-80-39l-137-172c-17-21-9-39 19-39h397c28 0 72 0 100 0h398c27 0 35 18 18 39z m-466 135c71 79 227 267 265 436 2 8 3 14 4 21l2 9c2 14 3 26 3 37 0 151-123 273-274 273s-273-122-273-273c0-11 1-23 2-37 1-3 1-6 2-9 1-7 2-13 4-20 38-170 194-358 265-437z m-149 503c0 82 67 149 149 149 82 0 149-67 149-149 0-83-67-150-149-150-82 0-149 67-149 150z m61-477c50-61 88-99 88-99s38 38 88 99c13 15 26 32 40 50 74 96 158 226 185 349 2 8 4 16 5 24 1 3 1 7 2 10 2 15 3 29 3 44 0 178-144 323-323 323-178 0-323-145-323-323 0-15 1-29 3-44 1-3 1-7 2-10 1-8 3-16 5-24 27-123 111-253 185-349 14-18 27-35 40-50z m-181 431c-1 3-1 6-2 9-1 14-2 26-2 37 0 151 122 273 273 273s274-122 274-273c0-11-1-23-3-37l-2-9c-1-7-2-13-4-21-37-169-194-357-265-436-71 79-227 267-265 437-2 7-3 13-4 20z" horiz-adv-x="1000" />

<glyph glyph-name="place-noactiv" unicode="&#xe847;" d="M550-100h-100-344l103 129c8 10 30 21 42 21h161c50-61 88-99 88-99s38 38 88 99h161c12 0 34-11 42-21l103-129h-344z m-315 561c-2 7-3 13-4 20-1 3-1 6-2 9-1 14-2 26-2 37 0 151 122 273 273 273 151 0 273-122 273-273 0-11 0-23-2-37l-2-9c-1-7-2-13-4-21-38-169-194-357-265-436-71 79-227 267-265 437l0 0z m731-572l-137 172c-17 21-53 39-80 39h-121c0-1-1-1-1-1 75 96 159 227 186 350 2 8 4 16 5 24 1 3 1 7 2 10 2 15 3 29 3 44 0 178-144 323-323 323-178 0-323-145-323-323 0-15 1-29 3-44 1-3 1-7 2-10 1-8 3-16 5-24 27-123 111-254 186-350 0 0-1 0-1 1h-121c-27 0-63-18-80-39l-137-172c-17-21-9-39 19-39h397 100 398c27 0 35 18 18 39l0 0z m-317 638c0 82-67 149-149 149-82 0-149-67-149-149 0-83 67-150 149-150 82 0 149 67 149 150" horiz-adv-x="1000" />

<glyph glyph-name="prev" unicode="&#xe848;" d="M700-88l81 95-403 343 403 343-81 95-459-391c-14-11-22-29-22-47 0-18 8-35 22-47l459-391z" horiz-adv-x="1000" />

<glyph glyph-name="previous" unicode="&#xe849;" d="M500-150c-276 0-500 224-500 500 0 276 224 500 500 500 276 0 500-224 500-500 0-276-224-500-500-500z m84 207l-306 260c-9 8-14 20-14 32 0 12 5 23 14 31l306 260 55-63-269-228 269-229-55-63z" horiz-adv-x="1000" />

<glyph glyph-name="reply" unicode="&#xe84a;" d="M114 767c0 0-36 0-51 0-20 0-63 0-63 0s0-45 0-60c0-416 251-532 502-532v-83-79-80l269 179 201 133c0 0 0 0 0 0 37 25 37 66 0 91 0 0 0 0 0 0l-201 133-269 179v-79-80-76c-198 0-328 94-378 307-6 24-10 47-10 47z" horiz-adv-x="1000" />

<glyph glyph-name="reset" unicode="&#xe84b;" d="M973 620l-64-37c-80 141-230 236-402 236-173 0-323-96-403-238l108-64c58 104 168 175 295 175 125 0 233-70 292-172l-88-51c-15-9-15-23-1-32l135-79c0-1 0-1 0-1l121-71c0 0 0 0 0 0l5-3c15-8 27-2 27 16l2 305c0 18-12 25-27 16m-466-612c-133 0-249 79-304 192l86 50c15 8 15 23 0 31l-120 72 0 0-119 70 0 0-21 13c-15 8-27 1-27-16l-2-306c0-17 12-24 27-15l67 39c77-153 233-257 413-257 176 0 329 99 407 245l-108 64c-57-108-169-182-299-182" horiz-adv-x="1000" />

<glyph glyph-name="search" unicode="&#xe84c;" d="M831-25l-151 151c16 14 30 29 44 45l151-151-44-45z m-393 125c-173 0-313 140-313 313 0 172 140 312 313 312 172 0 312-140 312-312 0-173-140-313-312-313l0 0z m481-36l-159 158c33 56 53 121 53 191 0 207-168 375-375 375-208 0-375-168-375-375 0-208 167-375 375-375 69 0 134 19 190 52l158-159c12-12 28-18 45-18 16 0 32 6 44 18l44 44c24 25 24 64 0 89l0 0z m-481 560c-117 0-212-95-212-211 0-18 14-32 31-32 18 0 32 14 32 32 0 12 2 24 5 36 13 53 54 94 107 107 12 3 24 5 37 5 17 0 31 14 31 32 0 17-14 31-31 31" horiz-adv-x="1000" />

<glyph glyph-name="share" unicode="&#xe84d;" d="M793-100c-60 0-108 48-108 108 0 59 48 107 108 107 59 0 107-48 107-107 0-60-48-108-107-108m-586 343c-59 0-107 48-107 107 0 59 48 108 107 108 60 0 108-49 108-108 0-59-48-107-108-107m586 557c59 0 107-48 107-107 0-60-48-108-107-108-60 0-108 48-108 108 0 59 48 107 108 107m0-635c-50 0-94-23-123-59l-316 187c7 17 11 37 11 57 0 20-4 40-11 57l316 187c29-36 73-59 123-59 87 0 157 71 157 158 0 87-70 157-157 157-87 0-158-70-158-157 0-20 4-38 10-55l-317-188c-29 35-72 58-121 58-86 0-157-71-157-158 0-87 71-157 157-157 49 0 92 22 121 57l317-188c-6-17-10-35-10-54 0-88 71-158 158-158 87 0 157 70 157 158 0 86-70 157-157 157" horiz-adv-x="1000" />

<glyph glyph-name="show" unicode="&#xe84e;" d="M502 100c-138 0-250 112-250 250 0 138 112 250 250 250 138 0 250-112 250-250 0-138-112-250-250-250m-2 563c-212 0-397-126-500-313 103-187 288-312 500-312 212 0 397 125 500 312-103 187-288 313-500 313m2-157l0-156-156 0c0-86 69-156 156-156 86 0 156 70 156 156 0 86-70 156-156 156" horiz-adv-x="1000" />

<glyph glyph-name="skip" unicode="&#xe84f;" d="M500 350c0-21-8-42-24-58l-358-359-118 117 299 300-299 300 118 117 358-359c16-16 24-37 24-58m500 0c0-21-8-42-24-58l-358-359-118 117 299 300-299 300 118 117 358-359c16-16 24-37 24-58" horiz-adv-x="1000" />

<glyph glyph-name="sticker-button" unicode="&#xe850;" d="M500-56c-224 0-406 182-406 406 0 224 182 406 406 406 19 0 38-2 57-4l0-192c0-52 42-94 93-94l239 0c11-37 17-76 17-116 0-224-182-406-406-406l0 0z m119 762l208-177-177 0c-17 0-31 14-31 31l0 146z m320-190l-345 293c-30 7-62 10-94 10-259 0-469-210-469-469 0-259 210-469 469-469 259 0 469 210 469 469 0 58-11 114-30 166l0 0z m-583-159c0 31-25 56-56 56-31 0-56-25-56-56 0-31 25-57 56-57 31 0 56 26 56 57m333 58c-31 0-57-25-57-57 0-31 26-56 57-56 31 0 56 25 56 56 0 32-25 57-56 57m-190-289c-117 0-180 90-183 93l-51-35c3-5 83-120 234-120 156 0 232 116 236 121l-53 34c-2-4-62-93-183-93" horiz-adv-x="1000" />

<glyph glyph-name="title" unicode="&#xe851;" d="M992 321l-30 40c-13 16-16 46-7 65l21 45c9 19 2 43-17 53l-44 24c-18 10-33 36-32 57l1 50c1 21-16 40-37 41l-50 4c-21 2-45 19-53 39l-19 46c-8 20-30 30-50 23l-47-17c-20-7-49-1-64 14l-36 34c-15 15-40 15-56 0l-36-34c-15-15-44-21-64-14l-46 17c-20 7-43-3-51-23l-19-46c-8-20-32-37-53-39l-50-4c-21-1-37-20-37-41l2-50c0-21-15-47-33-57l-44-24c-19-10-26-34-17-53l21-45c10-19 6-49-6-65l-31-40c-13-17-10-42 6-55l38-33c16-14 25-42 20-62l-12-49c-4-21 8-42 28-48l48-14c20-6 40-28 44-49l9-49c3-21 24-36 45-33l49 6c21 3 48-9 60-26l28-42c12-17 36-22 54-11l42 26c18 11 48 11 66 0l42-26c18-11 43-6 55 11l28 42c11 17 38 29 59 26l50-6c20-3 41 12 44 33l9 49c4 21 24 43 44 49l48 14c20 6 33 27 28 48l-12 49c-5 20 4 48 20 62l38 33c16 13 19 38 6 55z m-492-306c-184 0-333 150-333 335 0 185 149 335 333 335 96 0 182-41 242-106l-244-265-146 144-61-62 178-176c8-8 19-13 31-13 0 0 0 0 1 0 11 1 22 6 31 14l262 286c25-47 39-100 39-157 0-185-149-335-333-335z" horiz-adv-x="1000" />

<glyph glyph-name="trend-activity" unicode="&#xe853;" d="M977 23c0 0-40 21-116 99-16 16-35 43-50 64 52 75 82 155 82 233 12 4 22 11 30 20 14 16 19 37 16 61-1 1-1 1-1 2l-4 24-4 25-3 17 12 12 18 17 18 17c0 0 0 1 0 1 22 21 30 49 22 74-8 25-31 43-62 47l-24 4-42 6-19 38-11 22c-13 27-37 44-64 44-26 0-50-17-64-44l-11-22-19-38-1 0c-87 60-189 104-293 104-91 0-183-34-267-119-144-146-141-312-79-456-12-19-21-40-28-62-7-24-12-49-12-75l-1-22 1 0c1-26 6-51 15-76 0-2 1-4 1-6 20-54 55-99 99-130l0-1c1-1 2-1 3-2 2-1 5-3 7-4 9-6 18-12 28-17 2-1 4-2 5-3 11-5 22-9 34-13l1 0 5-2 11-4 0 1c9-2 17-4 26-5 1-1 2-1 2-1 13-2 25-3 38-3 1 0 3 0 4 0 2 0 3 0 4 0 0 0 0 0 1 0 30 1 61 6 91 17 31 11 59 28 83 48 15 12 28 25 40 40 59 14 119 44 174 87 21-14 47-32 63-48 76-77 95-120 95-120 7-15 18-22 31-22 8 0 17 4 26 12l98 99c19 20 15 47-9 60z m-355 664l25 3 68 10 30 62 11 22c3 6 7 10 11 13 3 1 6 3 8 3 7 0 14-5 20-16l11-22 30-62 68-10 24-3c24-4 29-20 12-37 0 0 0 0 0 0l-18-17-17-18-32-30 8-43 4-24 4-25c0 0 0 0 0 0 1-5 1-9 0-13 0-1-1-2-1-3-1-3-2-5-4-7-1 0-1-1-2-1-3-2-6-3-9-3-5 0-10 2-15 5l-22 11-61 32-61-32-21-11c-6-3-11-5-15-5-4 0-7 1-10 3 0 0-1 1-1 1-2 2-4 4-5 7 0 1 0 2-1 3 0 4-1 8 0 13 0 0 0 0 0 0l4 25 5 24 7 43-31 31-18 17-18 17c0 0 0 0 0 0-17 17-11 33 12 37z m-383-480l-48-72-91 3-40 54c14 51 47 97 93 128l51-16 35-97z m-12 107l30 43c8 1 16 2 24 2 53 0 102-18 142-50l1-48-78-69-83 23-36 99z m-10-356l-61-21c-41 27-74 66-92 114-1 4-1 7-2 11l36 51 94-3 53-68-28-84z m142-44c-25-9-52-14-78-14-3 0-6 0-8 0l-34 45 30 91 81 29 84-51 0-55c-21-19-47-35-75-45z m140 147l-61-21-74 46-3 86 79 70 48-15c3-7 7-12 9-19 17-48 17-99 2-147z m39-42c6 15 11 30 15 46 10 43 11 89-1 134-2 8-5 17-8 25 0 0 0 1 0 1-5 13-10 25-17 36-1 3-2 6-4 8-6 10-12 20-19 30l1 0-17 19h0c-4 4-8 8-12 12-2 2-4 3-6 5-9 9-18 16-28 23-2 2-5 3-7 4-2 2-3 3-5 4l-1 0c-44 28-95 43-148 43-2 0-4 0-6 0l-1 0c-13 0-26-1-39-4-2 0-4 0-7-1-14-3-29-6-43-12-30-10-57-26-80-45-10-8-20-17-29-26-42 113-45 249 79 375 69 69 147 104 233 104 68 0 144-24 217-66-25-7-44-23-52-45-8-25 1-53 22-75l18-17 18-17 13-12-3-17-5-25-4-24c0-1 0-1 0-2-4-24 2-45 15-61 12-15 30-23 50-23 13 0 26 4 39 10l22 12 37 20 21-11 17-9 22-12c2-1 5-2 8-3 0-104-60-208-138-287-54-54-111-93-167-117z m329-105c-14 22-42 61-96 116-15 15-37 32-57 45 9 9 18 17 26 26 14 14 27 29 40 43 14-20 31-43 46-58 56-57 94-85 113-99l-72-73z" horiz-adv-x="1000" />

<glyph glyph-name="trend-people" unicode="&#xe854;" d="M450 197h-299c-83 0-150-67-150-150v-147c0-28 22-50 50-50 0 0 17 0 100 0h299c83 0 100 0 100 0 28 0 50 22 50 50v147c0 83-67 150-150 150z m-37-50l-94-94c-9-9-26-9-35 0l-94 94h223z m-360-80c-1-6-2-13-2-20 0 7 1 14 2 20z m397-167h-299-100v145c0 7 1 15 2 22 8 37 35 66 70 76l125-125c15-14 33-22 54-22 20 0 38 8 53 22l124 124c40-12 69-47 71-90 0-3 1-5 1-8v-144h-101z m-154 359c164 0 296 132 296 295 0 164-132 296-296 296-83 0-158-35-212-90l-4-2c0-1 1-1 1-1-50-53-80-124-80-202 0-164 132-296 295-296z m0 541c102 0 189-62 227-150-213-4-323 62-370 103 40 29 89 47 143 47z m-181-81c51-47 167-119 390-119 10 0 21 0 32 0 3-15 5-30 5-46 0-135-110-245-246-245-135 0-245 110-245 245 0 64 24 121 64 165z m181-350c62 0 113 50 113 112h-225c0-62 50-112 112-112z m702-7c-9 25-32 43-62 47l-25 4-42 6-18 38-11 22c-14 28-38 44-64 44-27 0-51-16-65-44l-11-22-18-38-42-6-25-4c-30-4-53-22-61-47-9-25 0-53 22-75l17-17 18-17 13-12-3-18-5-24-4-24c0-1 0-2 0-2-4-24 2-46 15-61 12-15 31-23 50-23 13 0 26 3 39 10l22 12 37 19 38-19 22-12c13-7 26-10 39-10 19 0 38 8 50 23 13 15 19 37 15 61 0 0 0 1 0 2l-4 24-5 25-3 17 13 12 17 17 18 17c0 0 1 1 1 1 22 21 30 49 22 74z m-57-39c0 0 0 0 0 0l-18-17-18-18-31-30 7-43 4-25 5-24v0c1-5 0-10-1-14 0-1 0-2-1-3-1-2-2-4-4-6 0-1-1-1-1-2-3-1-6-2-10-2-4 0-9 1-15 4l-22 12-60 32-61-32-22-12c-6-3-11-4-15-4-4 0-7 1-9 2-1 1-1 1-2 2-2 2-3 4-4 6-1 1-1 2-1 3-1 4-1 9-1 14v0l5 24 4 25 7 43-31 30-18 18-17 17 0 0c-18 17-12 33 11 37l25 3 68 10 30 62 11 22c3 7 7 11 12 13 2 2 5 3 7 3 7 0 14-5 20-16l11-22 30-62 68-9 25-4c23-4 29-20 12-37z" horiz-adv-x="1000" />

<glyph glyph-name="trend-place" unicode="&#xe855;" d="M500 343c0 4-1 8 0 14-1-6 0-10 0-14z m2 4c-2 1-3 4-4 6 1-2 2-5 4-6z m2 2c0 0 1 0 1 0-4 0-7 1-10 2 3-1 6-2 9-2z m0 3c-3 0-5-2-8-4 3 2 5 4 8 4l0 0z m-8-3c3 0 6 1 9 2-3-1-6-2-10-2 0 0 1 0 1 0z m6 4c-1-2-2-4-4-6 2 2 3 4 4 6z m-2 4c1-6 0-10 0-14 1 4 1 8 0 14z m490-468l-144 172c-18 21-57 39-85 39h-128c79 96 167 226 196 349 2 8 4 16 5 24 1 3 1 7 2 10 2 15 3 29 3 44 0 178-152 323-340 323s-340-145-340-323c0-15 1-29 3-44 1-3 1-7 2-10 1-8 3-16 5-24 29-123 117-253 195-349h-127c-28 0-67-18-85-39l-144-172c-18-21-9-39 20-39h419c28 0 76 0 104 0h419c29 0 38 18 20 39z m-770 572c-2 7-3 13-4 20-1 3-1 6-2 9-2 14-3 26-3 37 0 151 129 273 288 273 159 0 288-122 288-273 0-11-1-23-3-37l-2-9c-1-7-2-13-4-21-40-169-204-357-279-436-75 79-239 267-279 437z m331-561h-104l-362 0 108 130c8 9 31 20 44 20h169c53-61 93-99 93-99s40 38 93 99h169c13 0 36-11 44-20l109-130h-363z m-13 432l23-12c14-7 27-10 41-10 20 0 40 8 52 23 14 15 20 37 16 61 0 0 0 1 0 1l-5 25-4 24-3 17 13 12 19 18 18 17c0 0 0 0 1 0 22 22 31 49 22 75-8 25-32 42-64 47l-26 3-44 7-19 37-12 23c-14 27-39 44-67 44-28 0-53-17-67-45l-12-22-19-37-44-7-26-3c-32-5-56-22-64-47-9-26 0-53 23-75l18-17 19-18 13-12-3-17-4-24-5-25c0 0 0-1 0-2-4-23 2-45 16-61 13-14 32-22 52-22 14 0 27 3 41 10l23 11 39 20 39-19z m-103 44l-22-12c-6-3-12-4-16-4 0 0-1 0-1 0-3 0-6 1-9 2-1 1-1 1-2 2-2 2-3 4-4 6 0 1-1 2-1 3-1 4-1 8 0 14 0 0 0 0 0 0l4 24 5 25 7 43-32 30-19 17-19 18c0 0 0 0 0 0-18 17-12 33 13 36l26 4 70 10 32 61 12 22c3 7 7 11 12 14 2 1 5 3 8 3l0 0c7 0 15-6 20-17l12-22 31-61 71-10 26-3c25-4 31-20 13-37 0 0 0 0 0 0l-19-17-19-18-32-30 7-43 5-25 4-24c0 0 0 0 0 0 1-5 1-10 0-14 0-1-1-2-1-3-1-2-2-4-4-6-1-1-1-1-2-2-3-1-6-2-9-2 0 0-1 0-1 0-4 0-10 1-16 4l-23 12-63 31-64-31z" horiz-adv-x="1000" />

<glyph glyph-name="trend-posting" unicode="&#xe856;" d="M997 123c-8 26-31 43-62 48l-24 3-11 2v574c0 55-45 100-100 100h-700c-25 0-48-10-65-25h0v0c-21-18-35-45-35-75v-700c0-55 45-100 100-100h514l-2-14c0-1 0-2 0-2-4-24 1-45 15-61 12-15 30-23 50-23 13 0 26 3 39 10l22 12 37 19 37-19 22-12c13-7 26-10 39-10 20 0 38 8 50 23 14 16 19 37 16 61-1 1-1 1-1 2l-4 24-4 25-3 17 12 12 18 17 18 18c0 0 0 0 0 0 22 21 30 49 22 74z m-947 627c0 28 23 50 50 50h700c28 0 50-22 50-50v-149h-800v149z m573-750h-523c-28 0-50 23-50 50v501h800v-333l-11 22c-13 28-37 44-64 44-16 0-31-6-43-17l-100 162c-22 36-59 37-83 1l-88-134c-23-35-69-43-102-17l-11 9c-33 26-80 19-105-15l-81-111c-25-34-12-61 30-61h359c1-19 9-37 24-52l18-18 18-17 12-12 0-2z m317 84c0 0 0 0 0 0l-18-17-18-17-31-31 8-43 4-24 1-5 3-20c0 0 0 0 0 0 1-5 1-9 0-13 0-1-1-2-1-3-1-3-3-5-4-7-1 0-1-1-2-1-3-2-6-3-9-3-5 0-10 1-15 4l-22 12-61 32-61-32-22-12c-5-3-10-4-15-4-3 0-6 1-9 3-1 0-1 1-2 1-1 2-3 4-4 7 0 1 0 1-1 3-1 3-1 8 0 13 0 0 0 0 0 0l4 25 5 24 7 43-31 31-18 17-18 17c0 0 0 0 0 0-17 17-12 34 12 37l25 4 67 10 31 61 11 22c3 7 7 11 11 13 3 2 5 3 8 3 7 0 14-5 19-16l11-22 31-61 67-10 25-4c24-3 29-20 12-37z m-67-144c4 0 7 1 9 3-3-2-6-3-9-2 0 0 0-1 0-1z" horiz-adv-x="1000" />

<glyph glyph-name="tumblr" unicode="&#xe857;" d="M833 850h-666c-92 0-167-75-167-167v-666c0-92 75-167 167-167h666c92 0 167 75 167 167v666c0 92-75 167-167 167z m-179-725c-21-10-41-17-58-21-17-4-36-6-56-6-23 0-43 2-61 8-17 6-32 14-45 25-12 11-21 22-26 34-4 12-7 30-7 52v176h-55v71c20 6 36 15 50 27 15 12 26 26 34 43 9 17 15 38 18 64h71v-127h118v-78h-118v-128c0-29 1-48 4-56 4-8 9-15 18-20 11-7 23-10 38-10 25 0 50 8 75 25v-79z" horiz-adv-x="1000" />

<glyph glyph-name="twitter" unicode="&#xe858;" d="M833 850h-666c-92 0-167-75-167-167v-666c0-92 75-167 167-167h666c92 0 167 75 167 167v666c0 92-75 167-167 167z m-130-396c0-4 0-9 0-13 0-139-105-298-298-298-59 0-114 17-160 47 8-1 16-2 25-2 49 0 94 17 130 45-46 1-85 31-98 73 6-1 13-2 20-2 9 0 19 1 27 4-47 9-84 52-84 102v2c15-8 31-13 48-13-28 18-47 50-47 87 0 19 5 37 14 52 52-63 129-105 216-109-1 8-2 16-2 24 0 58 46 105 104 105 30 0 58-13 77-34 24 5 46 14 66 26-8-25-24-45-46-58 21 2 41 8 60 16-14-21-31-39-52-54z" horiz-adv-x="1000" />

<glyph glyph-name="uppercase" unicode="&#xe859;" d="M637 52l42 153h180l41-153h100l-174 567h-111l-174-567h96z m83 302c17 60 33 124 47 187h3c16-62 31-127 49-187l18-70h-136l19 70z m-720-404h1000v-100h-1000z m148 102h250v451h148l-137 187-101 140 0 0c-19 27-51 27-70 0v0l-101-140-137-187h148v-451z" horiz-adv-x="1000" />

<glyph glyph-name="warning" unicode="&#xe85a;" d="M937-50c-1-1-8-6-27-6l-820 0c-19 0-26 5-27 6-1 1-2 11 8 28l415 759c6 11 11 16 14 18 3-2 8-7 14-18l416-759c9-17 8-27 7-28m47 58l-415 759c-19 34-44 52-69 52-25 0-50-18-69-52l-415-759c-38-70-5-127 74-127l820 0c79 0 112 57 74 127m-484 187c34 0 63 28 63 62l0 219c0 34-29 63-63 63-34 0-62-29-62-63l0-219c0-34 28-62 62-62m0-51c-42 0-76-34-76-77 0-42 34-76 76-76 42 0 77 34 77 76 0 43-35 77-77 77" horiz-adv-x="1000" />

<glyph glyph-name="with" unicode="&#xe85b;" d="M766-108l-108 0-300 0-108 0 0 155c0 50 34 91 79 104l136-136c12-12 27-18 44-18l0 0c17 0 33 6 44 18l137 135c44-14 76-54 76-103l0-155z m-130 263l-112-111c-4-4-9-6-15-6l0 0c-5 0-11 2-15 6l-110 111 252 0z m22 42l-300 0c-82 0-150-67-150-150l0-155c0-23 19-42 42-42l108 0 300 0 108 0c23 0 42 19 42 42l0 155c0 83-68 150-150 150l0 0z m-154 104c-140 0-254 114-254 253 0 75 33 142 84 189 46-45 165-126 413-118 7-22 11-46 11-71 0-139-114-253-254-253m0 549c-163 0-296-132-296-296 0-163 133-295 296-295 163 0 295 132 295 295 0 164-132 296-295 296m0-481c62 0 112 50 112 112l-225 0c0-62 51-112 113-112" horiz-adv-x="1000" />

<glyph glyph-name="zoom-in" unicode="&#xe85c;" d="M979 22l-181 182c38 63 60 138 60 217 0 237-192 429-429 429-237 0-429-192-429-429s192-429 429-429c79 0 154 23 217 60l182-181c14-14 32-21 50-21 19 0 37 7 51 21l50 50c28 28 28 74 0 101z m-550 33c-202 0-366 164-366 366s164 367 366 367c202 0 366-165 366-367s-164-366-366-366z m506-89l-50-51c-3-2-5-3-7-3s-4 1-6 3l-173 173c23 19 44 40 63 63l173-173c3-3 3-9 0-12z m-319 487h-156v156c0 17-14 31-31 31s-31-14-31-31v-156h-157c-17 0-31-14-31-32s14-31 31-31h157v-156c0-17 14-31 31-31s31 14 31 31v156h156c18 0 32 14 32 31s-14 32-32 32z" horiz-adv-x="1000" />

<glyph glyph-name="zoom-out" unicode="&#xe85d;" d="M979 22l-181 182c38 63 60 138 60 217 0 237-192 429-429 429-237 0-429-192-429-429s192-429 429-429c79 0 154 23 217 60l182-181c14-14 32-21 50-21 19 0 37 7 51 21l50 50c28 28 28 74 0 101z m-550 33c-202 0-366 164-366 366s164 367 366 367c202 0 366-165 366-367s-164-366-366-366z m506-89l-50-51c-3-2-5-3-7-3s-4 1-6 3l-173 173c23 19 44 40 63 63l173-173c3-3 3-9 0-12z m-319 487h-156-62-157c-17 0-31-14-31-32s14-31 31-31h157 62 156c18 0 32 14 32 31s-14 32-32 32z" horiz-adv-x="1000" />

<glyph glyph-name="star" unicode="&#xe85e;" d="M937 511l-70 11-194 29-86 184-32 67c-30 64-80 64-110 0l-32-67-86-184-194-29-70-11c-68-10-83-59-34-110v0l51-51 50-52 90-92-21-128-12-73-12-73v-1c-12-70 28-101 89-67l63 34 173 95 173-95 63-34c61-34 101-3 90 67v1l-12 73-13 73-21 128 90 92 51 52 50 51c0 0 0 0 0 0 49 51 34 100-34 110z" horiz-adv-x="1000" />

<glyph glyph-name="delete-3" unicode="&#xe85f;" d="M985-65c20-19 20-51 0-70-9-10-22-15-35-15-13 0-26 5-35 15l-415 414-414-414c-10-10-23-15-36-15-13 0-25 5-35 15-20 19-20 51 0 70l414 415-414 415c-20 19-20 51 0 70s51 20 71 0l414-414 415 414c19 20 51 20 70 0 20-19 20-51 0-70l-414-415 414-415z" horiz-adv-x="1000" />

<glyph glyph-name="check-3" unicode="&#xe860;" d="M1000 350c0-276-224-500-500-500s-500 224-500 500c0 276 224 500 500 500s500-224 500-500z m-550-239c18 0 35 8 47 20l337 358-97 88-291-308-185 178-93-94 233-224c13-12 30-18 47-18 1 0 1 0 2 0z" horiz-adv-x="1000" />

<glyph glyph-name="setting-change-password" unicode="&#xe861;" d="M781 561v70c0 121-98 219-218 219h-125c-121 0-219-98-219-219v-69c-2 0-3 0-4 0-87-17-152-93-152-184v-340c0-104 84-188 187-188h500c103 0 188 84 188 188v340c0 92-68 168-157 183z m-343 227h125c86 0 156-71 156-157v-66h-4-59v66c0 51-43 94-93 94h-125c-51 0-94-43-94-94v-66h-4-59v66c0 86 70 157 157 157z m156-223h-4-184v66c0 17 15 32 32 32h125c16 0 31-15 31-32v-66z m281-527c0-70-56-126-125-126h-500c-69 0-125 56-125 126v340c0 69 56 125 125 125h500c69 0 125-56 125-125v-340z m-375 364c-56 0-101-45-101-101 0-39 22-73 54-90v-118c0-34 21-62 47-62s47 28 47 62v118c32 17 54 51 54 90 0 56-45 101-101 101z" horiz-adv-x="1000" />

<glyph glyph-name="setting-logout" unicode="&#xe862;" d="M539 334c0-25-17-46-39-46s-39 21-39 46v469c0 26 18 47 39 47s39-21 39-47v-469z m399-46c0 141-69 274-184 356-19 13-39 25-60 36-19 9-42 1-52-18-10-19-2-43 18-52 17-9 33-19 48-30 95-67 151-176 151-292 0-199-161-360-359-360-198 0-359 161-359 360 0 115 56 225 151 292 15 11 30 20 46 28 19 10 27 34 17 53-9 19-33 27-52 17-20-10-39-21-57-34-115-82-183-215-183-356 0-242 196-438 437-438s438 196 438 438z" horiz-adv-x="1000" />

<glyph glyph-name="item-blank" unicode="&#xe863;" d="M989 539l-60 118c-1 1-1 2-2 2 0 1-1 1-1 2-3 3-5 5-9 6 0 1 0 1 0 1l-410 139c-4 2-9 2-14 0l-409-139c-1 0-1 0-1-1-3-1-6-3-9-6 0-1-1-1-1-2 0 0-1-1-1-2l-61-118c-13-26-15-54-4-79 10-26 30-45 57-54l31-11v-260c0-57 43-117 96-136l302-106c2-1 5-1 7-1 2 0 5 0 7 1l302 106c54 19 96 79 96 136v260l31 11c27 9 47 28 57 54 11 25 9 53-4 79z m-489 227l346-118-95-34-178-62c-1-1-1-1-2-1l-71-25-346 122 346 118z m-422-321c-15 5-27 16-33 30-5 14-4 30 3 45l52 102 313-110c23-8 44-16 58-22l-50-96c-16-31-60-49-93-37l-250 88z m59-310v245l177-62c12-4 24-6 37-6 45 0 88 25 107 63l21 41v-474l-274 96c-37 13-68 57-68 97z m726 0c0-40-31-84-68-97l-274-96v474l21-40c20-39 63-64 107-64 13 0 25 2 37 6l177 62v-245z m92 340c-6-14-17-25-33-30l-250-88c-33-12-77 6-93 38l-50 95c14 6 35 14 58 22l313 110 52-102c7-15 8-31 3-45z" horiz-adv-x="1000" />

<glyph glyph-name="place-blank" unicode="&#xe864;" d="M908 560c0-122-183-188-158-368h83c-18 162 167 223 167 374 0 114-78 184-197 184-82 0-145-40-194-96l54-49c36 41 82 67 133 67 74 0 112-51 112-112z m-114-465c-38 0-68-30-68-73 0-42 30-72 68-72 38 0 69 30 69 72 0 43-31 73-69 73z m-533 655c-144 0-261-118-261-264 0-12 1-24 3-35 0-3 1-6 1-9 1-6 2-13 4-19 21-95 82-195 140-272h-11c-18 0-40-13-48-30l-74-141c-8-17 0-30 18-30h193c19 0 49 0 67 0h193c18 0 26 13 18 30l-73 141c-9 17-31 30-49 30h-7c57 77 119 177 139 272 2 6 3 13 4 19 1 3 1 6 2 9 1 11 2 23 2 35 0 146-117 264-261 264z m121-632c6 0 16-7 19-12l63-123h-171-67-171l63 123c3 5 13 12 19 12h36c49-62 88-102 88-102s40 40 88 102h33z m105 338c-1-3-1-5-2-9 0-6-2-11-3-17-22-98-90-202-149-279-9-12-18-23-27-33-17-22-33-40-45-53-12 13-27 31-45 53-8 10-17 21-26 33-60 77-128 182-150 280-1 5-2 11-3 17 0 2-1 4-1 7-2 12-3 22-3 31 0 127 103 231 228 231 126 0 228-104 228-231 0-9-1-19-2-30z m-226 152c-67 0-122-54-122-122 0-68 55-122 122-122 68 0 123 54 123 122 0 68-55 122-123 122z" horiz-adv-x="1000" />

<glyph glyph-name="with-friends-blank" unicode="&#xe865;" d="M794 95c-38 0-68-30-68-74 0-41 30-71 68-71 38 0 69 30 69 71 0 44-31 74-69 74z m114 465c0-122-183-188-158-368h83c-18 162 167 223 167 374 0 114-78 184-197 184-82 0-145-40-194-96l54-49c36 41 82 67 133 67 74 0 112-51 112-112z m-548-332h-240c-66 0-120-54-120-120v-125c0-18 15-33 33-33 0 0 21 0 87 0h240c66 0 86 0 86 0 19 0 34 15 34 33v125c0 66-54 120-120 120z m-19-34l-89-88c-6-7-17-7-23 0l-89 88h201z m105-211h-86-240-87v125c0 40 28 74 65 83l-1-1 108-108c10-10 23-15 36-15s25 5 35 15l108 108 0 1c36-11 62-44 62-83v-125z m-210 294c131 0 237 106 237 237 0 130-106 236-237 236-130 0-236-106-236-236 0-131 106-237 236-237z m-135 387c36-36 132-100 330-94 6-18 9-37 9-56 0-112-92-203-204-203s-203 91-203 203c0 59 26 113 68 150z m136-299c49 0 89 40 89 90h-179c0-50 40-90 90-90z" horiz-adv-x="1000" />

<glyph glyph-name="website" unicode="&#xe866;" d="M500 850c-276 0-500-224-500-500s224-500 500-500c105 0 202 32 282 87l-27 44-33-20c-18-11-37-17-56-17-1 0-2 0-3 0-2 0-4 1-5 1-5 2-12-14-21-14-1 0-1-19-2-19h-5c-34 0-62 35-62 55s-27 45-60 45c-33 0-60 16-60 29 0 13-23 27-50 27-28 0-50-21-50-48s-22-48-49-48c-6 0-10-1-14-3-133 75-222 218-222 381 0 34 4 58 11 90 11-11 30-27 51-27h26c35 0 63-1 63-12s0-25 0-36c0-11 9-18 21-18s40 1 64 1c23 0 42-17 42-39s10-41 21-41c12 0 22-27 22-60 0-33 19-60 42-60 23 0 43 9 43 20 0 11 0 29 1 40 1 12 11 21 21 21 11-1 30-1 41-1 4 0 7 3 10 6l-7 66-4 36-8 64c-1 11-4 29-3 39-5 3-9 7-9 12 0 11-19 20-43 20s-42-9-42-20-19-21-42-21-43 20-43 45 10 44 21 44c12 0 22 9 22 20s9 20 21 20 21 18 21 40-19 41-42 41-43 26-43 58c0 30-23 44-52 35 46 26 98 43 154 50 20-26 22-58 5-72-18-15-19-31-1-53s35-23 53-8c18 14 42 16 52 2 11-13 39-8 62 11s75 12 91-9c17-21 46-33 73-11l4 3c9 7 13 15 16 23 86-79 140-193 140-319 0-7-1-15-2-22l39-25c8-5 14-11 21-17 2 21 4 42 4 64 0 276-224 500-500 500z m432-664c26 17 22 46-8 66l-276 180c-10 6-19 9-26 9-16 0-25-14-22-39l39-327c4-27 18-43 36-43 7 0 13 2 20 7l78 48 123-196 81 50-123 197 78 48z" horiz-adv-x="1000" />

<glyph glyph-name="public" unicode="&#xe867;" d="M661-88c-153 0-277 125-277 278 0 152 124 276 277 276 18 0 35-2 52-5-1-25-16-45-34-45-18 0-34-16-34-34 0-19 8-35 17-35 10 0 17-7 17-17 0-9 8-17 18-17 9 0 17-17 17-37 0-21-16-38-35-38-18 0-34 8-34 17 0 10-15 17-34 17-19 0-34-7-34-17 0-9-16-17-35-17-19 0-34-15-34-34 0-19 15-35 34-35 19 0 35-7 35-17 0-9-8-17-18-17-9 0-17-15-17-34 0-19 8-34 17-34 10 0 25 0 33 0 9 0 17-8 18-17 0-10 1-25 1-35 0-9 15-17 34-17 19 0 34 23 34 51 0 29 8 52 18 52 9 0 17 15 17 34 0 19 15 34 34 34 19 0 42 0 52 0 9 0 17 8 17 17 0 10 0 26 0 35 0 9 27 17 61 17 22 0 40 7 51 17 5-21 9-43 9-65 0-153-125-278-277-278l0 0z m-505 0l-93 0 0 0 0 135c0 7 1 14 2 20 10 39 47 68 91 68l170 0c15-92 66-171 139-223l-309 0z m156 410c-128 0-233 104-233 232 0 61 24 115 62 156 40-42 148-126 380-126 7 0 14 1 21 1 2-10 4-20 4-31 0-16-2-32-5-47-86-33-155-98-192-182-12-2-24-3-37-3l0 0z m0 466c96 0 178-58 214-141-208-1-304 71-337 104 36 23 78 37 123 37l0 0z m349-259c-19 0-38-2-56-5 1 10 3 20 3 30 0 164-132 296-296 296-163 0-295-132-295-296 0-163 132-295 295-295 6 0 11 1 17 2-5-21-7-42-8-64l-165 0c-86 0-156-67-156-150l0-135c0-34 28-62 63-62l93 0 313 0 94 0c10 0 19 3 27 7 23-4 46-7 71-7 187 0 339 152 339 340 0 187-152 339-339 339l0 0z" horiz-adv-x="1000" />

<glyph glyph-name="setting-socmed-setting" unicode="&#xe868;" d="M446 8c0 0 0 0 1 0v-50c-1 0-1 0-1 0-246 0-446 200-446 446s200 446 446 446c237 0 430-185 445-418-16 14-34 26-54 33-30 189-193 335-391 335-218 0-396-178-396-396s178-396 396-396z m-243 396c0 134 109 243 243 243 110 0 203-74 233-175 10 2 20 3 31 3h20c-32 128-146 222-284 222-162 0-293-131-293-293s131-293 293-293c0 0 0 0 1 0v50c-1 0-1 0-1 0-134 0-243 109-243 243z m126 0c0-64 53-117 117-117s117 53 117 117-52 117-117 117-117-53-117-117z m671-230v-216c0-60-48-108-108-108h-287c-60 0-108 48-108 108v216c0 58 47 106 105 107v36c0 60 49 108 108 108h72c59 0 108-48 108-108v-35h2c60 0 108-49 108-108z m-193-65c0 33-26 59-59 59s-58-26-58-59c0-22 13-41 31-51v-68c0-20 13-36 27-36s27 16 27 36v69c19 9 32 28 32 50z m11 209c0 19-16 36-36 36h-72c-19 0-36-17-36-36v-36h144v36z" horiz-adv-x="1000" />

<glyph glyph-name="setting-privacy-setting" unicode="&#xe869;" d="M156-100h-93-13v147c0 35 19 66 48 84 17 10 37 16 58 16h291v27c0 8 0 15 2 23h-293c-86 0-156-67-156-150v-147c0-28 23-50 50-50 0 0 20 0 106 0h313c8 0 14 0 21 0-14 14-25 31-32 50h-302z m156 359c164 0 296 132 296 295 0 164-132 296-296 296-163 0-295-132-295-295 0-164 132-296 295-296z m0 541c105 0 194-66 230-159-247-5-345 90-368 116 40 27 87 43 138 43z m-176-75c30-36 134-134 384-134 11 0 23 0 34 0 2-12 4-24 4-36 0-136-110-246-246-246-135 0-245 110-245 246 0 66 27 125 69 170z m756-443h-2v36c0 59-49 107-108 107h-72c-59 0-108-48-108-107v-37c-58-1-105-49-105-107v-216c0-60 48-108 108-108h287c60 0 108 48 108 108v216c0 59-48 108-108 108z m-117-223v-69c0-20-12-36-27-36s-27 16-27 36v69c-18 9-31 28-31 50 0 33 26 59 58 59s59-26 59-59c0-22-13-41-32-50z m43 223h-144v36c0 19 17 36 36 36h72c20 0 36-17 36-36v-36z" horiz-adv-x="1000" />

<glyph glyph-name="setting-term-condition" unicode="&#xe86a;" d="M892 282h-2v35c0 60-49 108-108 108h-72c-59 0-108-48-108-108v-36c-58-1-105-49-105-107v-216c0-60 48-108 108-108h287c60 0 108 48 108 108v216c0 59-48 108-108 108z m-117-223v-69c0-20-12-36-27-36s-27 16-27 36v69c-18 9-31 28-31 50 0 33 26 59 58 59s59-26 59-59c0-22-13-41-32-50z m43 223h-144v35c0 20 17 37 36 37h72c20 0 36-17 36-37v-35z m-718-382c-28 0-50 22-50 50v800c0 28 23 50 50 50h600c28 0 50-22 50-50v-275h32c6 0 12-1 18-1v276c0 55-45 100-100 100h-600c-55 0-100-45-100-100v-800c0-55 45-100 100-100h390c-14 14-25 31-32 50h-358z m74 751h452v-62h-452z m0-246h405c12 18 28 34 47 46v16h-452v-62z m0-184h280c8 24 21 45 38 63h-318v-63z m0-121h206v-62h-206z" horiz-adv-x="1000" />

<glyph glyph-name="setting-privacy-policy" unicode="&#xe86b;" d="M742 438v312c0 28-22 50-50 50h-592c-27 0-50-22-50-50v-790c0-28 23-50 50-50h394c14-9 30-15 48-15 8 0 16 1 24 3l36 12h12l8-38 1-6c0-2 2-4 2-6h-525c-55 0-100 45-100 100v790c0 55 45 100 100 100h592c55 0 100-45 100-100v-312h-50z m-570 153h448v62h-448v-62z m0-182h448v62h-448v-62z m0-181h275c1 9 4 19 9 27l4 6 10 17 6 12h-304v-62z m0-182h204v62h-204v-62z m811-62l-14-23c-6-10-18-16-30-16-3 0-6 0-9 1l-66 21-21 7c-5-3-10-6-15-9l-4-21-14-61-1-7c-3-14-18-26-32-26h-7-40-7c-15 0-30 12-33 26l-1 7-13 61-5 21c-5 3-10 6-15 9l-21-7-66-21c-3-1-6-1-9-1-12 0-24 6-30 16l-13 23-10 18-4 6c-7 13-4 31 7 41l5 5 46 42 17 14c-1 3-1 6-1 9s0 6 1 9l-17 14-46 42-5 5c-11 10-14 28-7 41l4 6 10 17 13 24c6 10 18 16 30 16 3 0 6 0 9-1l66-22 21-6c5 3 10 6 15 8l5 22 13 61 1 7c3 14 18 26 33 26h7 40 7c14 0 29-12 32-26l1-7 14-61 4-22c5-2 10-5 15-8l21 6 60 20h0l6 2c3 1 6 1 9 1 12 0 24-6 30-16l14-24 10-17 3-6c7-13 4-31-6-41l-6-5-46-42-16-14c0-3 0-6 0-9s0-6 0-9l16-14 46-42 6-5c10-10 13-28 6-41l-3-6-10-18z m-142 135c0 50-41 91-91 91s-92-41-92-91 41-91 92-91 91 41 91 91z" horiz-adv-x="1000" />

<glyph glyph-name="setting-information" unicode="&#xe86c;" d="M567 445h-133v-303h-79v-90h290v90h-78m-67 368c45 0 77 29 77 70 0 40-32 68-77 68-44 0-77-28-77-68 0-41 33-70 77-70z m0 340c-276 0-500-224-500-500 0-276 224-500 500-500s500 224 500 500c0 276-224 500-500 500z m0-950c-248 0-450 202-450 450 0 248 202 450 450 450s450-202 450-450c0-248-202-450-450-450z" horiz-adv-x="1000" />

<glyph glyph-name="setting-general-setting" unicode="&#xe86d;" d="M937 228l-87 78-30 28c0 5 1 11 1 16 0 5-1 11-1 16l30 27 87 79 9 8c20 18 26 53 12 77l-6 11-19 32-25 43c-11 19-33 31-55 31-6 0-12-1-18-3l-11-4h-1l-110-36-39-12c-9 6-18 11-28 16l-8 40-25 114-3 12c-5 27-33 49-60 49h-12-75-13c-28 0-55-22-60-49l-3-12-24-114-9-40c-10-5-19-10-28-16l-39 13-122 39c-6 2-12 3-18 3-22 0-44-12-55-31l-25-43-19-33-6-10c-14-24-8-59 12-77l9-8 87-79 30-27c0-5-1-11-1-16 0-5 1-11 1-16l-30-28-87-78-9-8c-20-18-26-53-12-77l6-11 19-32 25-43c11-19 33-31 55-31 6 0 12 1 18 3l122 40 39 12c9-6 18-11 28-16l9-40 24-114 3-12c5-27 32-49 60-49h13 75 12c27 0 55 22 60 49l3 12 25 114 8 40c10 5 19 10 28 16l39-13 122-39c6-2 12-3 18-3 22 0 44 12 55 31l25 43 19 32 6 11c14 24 8 59-12 77l-9 8z m-22-60l-6-10-19-33-25-43c-2-2-7-6-14-6 0 0 0 0 0 0l-123 40-38 12-23 8-20-13c-8-5-16-10-23-13l-22-11-5-24-8-40-25-113-2-13c-1-3-8-9-12-9h-12-75-13c-4 0-11 6-11 9l-3 13-25 114-8 39-5 24-22 11c-7 3-15 8-23 13l-20 13-22-7-39-13-125-40c-5 0-10 4-12 6l-25 43-19 33-6 10c-2 4 0 12 3 15l9 8 87 79 30 27 17 16-1 24 0 5c-1 3-1 5-1 8 0 3 0 5 1 7l0 6 1 24-17 16-31 27-86 79-9 8c-3 3-5 11-3 14l7 12 18 32 25 43c2 2 7 6 13 6 1 0 1 0 1 0l123-40 39-12 22-8 20 13c7 5 15 9 24 14l21 10 5 24 8 39 25 114 3 13c0 4 7 9 11 9h13 75 12c4 0 11-5 12-10l2-11 25-114 8-40 5-24 22-10c8-4 15-9 23-14l20-13 22 8 39 12 103 33h1l7 3 14 4c5 0 10-3 12-6l25-43 19-33 6-10c2-4 0-12-2-15l-10-8-86-79-31-27-17-16 1-24 0-3c0-4 1-7 1-10 0-3-1-7-1-10l0-3-1-24 17-16 31-28 86-78 9-8c3-2 5-11 3-15z m-415 357c-97 0-175-78-175-175s78-175 175-175c97 0 175 78 175 175s-78 175-175 175z m0-300c-69 0-125 56-125 125s56 125 125 125c69 0 125-56 125-125s-56-125-125-125z" horiz-adv-x="1000" />

<glyph glyph-name="setting-edit-account" unicode="&#xe86e;" d="M616-127l-10 43-13-4v-12h-13-26c-7-2-14-3-21-3-8 0-15 1-23 3h-24-312-94-12v147c0 35 19 66 48 84 16 10 36 16 58 16h287l-8 7-5 5c-11 10-18 24-22 38h-252c-86 0-156-67-156-150v-147c0-28 22-50 50-50 0 0 20 0 106 0h312c86 0 107 0 107 0 10 0 19 4 27 9-1 3-2 5-3 8l-1 6z m351 185l-48 43-17 15c1 3 1 6 1 9 0 3 0 6-1 9l17 15 48 42 5 5c11 10 14 29 6 42l-3 6-10 18-14 24c-6 10-18 17-30 17-4 0-7-1-10-2l-6-2h0l-61-20-22-6c-5 3-10 6-15 8l-5 22-13 63-2 7c-3 14-18 26-33 26h-7-41-7c-15 0-30-12-33-26l-1-7-14-63-4-22c-6-2-11-5-16-8l-21 6-68 22c-3 1-6 2-9 2-12 0-24-7-30-17l-14-24-11-18-3-6c-7-13-5-32 7-42l5-5 47-42 17-15c0-3-1-6-1-9 0-3 1-6 1-9l-17-15-47-43-5-5c-12-10-14-29-7-42l3-6 11-18 13-24c6-10 19-16 31-16 3 0 6 0 9 1l68 22 21 7c5-3 10-6 15-9l5-22 14-62 1-7c3-15 18-27 33-27h7 41 7c15 0 30 12 33 27l2 7 13 62 5 22c5 3 10 6 15 9l22-7 67-22c3-1 6-1 9-1 12 0 25 6 31 16l14 24 10 18 3 6c8 13 5 32-6 42l-5 5z m-240-26c-52 0-94 41-94 93s42 93 94 93c51 0 93-42 93-93s-42-93-93-93z m-397 227c40 0 77 8 112 22 39 16 73 40 102 70 50 53 82 124 82 203 0 164-133 296-296 296-163 0-295-132-295-296 0-163 132-295 295-295z m0 541c105 0 194-66 229-159-247-5-345 90-367 116 39 27 87 43 138 43z m-176-75c30-36 134-135 384-135 11 0 22 1 34 1 2-12 4-24 4-37 0-135-111-245-246-245-135 0-245 110-245 245 0 67 26 126 69 171z" horiz-adv-x="1000" />

<glyph glyph-name="with-secret" unicode="&#xe86f;" d="M450 196l-300 0c-83 0-150-67-150-150l0-154c0-21 17-42 42-42 0 0 25 0 108 0l300 0c83 0 108 0 108 0 21 0 42 17 42 42l0 154c0 83-67 150-150 150z m-25-42l-112-112c-9-9-21-9-30 0l-112 112 254 0z m133-262l-108 0-300 0-108 0 0 154c0 54 33 96 83 108l0 0 129-137c13-13 29-17 46-17 17 0 33 4 46 17l137 133 0 0c46-12 80-54 80-104l-5-154z m-262 366c162 0 296 134 296 296 0 163-129 296-296 296-163 0-292-129-296-296 0-162 133-296 296-296z m-167 484c46-46 167-125 413-117 8-21 8-46 8-71 0-141-117-254-254-254-142 0-254 117-254 254 0 75 33 142 87 188z m796-325l0 0 0 25c0 41-33 75-75 75l-50 0c-42 0-75-34-75-75l0-25c-42 0-71-34-75-75l0-150c0-42 33-75 75-75l200 0c42 0 75 33 75 75l0 150c0 41-33 75-75 75z m-150 25c0 12 13 25 25 25l50 0c13 0 25-13 25-25l0-25-100 0 0 25z m79-179l0-71c0-17-12-29-25-29-12 0-25 12-25 29l0 71c-16 8-29 25-29 50 0 29 25 54 54 54 29 0 54-25 54-54 0-25-12-42-29-50z m-671 183h17c38 0 67 29 67 67v29h58v-25c0-38 29-67 67-67h25c37 0 66 29 66 67v66h-125-29-58-25-129v-66c0-38 29-71 66-71z" horiz-adv-x="1000" />

<glyph glyph-name="place-secret" unicode="&#xe870;" d="M325 850c-179 0-325-146-325-329 0-17 0-29 4-46 0-4 0-8 0-12 0-9 4-17 4-25 25-117 105-242 175-342h-12c-21 0-50-17-63-38l-91-175c-9-16 4-33 25-33h241c21 0 63 0 84 0h241c21 0 34 17 21 37l-91 176c-9 20-38 37-59 37h-8c71 96 150 221 175 342 0 8 4 16 4 25 0 4 0 8 0 12 0 17 4 29 4 46 0 179-146 325-329 325z m154-792c9 0 21-8 25-12l79-154h-216-84-216l79 154c4 4 17 12 25 12h46c62-75 108-125 108-125s50 50 108 125h46z m129 425c0-4 0-4 0-12 0-8-4-13-4-21-25-121-112-254-187-350-13-17-21-29-34-42-20-25-41-50-58-66-12 16-33 41-54 66-13 13-21 25-33 42-75 96-159 229-188 350 0 8-4 13-4 21 0 4 0 4 0 8-4 17-4 29-4 42 0 158 129 287 283 287 158 0 283-129 283-287 5-13 0-25 0-38z m-129 38c0-83-66-154-154-154-83 0-154 66-154 154 0 83 67 154 154 154 88-4 154-71 154-154z m446-104l0 0 0 25c0 41-33 75-75 75l-50 0c-42 0-75-34-75-75l0-25c-42 0-71-34-75-75l0-150c0-42 33-75 75-75l200 0c42 0 75 33 75 75l0 150c0 41-33 75-75 75z m-150 25c0 12 13 25 25 25l50 0c13 0 25-13 25-25l0-25-100 0 0 25z m75-179l0-71c0-17-12-29-25-29-12 0-25 12-25 29l0 71c-17 8-29 25-29 50 0 29 25 54 54 54 29 0 54-25 54-54 4-21-8-42-29-50z" horiz-adv-x="1000" />

<glyph glyph-name="icon-with-side" unicode="&#xe871;" d="M145 688h-51c-14 0-26-12-26-26v-27c0-4 3-7 7-7h19 51 19c4 0 7 3 7 7v27c0 14-12 26-26 26m-26 18c24 0 43 20 43 44 0 25-19 44-43 44-24 0-44-19-44-44 0-24 20-44 44-44" horiz-adv-x="1000" />

<glyph glyph-name="icon-place-side" unicode="&#xe872;" d="M129 794a61 61 0 0 1-61-60 135 135 0 0 1 27-71 212 212 0 0 1 20-25 23 23 0 0 1 14-10 23 23 0 0 1 13 10 228 228 0 0 1 20 24 134 134 0 0 1 27 71 61 61 0 0 1-60 61z m0-96a34 34 0 1 0 34 34 34 34 0 0 0-34-34z" horiz-adv-x="1000" />

<glyph glyph-name="icon-balon" unicode="&#xe873;" d="M841 17l-110 39a374 374 0 1 0 69 70z" horiz-adv-x="1000" />

<glyph glyph-name="add-with-people-1" unicode="&#xe875;" d="M1000 351h-104v104h-83v-104h-105v-83h105v-105h83v105h104m-550-71h-300c-82 0-150-67-150-150v-155c0-23 19-42 42-42h516c23 0 41 19 41 42v155c0 83-67 150-149 150z m-23-42l-112-111c-7-7-21-7-29 0l-111 111h252z m131-263h-516v155c0 51 34 93 81 105l-2-2 136-135c12-12 28-18 44-18 16 0 32 6 44 18l135 135-1 1c45-13 79-55 79-104v-155z m-263 367c164 0 296 132 296 295 0 164-132 296-296 296-163 0-295-132-295-296 0-163 132-295 295-295z m-169 484c46-45 165-126 413-118 7-22 10-46 10-71 0-140-113-253-253-253-140 0-254 114-254 253 0 75 32 142 84 189z m170-374c62 0 112 50 112 112h-225c0-62 50-112 113-112z" horiz-adv-x="1000" />

<glyph glyph-name="path-01" unicode="&#xe877;" d="M833 850h-666c-92 0-167-75-167-167v-666c0-92 75-167 167-167h666c92 0 167 75 167 167v666c0 92-75 167-167 167z m-66-508c-88-179-254-113-254-113v-91c0 0-9-50-67-71-58-21-113 21-113 21v91c30-29 63-41 80-4v304h100v-175c0 0 150-46 170 96 0 154-183 154-183 154s-112 4-167-83c-41-71 13-138 13-138l-75-66c0 0-108 137-4 283 141 158 379 63 379 63s183-75 121-271z" horiz-adv-x="1000" />

<glyph glyph-name="add-place-1" unicode="&#xe878;" d="M323 850c-178 0-322-146-322-326 0-15 1-29 3-44 1-3 1-7 2-10 1-8 3-16 5-24 26-121 107-249 179-345h-9c-28 0-61-20-73-44l-84-163c-13-24-1-44 27-44h549c27 0 39 20 27 44l-84 163c-13 24-46 44-73 44h-14c73 96 153 224 180 345 2 8 3 16 4 24 1 3 2 7 2 10 2 15 3 29 3 44 0 180-144 326-322 326z m147-799c9 0 24-9 28-17l70-134h-485l69 134c4 8 20 17 28 17h49c53-65 94-107 94-107s41 42 94 107h53z m123 436l-2-10c-1-6-2-13-4-20-28-125-119-261-194-356-14-18-28-35-41-50-10-12-20-24-29-33-8 9-18 21-29 33-12 15-26 32-40 50-75 95-167 231-195 357-1 6-3 13-4 21-1 2-1 5-1 8-2 14-3 26-3 37 0 152 122 276 272 276s273-124 273-276c0-11-1-22-3-37z m-270 188c-83 0-151-68-151-151 0-83 68-151 151-151 84 0 151 68 151 151 0 83-67 151-151 151z m551-349v125h-100v-125h-125v-100h125v-125h100v125h125v100" horiz-adv-x="1000" />

<glyph glyph-name="trash" unicode="&#xe879;" d="M313 7h62v373h-62m312-373h63v373h-63m-156-373h62v373h-62m406 158v-1h-750v126h750v-125z m-62-563c0-34-28-63-63-63h-500c-34 0-62 29-62 63v499h625v-499z m-360 750h94v63h-94v-63z m422 0h-250v63c0 34-28 62-62 62h-125c-35 0-63-28-63-62v-63h-250c-34 0-62-28-62-62v-189h62v-499c0-69 56-125 125-125h500c69 0 125 56 125 125v499h63v189c0 34-29 62-63 62z" horiz-adv-x="1000" />
</font>
</defs>
</svg>
